<svg width="60" height="60" viewBox="0 0 60 60" fill="none" xmlns="http://www.w3.org/2000/svg">
<g clip-path="url(#clip0_149_3267)">
<path d="M43.5 8.90002C38.88 8.90002 34.38 11.87 32.82 15.98H27.21C25.62 11.87 21.12 8.90002 16.5 8.90002C10.5 8.90002 6 13.4 6 19.4C6 28.07 15.42 36.62 29.7 49.55L30 49.85L30.3 49.55C44.58 36.62 54 28.07 54 19.4C54 13.4 49.5 8.90002 43.5 8.90002Z" fill="#FE2A1F"/>
<path d="M43.5 2.90002C38.28 2.90002 33.27 5.33002 30 9.17002C26.73 5.33002 21.72 2.90002 16.5 2.90002C7.26 2.90002 0 10.16 0 19.4C0 30.74 10.2 39.98 25.65 54.02L30 57.95L34.35 53.99C49.8 39.98 60 30.74 60 19.4C60 10.16 52.74 2.90002 43.5 2.90002ZM30.3 49.55L30 49.85L29.7 49.55C15.42 36.62 6 28.07 6 19.4C6 13.4 10.5 8.90002 16.5 8.90002C21.12 8.90002 25.62 11.87 27.21 15.98H32.82C34.38 11.87 38.88 8.90002 43.5 8.90002C49.5 8.90002 54 13.4 54 19.4C54 28.07 44.58 36.62 30.3 49.55Z" fill="#FE2A1F"/>
</g>
<defs>
<clipPath id="clip0_149_3267">
<rect width="60" height="56.4" fill="white" transform="translate(0 2.29999)"/>
</clipPath>
</defs>
</svg>
