<?xml version="1.0" standalone="no"?><!DOCTYPE svg PUBLIC "-//W3C//DTD SVG 1.1//EN" "http://www.w3.org/Graphics/SVG/1.1/DTD/svg11.dtd"><svg class="icon" width="200px" height="200.00px" viewBox="0 0 1024 1024" version="1.1" xmlns="http://www.w3.org/2000/svg"><path d="M481.834667 968.832l-170.666667-170.666667-2.496-2.709333a42.666667 42.666667 0 0 1 0-54.912l2.496-2.709333 2.709333-2.496a42.666667 42.666667 0 0 1 54.912 0l2.709334 2.496L469.333333 835.626667V640a42.666667 42.666667 0 0 1 85.226667-3.2L554.666667 640v195.648l97.834666-97.813333 2.709334-2.496a42.666667 42.666667 0 0 1 60.117333 60.117333l-2.496 2.709333-170.666667 170.666667a42.922667 42.922667 0 0 1-2.517333 2.346667l-0.192 0.149333a42.858667 42.858667 0 0 1-2.474667 1.92l-0.789333 0.576a45.952 45.952 0 0 1-5.802667 3.349333 42.56 42.56 0 0 1-6.357333 2.432l-0.341333 0.106667-0.234667 0.042667-0.746667 0.213333-1.365333 0.341333-0.405333 0.085334a42.730667 42.730667 0 0 1-7.850667 0.917333L512 981.333333l-2.688-0.085333-1.450667-0.106667a46.976 46.976 0 0 1-6.634666-1.173333 49.408 49.408 0 0 1-4.757334-1.557333 41.941333 41.941333 0 0 1-2.922666-1.28l-0.341334-0.149334a42.645333 42.645333 0 0 1-8.32-5.354666l-1.194666-1.045334-1.856-1.749333zM512 469.333333a42.666667 42.666667 0 1 1 0 85.333334 42.666667 42.666667 0 0 1 0-85.333334zM483.648 53.44l0.362667-0.298667 0.170666-0.170666-0.064 0.064 1.152-0.96c0.576-0.469333 1.152-0.917333 1.749334-1.322667l0.832-0.597333a46.122667 46.122667 0 0 1 5.76-3.328c2.026667-0.981333 4.16-1.792 6.357333-2.432l0.682667-0.213334-0.298667 0.085334 1.152-0.298667a42.389333 42.389333 0 0 1 2.752-0.597333l2.154667-0.341334A55.082667 55.082667 0 0 1 511.36 42.666667h1.216l1.088 0.042666h0.426667l0.170666 0.021334 0.512 0.021333h-0.192l1.557334 0.106667a46.976 46.976 0 0 1 6.634666 1.173333 49.408 49.408 0 0 1 6.72 2.368l0.96 0.448 0.341334 0.170667a42.645333 42.645333 0 0 1 8.661333 5.653333l0.512 0.426667 1.664 1.536 0.533333 0.533333 170.666667 170.666667a42.666667 42.666667 0 0 1-57.621333 62.826666l-2.709334-2.496L554.666667 188.330667V384a42.666667 42.666667 0 0 1-85.226667 3.2L469.333333 384V188.330667l-97.834666 97.834666a42.666667 42.666667 0 0 1-57.621334 2.496l-2.709333-2.496a42.666667 42.666667 0 0 1-2.496-57.621333l2.496-2.709333 170.666667-170.666667 0.554666-0.554667 1.664-1.493333-0.405333 0.32z" fill="#162232" /></svg>