<svg width="137" height="123" viewBox="0 0 137 123" fill="none" xmlns="http://www.w3.org/2000/svg">
<path d="M128 105C114.667 109 101.333 109 88 105C74.6667 101 61.3333 101 48 105C34.6667 109 21.3333 109 8 105" stroke="#121315"/>
<path d="M128 98C114.667 102 101.333 102 88 98C74.6667 94 61.3333 94 48 98C34.6667 102 21.3333 102 8 98" stroke="#121315"/>
<path d="M128 91C114.667 95 101.333 95 88 91C74.6667 87 61.3333 87 48 91C34.6667 95 21.3333 95 8 91" stroke="#121315"/>
<path d="M128 84C114.667 88 101.333 88 88 84C74.6667 80 61.3333 80 48 84C34.6667 88 21.3333 88 8 84" stroke="#121315"/>
<path d="M128 78C114.667 82 101.333 82 88 78C74.6667 74 61.3333 74 48 78C34.6667 82 21.3333 82 8 78" stroke="#121315"/>
<g opacity="0.75">
<path d="M149.245 -0.179881C166.638 31.8537 154.769 71.9217 122.735 89.3145C90.7017 106.707 50.6337 94.8387 33.2409 62.8051C15.8481 30.7715 27.7168 -9.29652 59.7504 -26.6893C91.784 -44.0822 131.852 -32.2135 149.245 -0.179881Z" stroke="#618A54" stroke-width="2"/>
<path d="M136.713 62.2944C136.996 61.8108 137.308 61.41 137.652 61.0918C138.002 60.7776 138.432 60.5331 138.942 60.3584C139.07 60.313 139.197 60.2944 139.322 60.3025C139.447 60.3107 139.558 60.343 139.655 60.3995C139.813 60.4923 139.919 60.6283 139.972 60.8074C140.028 60.9975 140.005 61.1789 139.904 61.3516C139.828 61.4828 139.718 61.576 139.574 61.6312C139.207 61.7686 138.893 61.9328 138.633 62.1238C138.369 62.3217 138.127 62.6106 137.905 62.9905C137.755 63.2461 137.656 63.5031 137.607 63.7617C137.565 64.0242 137.571 64.2595 137.625 64.4674C137.687 64.6793 137.804 64.8358 137.977 64.9367C138.184 65.0577 138.396 65.0985 138.614 65.0589C138.832 65.0193 139.064 64.9 139.31 64.7009C139.563 64.5058 139.832 64.2276 140.117 63.8662C140.39 63.5254 140.665 63.2458 140.941 63.0271C141.224 62.8125 141.508 62.659 141.794 62.5665C142.082 62.4849 142.372 62.4644 142.663 62.5049C142.962 62.5494 143.259 62.6584 143.556 62.832C144.005 63.0943 144.322 63.4323 144.507 63.8458C144.687 64.2663 144.745 64.7219 144.681 65.2125C144.617 65.703 144.445 66.1866 144.167 66.6633C143.905 67.1122 143.593 67.4863 143.233 67.7855C142.876 68.0957 142.523 68.3111 142.175 68.4318C141.899 68.5393 141.657 68.5325 141.45 68.4114C141.298 68.3226 141.194 68.1832 141.139 67.9931C141.083 67.8031 141.101 67.6286 141.194 67.4697C141.255 67.3661 141.34 67.291 141.451 67.2445C141.612 67.1904 141.789 67.0944 141.981 66.9563C142.179 66.8223 142.367 66.6678 142.543 66.4928C142.726 66.3219 142.871 66.1467 142.975 65.9671C143.149 65.6701 143.258 65.3958 143.303 65.1441C143.344 64.8994 143.33 64.6869 143.259 64.5066C143.188 64.3264 143.067 64.1858 142.894 64.0849C142.687 63.9638 142.48 63.9216 142.273 63.9583C142.069 64.006 141.859 64.1196 141.643 64.2991C141.434 64.4827 141.205 64.7151 140.958 64.9966C140.639 65.3666 140.338 65.6768 140.052 65.9271C139.763 66.1843 139.475 66.3681 139.188 66.4785C138.908 66.5929 138.614 66.6292 138.305 66.5876C138.002 66.5499 137.675 66.4282 137.323 66.2224C136.874 65.9601 136.56 65.6097 136.38 65.1714C136.201 64.733 136.144 64.2596 136.209 63.7512C136.271 63.2497 136.439 62.7641 136.713 62.2944Z" fill="#618A54"/>
<path d="M140.651 71.1047C140.535 71.2575 140.376 71.3475 140.174 71.3748C139.974 71.4134 139.791 71.3696 139.626 71.2436L134.107 67.0413C133.942 66.9153 133.848 66.7482 133.826 66.54C133.809 66.3367 133.862 66.1555 133.983 65.9964C134.119 65.8182 134.282 65.7162 134.473 65.6904C134.67 65.6694 134.851 65.7219 135.016 65.848L140.534 70.0503C140.7 70.1763 140.793 70.3378 140.814 70.5347C140.841 70.7365 140.787 70.9265 140.651 71.1047ZM137.431 75.334C137.295 75.5122 137.129 75.6118 136.932 75.6327C136.741 75.6585 136.563 75.6084 136.397 75.4824L130.879 71.2801C130.714 71.1541 130.618 70.9902 130.59 70.7884C130.564 70.5978 130.622 70.4102 130.762 70.2256C130.879 70.0729 131.037 69.9772 131.237 69.9387C131.439 69.9114 131.623 69.9607 131.788 70.0867L137.306 74.289C137.472 74.4151 137.563 74.5797 137.579 74.7831C137.601 74.9912 137.552 75.1749 137.431 75.334ZM137.895 68.9604L134.652 73.2183L133.555 72.3822L136.797 68.1243L137.895 68.9604Z" fill="#618A54"/>
<path d="M130.921 81.2203C130.789 81.3483 130.621 81.4108 130.417 81.4075C130.214 81.4156 130.037 81.3421 129.886 81.187C129.836 81.1353 129.792 81.0724 129.753 80.9982C129.715 80.9354 129.688 80.8614 129.672 80.7763L128.914 76.0799L129.335 76.8248L126.939 74.3515C126.794 74.2021 126.723 74.0256 126.727 73.822C126.73 73.6297 126.797 73.4695 126.929 73.3415C127.073 73.2023 127.244 73.1314 127.442 73.1289C127.64 73.1377 127.811 73.2168 127.956 73.3661L130.286 75.7705L129.949 75.5616L134.208 76.2312C134.337 76.2502 134.447 76.2831 134.537 76.3297C134.627 76.3764 134.699 76.4285 134.755 76.4859C134.905 76.6411 134.968 76.8259 134.942 77.0405C134.916 77.2551 134.839 77.4236 134.713 77.5461C134.552 77.7019 134.333 77.7579 134.057 77.7139L130.189 77.0335L130.464 76.8341L131.101 80.5442C131.148 80.8335 131.088 81.0589 130.921 81.2203Z" fill="#618A54"/>
<path d="M123.146 76.1626C123.324 76.0268 123.524 75.9596 123.747 75.9611C123.974 75.9689 124.151 76.0555 124.277 76.2209L128.483 81.7365C128.609 81.9019 128.659 82.0799 128.633 82.2705C128.606 82.4723 128.51 82.6363 128.344 82.7624L125.596 84.8579C125.265 85.1101 124.889 85.2563 124.467 85.2965C124.043 85.3478 123.623 85.2855 123.208 85.1096C122.797 84.9401 122.438 84.6549 122.133 84.2541C121.948 84.0124 121.82 83.7382 121.747 83.4316C121.668 83.1298 121.644 82.8212 121.675 82.5057C121.7 82.1951 121.778 81.9089 121.91 81.647L122.068 81.8738C121.817 81.9142 121.584 81.9112 121.367 81.8649C121.149 81.8299 120.95 81.7602 120.77 81.6561C120.589 81.5631 120.426 81.4356 120.283 81.2735C120.136 81.1339 120.013 81.0061 119.915 80.89C119.81 80.7789 119.713 80.6916 119.625 80.6283C119.53 80.5699 119.424 80.5499 119.307 80.5685C119.104 80.5925 118.926 80.5371 118.773 80.4023C118.619 80.2787 118.549 80.1153 118.565 79.9119C118.572 79.7759 118.62 79.6539 118.709 79.546C118.802 79.4444 118.911 79.362 119.033 79.2986C119.161 79.2416 119.274 79.2055 119.373 79.1903C119.53 79.1714 119.708 79.1812 119.909 79.2196C120.114 79.2644 120.331 79.3651 120.561 79.5217C120.785 79.6831 121.023 79.9292 121.275 80.26C121.358 80.3682 121.452 80.4522 121.558 80.5122C121.669 80.5785 121.784 80.6168 121.902 80.6271C122.026 80.6437 122.153 80.6267 122.286 80.576C122.423 80.5317 122.565 80.4538 122.711 80.3422L124.639 78.8725L124.663 79.2011L123.084 77.1304C122.958 76.965 122.896 76.791 122.898 76.6086C122.904 76.4326 122.987 76.2839 123.146 76.1626ZM125.379 79.8626L123.155 81.5579C123.041 81.6453 122.968 81.781 122.938 81.9653C122.912 82.1559 122.932 82.3669 122.998 82.5984C123.069 82.8363 123.186 83.0633 123.351 83.2796C123.565 83.5596 123.818 83.7335 124.112 83.8016C124.403 83.8809 124.635 83.8551 124.807 83.7241L127.011 82.0433L127.13 82.436L125.071 79.7355L125.379 79.8626Z" fill="#618A54"/>
<path d="M116.659 80.9715C116.556 80.7907 116.535 80.6001 116.596 80.3998C116.661 80.2065 116.781 80.0604 116.955 79.9616C117.15 79.8509 117.34 79.8211 117.525 79.8722C117.714 79.9302 117.861 80.0496 117.963 80.2305L121.39 86.261C121.493 86.4418 121.515 86.6269 121.457 86.8163C121.403 87.0126 121.279 87.1661 121.084 87.2768C120.917 87.3717 120.735 87.3921 120.539 87.338C120.34 87.2948 120.188 87.1828 120.086 87.002L116.659 80.9715Z" fill="#618A54"/>
<path d="M113.433 82.5018C113.341 82.315 113.332 82.1235 113.405 81.9274C113.482 81.7384 113.61 81.6 113.79 81.5121C113.991 81.4137 114.183 81.3956 114.365 81.4581C114.55 81.5276 114.689 81.6559 114.78 81.8427L117.828 88.0731C117.919 88.26 117.93 88.4461 117.861 88.6316C117.794 88.8242 117.661 88.9697 117.46 89.0682C117.287 89.1525 117.105 89.1617 116.912 89.0956C116.716 89.0402 116.572 88.9191 116.48 88.7323L113.433 82.5018Z" fill="#618A54"/>
<path d="M107.848 92.6779C107.455 92.815 107.049 92.8295 106.63 92.7215C106.204 92.6161 105.818 92.4077 105.472 92.0963C105.126 91.7849 104.87 91.3913 104.704 90.9154C104.54 90.4471 104.497 89.9834 104.574 89.5244C104.651 89.0654 104.823 88.6582 105.089 88.3028C105.349 87.9576 105.676 87.7164 106.069 87.5794L108.154 86.8519L108.112 87.0954L107.293 84.7501C107.225 84.5537 107.227 84.3664 107.3 84.1883C107.376 84.0177 107.513 83.8982 107.709 83.8297C107.898 83.7638 108.075 83.7739 108.241 83.8602C108.409 83.954 108.528 84.0991 108.596 84.2954L110.881 90.8442C110.95 91.0406 110.942 91.2254 110.859 91.3986C110.77 91.582 110.628 91.708 110.431 91.7765L107.848 92.6779ZM106.52 88.871C106.376 88.9211 106.257 89.0303 106.164 89.1986C106.07 89.3669 106.011 89.5612 105.986 89.7817C105.964 90.0097 105.99 90.2295 106.063 90.441C106.14 90.66 106.256 90.8481 106.413 91.0054C106.569 91.1626 106.735 91.2741 106.911 91.3399C107.089 91.4134 107.25 91.425 107.393 91.3749L109.501 90.6396L109.436 90.891L108.428 88.0018L108.616 88.1396L106.52 88.871Z" fill="#618A54"/>
<path d="M95.3609 91.0493C95.2314 90.4635 95.2081 89.8951 95.2911 89.3442C95.3741 88.7932 95.5521 88.2828 95.8251 87.8128C96.0919 87.3523 96.4472 86.9583 96.891 86.6307C97.3269 86.3049 97.8339 86.0781 98.412 85.9503C98.99 85.8225 99.5453 85.8144 100.078 85.926C100.611 86.0376 101.099 86.2451 101.543 86.5484C101.981 86.8612 102.354 87.2499 102.661 87.7145C102.969 88.179 103.187 88.7042 103.317 89.2901C103.446 89.8759 103.47 90.4443 103.387 90.9952C103.304 91.5462 103.129 92.0519 102.862 92.5123C102.589 92.9824 102.234 93.3803 101.798 93.7061C101.362 94.0319 100.855 94.2587 100.277 94.3865C99.6994 94.5143 99.144 94.5224 98.6113 94.4108C98.0709 94.3009 97.5817 94.0895 97.1438 93.7767C96.6999 93.4734 96.3241 93.0895 96.0166 92.6249C95.709 92.1604 95.4905 91.6352 95.3609 91.0493ZM96.8841 90.7125C96.9998 91.2358 97.2098 91.6851 97.514 92.0603C97.8199 92.4433 98.184 92.7192 98.6064 92.8879C99.0288 93.0567 99.4822 93.0876 99.9665 92.9805C100.451 92.8734 100.849 92.6543 101.161 92.3231C101.473 91.992 101.687 91.5922 101.805 91.1237C101.915 90.657 101.911 90.1581 101.794 89.6269C101.678 89.1036 101.471 88.6495 101.173 88.2648C100.869 87.8896 100.505 87.6176 100.083 87.4489C99.6605 87.2801 99.2072 87.2492 98.7229 87.3563C98.2386 87.4634 97.8405 87.6825 97.5286 88.0137C97.2168 88.3448 97.002 88.7446 96.8844 89.2131C96.7685 89.6893 96.7684 90.1891 96.8841 90.7125Z" fill="#618A54"/>
<path d="M91.1795 86.3378C91.7382 86.3001 92.2456 86.3339 92.7018 86.4394C93.1584 86.5529 93.6022 86.7715 94.033 87.0952C94.1427 87.176 94.2292 87.2704 94.2927 87.3784C94.3561 87.4863 94.3916 87.5962 94.3991 87.7079C94.4115 87.8915 94.3584 88.0555 94.2399 88.1998C94.1139 88.3526 93.9512 88.4358 93.7516 88.4493C93.6 88.4595 93.461 88.4208 93.3348 88.3331C93.0148 88.1061 92.7028 87.9388 92.3989 87.831C92.0869 87.7238 91.7115 87.685 91.2725 87.7147C90.9771 87.7346 90.7087 87.7969 90.4672 87.9014C90.2262 88.0139 90.0351 88.1511 89.8936 88.313C89.7528 88.4828 89.6891 88.6676 89.7026 88.8671C89.7187 89.1066 89.8043 89.3052 89.9593 89.4632C90.1143 89.6211 90.3433 89.7459 90.6461 89.8377C90.9495 89.9375 91.3309 90.0039 91.7902 90.0371C92.2255 90.0718 92.6111 90.142 92.947 90.2476C93.2834 90.3612 93.5701 90.5102 93.8071 90.6946C94.0366 90.8876 94.2164 91.116 94.3465 91.3798C94.4771 91.6516 94.554 91.9592 94.5772 92.3024C94.6122 92.8212 94.5105 93.2731 94.2719 93.658C94.0253 94.0435 93.681 94.3474 93.239 94.5697C92.7969 94.792 92.3005 94.9218 91.7498 94.959C91.231 94.994 90.7467 94.9466 90.2969 94.8166C89.8397 94.6951 89.4633 94.5241 89.1678 94.3035C88.9239 94.1356 88.7939 93.9319 88.7777 93.6924C88.7658 93.5168 88.8229 93.3526 88.9489 93.1998C89.0748 93.0469 89.2296 92.9643 89.4132 92.9519C89.5329 92.9438 89.6431 92.9724 89.7438 93.0378C89.879 93.1409 90.0576 93.2331 90.2796 93.3143C90.5021 93.4035 90.7353 93.472 90.979 93.5197C91.2233 93.5753 91.4493 93.5961 91.6568 93.5821C92 93.5589 92.2884 93.4954 92.5219 93.3914C92.7474 93.2879 92.915 93.1563 93.0244 92.9966C93.1339 92.8369 93.1819 92.6572 93.1684 92.4577C93.1523 92.2182 93.0709 92.0233 92.9245 91.8728C92.7706 91.7308 92.5587 91.6209 92.2888 91.5429C92.0195 91.4729 91.6988 91.4144 91.3268 91.3673C90.8419 91.3119 90.4159 91.2364 90.0486 91.141C89.6734 91.046 89.3595 90.9109 89.1071 90.7355C88.8553 90.5681 88.6598 90.3447 88.5206 90.0655C88.382 89.7942 88.299 89.455 88.2715 89.048C88.2365 88.5292 88.3499 88.0725 88.6119 87.6779C88.8739 87.2834 89.2337 86.9704 89.6911 86.739C90.1406 86.5082 90.6367 86.3745 91.1795 86.3378Z" fill="#618A54"/>
<path d="M84.4996 86.0356C84.7233 86.0478 84.9033 86.1258 85.0397 86.2694C85.1756 86.4211 85.2379 86.6007 85.2266 86.8084L84.8471 93.7581L83.2894 93.673L83.6689 86.7234C83.6802 86.5157 83.7657 86.3441 83.9253 86.2086C84.0765 86.0806 84.268 86.023 84.4996 86.0356ZM86.7649 93.1898C86.9726 93.2011 87.1448 93.2746 87.2817 93.4103C87.4105 93.5455 87.4692 93.717 87.4579 93.9247C87.4465 94.1324 87.3697 94.2924 87.2273 94.4048C87.0766 94.5248 86.8974 94.5791 86.6897 94.5677L81.3696 94.2772C81.1619 94.2659 80.9936 94.1926 80.8648 94.0574C80.728 93.9217 80.6653 93.75 80.6766 93.5423C80.688 93.3346 80.769 93.1708 80.9198 93.0509C81.0621 92.9385 81.2371 92.8879 81.4448 92.8993L86.7649 93.1898Z" fill="#618A54"/>
<path d="M69.137 86.9072C69.2758 86.3235 69.5026 85.8018 69.8175 85.3422C70.1324 84.8826 70.5151 84.5007 70.9656 84.1967C71.4066 83.8987 71.8981 83.699 72.4403 83.5976C72.9746 83.4945 73.5298 83.5114 74.1057 83.6483C74.6817 83.7853 75.185 84.0201 75.6157 84.3528C76.0464 84.6854 76.3954 85.085 76.6628 85.5515C76.9205 86.024 77.0864 86.5363 77.1607 87.0884C77.235 87.6406 77.2027 88.2085 77.0639 88.7923C76.9251 89.376 76.6982 89.8977 76.3834 90.3573C76.0685 90.8169 75.6906 91.1958 75.2497 91.4938C74.7991 91.7978 74.3066 92.0014 73.7723 92.1046C73.2379 92.2078 72.6828 92.1909 72.1068 92.0539C71.5309 91.917 71.0275 91.6821 70.5968 91.3495C70.1583 91.0149 69.8102 90.6115 69.5525 90.139C69.2852 89.6725 69.1144 89.1632 69.0401 88.611C68.9659 88.0589 68.9981 87.4909 69.137 86.9072ZM70.6546 87.2681C70.5306 87.7896 70.5237 88.2854 70.6339 88.7557C70.7423 89.2337 70.9497 89.6407 71.2563 89.9768C71.5629 90.3128 71.9574 90.5382 72.44 90.653C72.9225 90.7677 73.3763 90.7441 73.8013 90.582C74.2263 90.4199 74.5939 90.1538 74.904 89.7835C75.2063 89.4113 75.4204 88.9606 75.5462 88.4314C75.6702 87.9099 75.682 87.4111 75.5814 86.9349C75.4712 86.4646 75.2628 86.0615 74.9562 85.7254C74.6497 85.3894 74.2551 85.164 73.7726 85.0493C73.29 84.9345 72.8362 84.9582 72.4112 85.1202C71.9862 85.2823 71.6186 85.5485 71.3085 85.9188C70.9966 86.2969 70.7786 86.7466 70.6546 87.2681Z" fill="#618A54"/>
<path d="M69.1389 81.706C69.3467 81.7896 69.492 81.9214 69.5749 82.1013C69.6473 82.2857 69.6447 82.4743 69.5671 82.6673L66.9782 89.1021C66.9006 89.295 66.7733 89.4292 66.5964 89.5046C66.409 89.5845 66.2189 89.5856 66.0259 89.5079L62.4078 88.0523C62.2148 87.9746 62.0806 87.8474 62.0052 87.6704C61.9194 87.4979 61.9153 87.3152 61.9929 87.1222C62.0586 86.9589 62.1836 86.8411 62.368 86.7687C62.5449 86.6933 62.7299 86.6944 62.9228 86.772L65.9287 87.9813L65.7747 88.0746L66.675 85.8369L66.6947 86.013L64.2121 85.0142C64.0191 84.9366 63.8849 84.8093 63.8095 84.6323C63.7237 84.4598 63.7196 84.2771 63.7973 84.0841C63.863 83.9209 63.988 83.803 64.1723 83.7306C64.3493 83.6552 64.5342 83.6563 64.7272 83.7339L67.2321 84.7417L67.0916 84.8016L68.1755 82.1074C68.2531 81.9145 68.3893 81.7795 68.5841 81.7027C68.7684 81.6303 68.9534 81.6314 69.1389 81.706Z" fill="#618A54"/>
<path d="M63.3203 78.7408C63.5169 78.848 63.6459 78.9959 63.7072 79.1842C63.7576 79.3757 63.733 79.5628 63.6334 79.7454L60.3119 85.8344C60.2123 86.017 60.0702 86.1354 59.8857 86.1897C59.6903 86.2471 59.5013 86.2261 59.3187 86.1265L55.895 84.2588C55.7124 84.1592 55.594 84.0172 55.5397 83.8326C55.4746 83.6513 55.4918 83.4693 55.5914 83.2867C55.6757 83.1322 55.8136 83.0298 56.0052 82.9793C56.1897 82.9251 56.3733 82.9477 56.5559 83.0473L59.4002 84.5989L59.2364 84.6736L60.3915 82.5562L60.3905 82.7333L58.0413 81.4519C57.8587 81.3523 57.7403 81.2102 57.686 81.0257C57.6209 80.8443 57.6381 80.6624 57.7377 80.4798C57.822 80.3253 57.9599 80.2228 58.1515 80.1724C58.336 80.1181 58.5196 80.1408 58.7022 80.2404L61.0724 81.5334L60.9259 81.5765L62.3166 79.0271C62.4162 78.8445 62.5672 78.7264 62.7696 78.6728C62.9611 78.6223 63.1447 78.645 63.3203 78.7408Z" fill="#618A54"/>
<path d="M56.8076 75.2214C56.9287 75.0523 57.0929 74.9534 57.3003 74.9247C57.5031 74.9026 57.6858 74.9497 57.8484 75.0661C58.0306 75.1964 58.1374 75.3565 58.1689 75.5462C58.1957 75.7425 58.1485 75.9252 58.0275 76.0943L53.9912 81.7349C53.8701 81.9041 53.7115 82.0021 53.5152 82.0289C53.3143 82.0622 53.1228 82.0137 52.9406 81.8833C52.7845 81.7716 52.6898 81.6153 52.6565 81.4143C52.612 81.2153 52.6503 81.0312 52.7713 80.862L56.8076 75.2214Z" fill="#618A54"/>
<path d="M46.2885 75.9871C46.1923 75.7754 46.2023 75.5724 46.3184 75.3782C46.4282 75.1789 46.6002 75.0557 46.8341 75.0083C47.0055 74.9619 47.1616 74.9853 47.3022 75.0786C47.4366 75.1668 47.5439 75.2949 47.6241 75.4628C47.7179 75.652 47.8337 75.8333 47.9713 76.0065C48.1028 76.1747 48.2586 76.3318 48.4389 76.4778C48.7746 76.7497 49.119 76.941 49.4719 77.0519C49.8186 77.1576 50.1658 77.1866 50.5134 77.1386C50.856 77.097 51.1853 76.9827 51.5012 76.796C51.811 76.6041 52.0967 76.3466 52.3585 76.0233C52.6657 75.6441 52.8797 75.2718 53.0005 74.9064C53.1152 74.536 53.1517 74.1795 53.11 73.8369C53.0683 73.4944 52.9547 73.1707 52.7691 72.866C52.5784 72.5675 52.3308 72.2949 52.0262 72.0482C51.8583 71.9123 51.6779 71.7919 51.4848 71.687C51.2918 71.5822 51.0848 71.5072 50.864 71.4622C50.6831 71.4186 50.538 71.3371 50.4288 71.2178C50.3133 71.0934 50.2574 70.94 50.261 70.7576C50.2625 70.5015 50.3499 70.3046 50.5231 70.167C50.6851 70.0305 50.874 69.9879 51.0898 70.0392C51.3169 70.0893 51.5402 70.1568 51.7596 70.2418C51.9677 70.328 52.1689 70.4292 52.3631 70.5453C52.5624 70.6552 52.7521 70.7831 52.9324 70.9291C53.38 71.2916 53.748 71.708 54.0363 72.1783C54.3184 72.6435 54.5047 73.1443 54.5952 73.6809C54.6795 74.2124 54.6431 74.7594 54.4861 75.322C54.324 75.8907 54.019 76.4518 53.5709 77.0051C53.1832 77.4838 52.7449 77.8597 52.256 78.133C51.7609 78.4011 51.2458 78.5605 50.7108 78.611C50.1645 78.6627 49.6207 78.6033 49.0795 78.4326C48.5332 78.2682 48.0176 77.9896 47.5327 77.5969C47.2591 77.3754 47.017 77.1278 46.8062 76.8542C46.5954 76.5805 46.4229 76.2915 46.2885 75.9871Z" fill="#618A54"/>
<path d="M43.9452 73.5867L41.1919 70.6576C41.0494 70.506 40.9811 70.3341 40.9871 70.1419C40.9817 69.9493 41.0548 69.7817 41.2064 69.6393C41.3521 69.5023 41.5209 69.4424 41.7128 69.4597C41.8934 69.4766 42.0549 69.5608 42.1974 69.7124L44.4986 72.1606L44.276 72.2216L45.981 70.619L45.9768 70.7547L44.0536 68.7087C43.9112 68.5571 43.8429 68.3852 43.8489 68.193C43.8435 68.0004 43.9166 67.8328 44.0682 67.6904C44.2139 67.5534 44.3827 67.4935 44.5746 67.5108C44.7552 67.5277 44.9167 67.6119 45.0592 67.7635L46.9577 69.7833L46.8467 69.8053L48.6129 68.1451L48.5999 68.289L46.3069 65.8496C46.1644 65.698 46.0991 65.5234 46.1109 65.3256C46.1113 65.1276 46.1786 64.9655 46.3127 64.8395C46.4584 64.7025 46.6272 64.6427 46.8191 64.6599C47.0055 64.6713 47.1699 64.7528 47.3124 64.9044L50.0657 67.8335C50.2082 67.9851 50.2792 68.1599 50.2787 68.358C50.2669 68.5557 50.1852 68.7258 50.0337 68.8682L44.9799 73.6187C44.8283 73.7612 44.6564 73.8294 44.4642 73.8235C44.2606 73.8172 44.0876 73.7382 43.9452 73.5867Z" fill="#618A54"/>
<path d="M33.9086 58.7427C33.624 58.2419 33.465 57.7434 33.4314 57.2472C33.3979 56.7509 33.4765 56.2739 33.6671 55.8159C33.8468 55.3549 34.1217 54.9319 34.4918 54.5468C34.851 54.1587 35.2809 53.8223 35.7817 53.5378C36.4564 53.1544 37.1412 52.9264 37.8359 52.8536C38.5238 52.7848 39.1635 52.8906 39.7552 53.1709C40.343 53.4442 40.8285 53.9182 41.2119 54.5929L42.6288 57.0864C42.7316 57.2673 42.7594 57.4539 42.7123 57.6463C42.6543 57.8357 42.5348 57.9817 42.354 58.0845L36.3235 61.5111C36.1427 61.6138 35.9595 61.6397 35.7741 61.5886C35.5778 61.5346 35.4282 61.4171 35.3255 61.2363L33.9086 58.7427ZM40.0714 55.3789C39.8224 54.9407 39.5075 54.6458 39.1269 54.494C38.7393 54.3462 38.3256 54.3145 37.8858 54.3987C37.4351 54.48 36.9906 54.6451 36.5524 54.8941C36.2255 55.0799 35.9377 55.294 35.6891 55.5365C35.4295 55.776 35.2319 56.0355 35.0963 56.315C34.9537 56.5984 34.8835 56.896 34.8857 57.2075C34.888 57.5191 34.9819 57.8384 35.1677 58.1653L36.2052 59.9911L36.052 59.9401L41.1643 57.0352L41.0851 57.1631L40.0714 55.3789Z" fill="#618A54"/>
<path d="M31.4365 52.4458L29.9962 48.6927C29.9217 48.4985 29.9235 48.3136 30.0018 48.1379C30.0697 47.9576 30.2008 47.8301 30.3949 47.7556C30.5817 47.684 30.7606 47.6924 30.9317 47.781C31.0924 47.865 31.2101 48.0041 31.2846 48.1983L32.4884 51.3352L32.2592 51.3075L34.4439 50.4691L34.3887 50.5931L33.3826 47.9715C33.3081 47.7773 33.31 47.5924 33.3882 47.4167C33.4561 47.2364 33.5872 47.109 33.7814 47.0345C33.9681 46.9628 34.147 46.9713 34.3181 47.0599C34.4789 47.1438 34.5965 47.2829 34.671 47.4771L35.6642 50.0651L35.553 50.0435L37.8161 49.175L37.7497 49.3033L36.5502 46.1776C36.4757 45.9834 36.4813 45.797 36.567 45.6185C36.6424 45.4353 36.7659 45.3108 36.9377 45.2448C37.1244 45.1732 37.3034 45.1816 37.4745 45.2702C37.6427 45.3513 37.7641 45.489 37.8386 45.6832L39.2788 49.4363C39.3534 49.6305 39.3529 49.8192 39.2776 50.0023C39.1918 50.1809 39.0519 50.3075 38.8577 50.382L32.3821 52.867C32.1879 52.9415 32.003 52.9396 31.8273 52.8614C31.6413 52.7785 31.511 52.64 31.4365 52.4458Z" fill="#618A54"/>
<path d="M35.1938 39.8098C35.1428 39.6081 35.1665 39.4247 35.2649 39.2595C35.3537 39.0885 35.4989 38.9775 35.7005 38.9264C35.8944 38.8773 36.0749 38.9059 36.2421 39.0121C36.3996 39.1125 36.5038 39.2636 36.5549 39.4652L37.5121 43.2459C37.5631 43.4475 37.5404 43.6349 37.4439 43.8078C37.3377 43.975 37.1838 44.0841 36.9821 44.1352L30.2583 45.8375C30.0566 45.8886 29.8722 45.861 29.705 45.7548C29.5301 45.6505 29.4151 45.4898 29.3602 45.2727C29.313 45.0865 29.3416 44.906 29.4459 44.7311C29.5404 44.5503 29.6885 44.4344 29.8901 44.3834L36.1603 42.7959L36.0273 43.1019L35.1938 39.8098Z" fill="#618A54"/>
<path d="M27.7585 34.8339C27.661 34.0721 27.767 33.4818 28.0764 33.0632C28.3858 32.6446 28.8896 32.3906 29.588 32.3013C29.9609 32.2536 30.3019 32.3027 30.6109 32.4487C30.912 32.5957 31.1647 32.8376 31.3691 33.1744C31.5656 33.5122 31.6973 33.943 31.7642 34.4667L31.2225 34.4876C31.1911 34.2416 31.1907 33.9553 31.2216 33.6288C31.2445 33.3033 31.3244 32.9825 31.4614 32.6666C31.5895 32.3437 31.7961 32.0673 32.0812 31.8373C32.3574 31.6003 32.7336 31.4514 33.2097 31.3905C33.7334 31.3235 34.1731 31.356 34.5287 31.488C34.8833 31.612 35.1696 31.8012 35.3876 32.0556C35.6057 32.31 35.7707 32.5913 35.8827 32.8996C35.9868 33.2089 36.0576 33.5103 36.0952 33.8039L36.4742 36.7678C36.5006 36.9741 36.4555 37.1573 36.3388 37.3174C36.2133 37.4706 36.0473 37.5604 35.841 37.5868L28.961 38.4667C28.7547 38.493 28.5755 38.4474 28.4233 38.3298C28.2622 38.2052 28.1685 38.0397 28.1421 37.8334L27.7585 34.8339ZM29.1904 34.8685L29.4614 36.9872L29.2512 36.8568L31.4056 36.5813L31.3167 36.7378L31.0427 34.5953C31.0133 34.3652 30.9115 34.1685 30.7374 34.0053C30.5633 33.842 30.3334 33.7787 30.0477 33.8152C29.7065 33.8589 29.4717 33.9776 29.3432 34.1715C29.2058 34.3584 29.1549 34.5907 29.1904 34.8685ZM32.4397 34.3561L32.7167 36.5225L32.6078 36.4275L35.1194 36.1063L35.0155 36.2406L34.7263 33.979C34.6796 33.614 34.5474 33.3365 34.3295 33.1466C34.1037 32.9577 33.7964 32.8882 33.4076 32.9379C33.0505 32.9836 32.8017 33.088 32.6613 33.2511C32.5208 33.4142 32.4435 33.5975 32.4292 33.801C32.4149 34.0044 32.4184 34.1895 32.4397 34.3561Z" fill="#618A54"/>
<path d="M27.8501 29.1062L27.8918 25.0864C27.894 24.8784 27.9637 24.7072 28.1011 24.5726C28.2306 24.4299 28.3994 24.3597 28.6074 24.3618C28.8073 24.3639 28.9706 24.4376 29.0971 24.5829C29.2157 24.7201 29.2739 24.8927 29.2717 25.1007L29.2369 28.4606L29.034 28.3504L31.3739 28.3747L31.2769 28.4697L31.306 25.6619C31.3082 25.4539 31.378 25.2826 31.5154 25.148C31.6448 25.0053 31.8136 24.9351 32.0216 24.9372C32.2216 24.9393 32.3848 25.013 32.5113 25.1583C32.6299 25.2956 32.6881 25.4682 32.6859 25.6762L32.6572 28.448L32.5618 28.387L34.9857 28.4122L34.8767 28.507L34.9114 25.1592C34.9136 24.9512 34.9874 24.78 35.1328 24.6455C35.2702 24.5029 35.431 24.4326 35.615 24.4345C35.815 24.4365 35.9782 24.5102 36.1047 24.6555C36.2313 24.7929 36.2935 24.9655 36.2914 25.1735L36.2497 29.1933C36.2475 29.4013 36.1777 29.5766 36.0402 29.7192C35.8948 29.8537 35.7181 29.9198 35.5101 29.9177L28.5745 29.8458C28.3665 29.8436 28.1952 29.7738 28.0606 29.6364C27.9181 29.4909 27.848 29.3142 27.8501 29.1062Z" fill="#618A54"/>
<path d="M36.8915 22.7052C36.8629 22.9274 36.77 23.1171 36.6127 23.2743C36.4474 23.4305 36.2616 23.4954 36.0553 23.4689L29.1759 22.5847C28.9696 22.5582 28.8077 22.4688 28.6901 22.3166C28.5657 22.1554 28.5167 21.9717 28.5432 21.7654L28.9837 18.3376C29.0368 17.925 29.1973 17.5544 29.4654 17.2259C29.7265 16.8884 30.0658 16.6336 30.4831 16.4614C30.8926 16.2882 31.3472 16.2337 31.8471 16.2979C32.1486 16.3367 32.434 16.4379 32.7034 16.6016C32.9737 16.7573 33.2102 16.9571 33.4128 17.2009C33.6164 17.4368 33.7648 17.6938 33.8581 17.9719L33.5859 17.9249C33.7335 17.718 33.8998 17.5538 34.0847 17.4324C34.2628 17.3021 34.4522 17.2095 34.6528 17.1546C34.8465 17.0908 35.0515 17.0647 35.2678 17.0763C35.4702 17.0701 35.6473 17.0727 35.7991 17.0841C35.9519 17.0876 36.0819 17.0801 36.1892 17.0617C36.2974 17.0353 36.3859 16.974 36.4547 16.878C36.5803 16.7167 36.7449 16.629 36.9483 16.6148C37.1449 16.5917 37.3099 16.6572 37.4433 16.8115C37.5352 16.912 37.5884 17.0318 37.6028 17.1708C37.6093 17.3087 37.5919 17.4436 37.5508 17.5754C37.5017 17.7062 37.4478 17.8122 37.3889 17.8934C37.2923 18.0181 37.1599 18.1382 36.9918 18.2537C36.8157 18.3682 36.5912 18.4523 36.3181 18.5059C36.0461 18.5516 35.7038 18.5479 35.2911 18.4949C35.1563 18.4776 35.0302 18.4855 34.913 18.5189C34.7879 18.5512 34.68 18.6059 34.5894 18.683C34.4909 18.759 34.4132 18.862 34.3562 18.9918C34.2912 19.1205 34.247 19.2762 34.2236 19.4587L33.9146 21.8629L33.6638 21.6492L36.2465 21.9811C36.4528 22.0076 36.6203 22.0856 36.7488 22.2151C36.8694 22.3435 36.917 22.5069 36.8915 22.7052ZM32.6902 21.6934L33.0466 18.9202C33.065 18.7774 33.0193 18.6304 32.9097 18.4792C32.7922 18.327 32.6279 18.1929 32.417 18.0771C32.1981 17.9602 31.9537 17.8845 31.6839 17.8498C31.3348 17.8049 31.033 17.8629 30.7784 18.0238C30.5169 18.1757 30.3724 18.3588 30.3448 18.573L29.9915 21.3224L29.629 21.1306L32.9973 21.5635L32.6902 21.6934Z" fill="#618A54"/>
<path d="M39.0787 13.4976C39.0206 13.7139 38.9071 13.8739 38.7384 13.9777C38.562 14.0794 38.3733 14.1032 38.1725 14.0493L31.451 12.2429L31.8558 10.7363L38.5773 12.5427C38.7782 12.5967 38.9285 12.7158 39.0281 12.8999C39.122 13.0743 39.1389 13.2735 39.0787 13.4976ZM31.611 14.2367C31.557 14.4376 31.4495 14.5909 31.2885 14.6968C31.1296 14.7949 30.9497 14.817 30.7488 14.763C30.5479 14.709 30.4072 14.6008 30.3266 14.4383C30.2404 14.266 30.2243 14.0794 30.2782 13.8785L31.6611 8.73312C31.7151 8.53225 31.8215 8.38275 31.9804 8.28463C32.1414 8.17879 32.3223 8.15286 32.5232 8.20684C32.7241 8.26083 32.8676 8.37396 32.9539 8.54625C33.0345 8.70873 33.0478 8.89041 32.9938 9.09128L31.611 14.2367Z" fill="#618A54"/>
<path d="M41.587 7.69662C41.375 8.22357 41.0689 8.65228 40.6686 8.98277C40.2713 9.30583 39.8378 9.51517 39.3682 9.61079C38.9016 9.69899 38.4567 9.65799 38.0337 9.48779C37.6626 9.33849 37.3503 9.13955 37.0967 8.89095C36.8388 8.63195 36.6433 8.32479 36.5103 7.96947C36.3803 7.60673 36.3158 7.18842 36.3167 6.71452L37.5678 6.20896C37.4701 6.77328 37.5005 7.19078 37.6589 7.46147C37.8129 7.72176 38.0531 7.91759 38.3797 8.04897C38.6024 8.13855 38.8437 8.17097 39.1037 8.14624C39.3563 8.11852 39.6039 8.00685 39.8464 7.81124C40.0816 7.61264 40.2842 7.30182 40.4544 6.87878C40.5948 6.52995 40.6422 6.18688 40.5969 5.84956C40.547 5.50184 40.4326 5.17553 40.2534 4.87063C40.0698 4.55533 39.8439 4.27039 39.5755 4.01582C39.3027 3.75084 39.0082 3.52891 38.6922 3.35001C38.5794 3.28739 38.5045 3.20553 38.4676 3.10444C38.4336 2.99593 38.454 2.84889 38.5286 2.66335C38.6063 2.47038 38.7454 2.34958 38.9461 2.30096C39.1467 2.25234 39.345 2.28467 39.5408 2.39797C39.9593 2.64392 40.3449 2.94998 40.6977 3.31613C41.0461 3.67188 41.3306 4.07949 41.551 4.53897C41.767 4.98805 41.8878 5.48075 41.9135 6.01709C41.9347 6.54303 41.8259 7.10287 41.587 7.69662ZM43.0925 3.69751C43.0566 3.78657 43.0141 3.86002 42.965 3.91786C42.9188 3.96828 42.8735 4.00607 42.8288 4.03123C42.1537 4.38048 41.5336 4.70012 40.9685 4.99016C40.399 5.2698 39.8614 5.5235 39.3559 5.75126C38.8503 5.97903 38.3463 6.18155 37.8438 6.35881C37.4424 6.49914 37.0797 6.62914 36.7556 6.74883C36.4315 6.86851 36.1313 6.95036 35.8549 6.99437C35.574 7.02798 35.2963 6.98954 35.0217 6.87906C34.658 6.73275 34.3592 6.5004 34.1251 6.18202C33.8865 5.85324 33.744 5.46819 33.6973 5.02689C33.6432 4.58259 33.7162 4.11181 33.9163 3.61455C34.1223 3.10244 34.3928 2.67662 34.7277 2.3371C35.0656 1.99015 35.404 1.8029 35.7427 1.77535C35.7531 1.77092 35.8089 1.77177 35.9099 1.77792C36.0034 1.78108 36.1059 1.80505 36.2172 1.84984C36.3582 1.90657 36.4598 2.00779 36.5219 2.1535C36.584 2.29921 36.5792 2.46113 36.5076 2.63925C36.4598 2.758 36.4002 2.84182 36.3288 2.8907C36.2574 2.93958 36.192 2.97362 36.1325 2.99281C35.8516 3.0695 35.627 3.19904 35.4588 3.38143C35.2861 3.55341 35.143 3.78041 35.0296 4.06244C34.8952 4.39643 34.8812 4.68831 34.9877 4.9381C35.0971 5.18047 35.2743 5.35092 35.5192 5.44946C35.7493 5.54202 36.0123 5.55295 36.308 5.48223C36.5964 5.40853 36.8825 5.30808 37.1665 5.18089C37.4535 5.04628 37.7033 4.93981 37.9159 4.8615C38.2534 4.72996 38.6199 4.57991 39.0154 4.41135C39.4064 4.23237 39.7938 4.05191 40.1774 3.86995C40.5536 3.68501 40.9061 3.51636 41.2347 3.364C41.5589 3.20124 41.8265 3.07178 42.0377 2.97564C42.1655 2.91499 42.283 2.88032 42.3899 2.87162C42.4999 2.85549 42.618 2.87281 42.7441 2.92358C42.8406 2.96239 42.9415 3.0547 43.0467 3.2005C43.1548 3.33887 43.1701 3.50454 43.0925 3.69751Z" fill="#618A54"/>
<path d="M45.1776 1.25931C44.9023 1.74694 44.5952 2.15236 44.2565 2.47559C43.9108 2.79488 43.4844 3.04562 42.9773 3.2278C42.8495 3.27509 42.7231 3.29558 42.5981 3.28927C42.473 3.28296 42.3617 3.25227 42.2642 3.1972C42.104 3.10672 41.9961 2.97232 41.9406 2.79399C41.8821 2.60476 41.902 2.42307 42.0004 2.24892C42.0751 2.11656 42.1838 2.02174 42.3264 1.96446C42.6918 1.82169 43.003 1.65291 43.26 1.4581C43.521 1.25633 43.7596 0.96388 43.976 0.580747C44.1215 0.323003 44.217 0.0645222 44.2623 -0.194696C44.3006 -0.457849 44.291 -0.692972 44.2334 -0.900068C44.1688 -1.1111 44.0494 -1.26578 43.8753 -1.36413C43.6663 -1.48214 43.4533 -1.51975 43.2362 -1.47697C43.0191 -1.43419 42.789 -1.31147 42.5459 -1.10879C42.2959 -0.910057 42.0309 -0.62789 41.7509 -0.262295C41.4828 0.0824022 41.2123 0.366085 40.9396 0.588753C40.6599 0.807488 40.3779 0.965209 40.0936 1.06192C39.8063 1.14772 39.5167 1.17251 39.2247 1.13629C38.9259 1.09614 38.6266 0.991484 38.3271 0.822334C37.8743 0.566642 37.5526 0.23338 37.362 -0.177451C37.1753 -0.595248 37.1105 -1.04988 37.1675 -1.54136C37.2245 -2.03283 37.3888 -2.5189 37.6602 -2.99955C37.9159 -3.45235 38.2216 -3.83097 38.5772 -4.13543C38.9299 -4.45079 39.2795 -4.67137 39.6262 -4.79717C39.9005 -4.90871 40.1421 -4.90547 40.3511 -4.78746C40.5044 -4.70092 40.6103 -4.56303 40.6688 -4.3738C40.7273 -4.18457 40.7113 -4.00985 40.6208 -3.84963C40.5618 -3.74514 40.4774 -3.6688 40.3675 -3.62061C40.207 -3.56423 40.0319 -3.46559 39.8421 -3.32472C39.6453 -3.18777 39.46 -3.03054 39.2863 -2.85303C39.1056 -2.67945 38.9641 -2.5021 38.8618 -2.32099C38.6927 -2.02145 38.5874 -1.74555 38.546 -1.4933C38.5086 -1.24801 38.5265 -1.03575 38.5999 -0.856522C38.6732 -0.67729 38.797 -0.538503 38.9711 -0.44016C39.1801 -0.322148 39.3877 -0.283017 39.5939 -0.322765C39.7971 -0.373413 40.0053 -0.490075 40.2187 -0.67275C40.4252 -0.859359 40.6502 -1.09518 40.8939 -1.38022C41.2065 -1.75491 41.5036 -2.06949 41.7851 -2.32395C42.0705 -2.58539 42.3559 -2.77339 42.6411 -2.88796C42.9193 -3.00647 43.2133 -3.04716 43.5231 -3.01003C43.8259 -2.97684 44.1549 -2.85994 44.5102 -2.65932C44.963 -2.40363 45.2823 -2.05795 45.4681 -1.62229C45.6539 -1.18663 45.7178 -0.714124 45.6599 -0.204784C45.6059 0.29759 45.4451 0.785623 45.1776 1.25931Z" fill="#618A54"/>
<path d="M65.8441 28.9874C65.9589 28.9251 66.0956 28.8933 66.2543 28.8921C66.4167 28.8783 66.5575 28.9028 66.6765 28.9656L72.1647 31.9438L71.5361 32.2532L72.1146 26.0129C72.1502 25.7069 72.2911 25.487 72.5371 25.3534C72.734 25.2465 72.9482 25.2205 73.1797 25.2753C73.4113 25.3301 73.5872 25.4683 73.7074 25.6897L77.5753 32.8134C77.6911 33.0267 77.7193 33.245 77.6601 33.4684C77.5963 33.6835 77.4496 33.8534 77.22 33.9781C76.9903 34.1028 76.7638 34.1355 76.5405 34.0763C76.3209 34.0043 76.1532 33.8617 76.0374 33.6485L72.891 27.8535L73.4309 27.7037L72.9986 32.8929C72.9738 33.0232 72.9217 33.1523 72.8425 33.2803C72.7715 33.4038 72.6764 33.4926 72.5571 33.5468C72.4549 33.6129 72.3286 33.6443 72.1781 33.641C72.0359 33.6333 71.9034 33.6044 71.7805 33.5542L67.4132 31.1145L67.379 30.2887L70.7592 36.5143C70.875 36.7275 70.9073 36.9436 70.8563 37.1625C70.8007 37.3732 70.6663 37.5365 70.4531 37.6522C70.248 37.7636 70.042 37.7852 69.8351 37.717C69.6237 37.6406 69.4601 37.4958 69.3443 37.2825L65.4764 30.1588C65.3651 29.9538 65.3432 29.7373 65.4107 29.5095C65.4863 29.2773 65.6308 29.1032 65.8441 28.9874ZM81.9497 22.7279C82.163 22.6122 82.3772 22.5861 82.5923 22.6499C82.8075 22.7136 82.9752 22.8562 83.0954 23.0776L85.9212 28.282C86.037 28.4953 86.0652 28.7136 86.0059 28.9369C85.9422 29.1521 85.8037 29.3175 85.5904 29.4333C85.3772 29.5491 85.163 29.5751 84.9478 29.5114C84.7282 29.4395 84.5605 29.2969 84.4447 29.0836L84.1174 28.4808L84.4482 28.4445C84.5061 28.5512 84.52 28.7136 84.4897 28.9318C84.4551 29.1417 84.3794 29.374 84.2627 29.6285C84.146 29.8831 83.9813 30.1371 83.7685 30.3907C83.5595 30.6316 83.2991 30.8367 82.9874 31.006C82.4214 31.3133 81.8309 31.4481 81.2157 31.4104C80.596 31.3645 80.0128 31.1608 79.466 30.7992C78.923 30.4249 78.4711 29.9056 78.1103 29.2412C77.7451 28.5687 77.5557 27.9068 77.5421 27.2558C77.5322 26.5921 77.6749 25.9942 77.9701 25.4622C78.2609 24.922 78.6811 24.5027 79.2307 24.2043C79.5834 24.0128 79.9363 23.8902 80.2895 23.8365C80.6427 23.7828 80.9704 23.7801 81.2727 23.8283C81.5833 23.8721 81.8427 23.949 82.0511 24.0589C82.2632 24.1561 82.4004 24.2622 82.4628 24.377L82.1067 24.7774L81.619 23.8793C81.5032 23.666 81.4772 23.4518 81.5409 23.2367C81.6002 23.0133 81.7365 22.8437 81.9497 22.7279ZM82.4371 29.5524C82.798 29.3564 83.0648 29.0947 83.2375 28.7673C83.4102 28.4399 83.4858 28.0803 83.4642 27.6884C83.4508 27.2921 83.3395 26.9012 83.1301 26.5157C82.9164 26.122 82.647 25.8116 82.3219 25.5845C82.005 25.353 81.6622 25.2205 81.2936 25.187C80.9249 25.1535 80.5602 25.2348 80.1993 25.4307C79.8466 25.6222 79.5839 25.8817 79.4112 26.2091C79.2385 26.5365 79.1588 26.8984 79.1722 27.2947C79.1938 27.6865 79.3115 28.0793 79.5252 28.473C79.7345 28.8585 79.9976 29.167 80.3145 29.3986C80.6396 29.6256 80.9865 29.7559 81.3551 29.7894C81.7238 29.8229 82.0844 29.7439 82.4371 29.5524ZM89.1576 27.4965C88.9443 27.6123 88.7301 27.6383 88.515 27.5746C88.2954 27.5027 88.1277 27.3601 88.0119 27.1468L85.2529 22.0655C85.1372 21.8523 85.1111 21.638 85.1749 21.4229C85.2341 21.1995 85.3704 21.03 85.5837 20.9142C85.7969 20.7984 86.0134 20.7765 86.233 20.8484C86.4481 20.9121 86.6136 21.0506 86.7294 21.2639L87.3573 22.4204L86.8236 21.6428C86.8069 21.397 86.8283 21.1624 86.8875 20.939C86.9506 20.703 87.0456 20.4868 87.1726 20.2904C87.2951 20.0858 87.4456 19.9032 87.6239 19.7427C87.8023 19.5821 87.994 19.4462 88.199 19.3349C88.4451 19.2013 88.688 19.1596 88.9277 19.21C89.1757 19.2559 89.3509 19.3732 89.4533 19.5619C89.6003 19.8325 89.6375 20.0672 89.5648 20.266C89.4877 20.4565 89.3672 20.5963 89.2031 20.6854C89.0473 20.77 88.8881 20.8193 88.7257 20.8331C88.5715 20.8425 88.4124 20.8917 88.2484 20.9808C88.1007 21.0609 87.969 21.1802 87.8532 21.3387C87.7412 21.4845 87.6597 21.6668 87.6086 21.8857C87.5657 22.1001 87.5634 22.3404 87.6016 22.6064C87.6436 22.8597 87.7448 23.134 87.9051 23.4293L89.4883 26.3452C89.6041 26.5585 89.6323 26.7768 89.5731 27.0001C89.5093 27.2153 89.3708 27.3807 89.1576 27.4965ZM93.4138 25.1697C93.1759 25.2988 92.9579 25.3375 92.7599 25.2857C92.5656 25.2213 92.4039 25.0702 92.2747 24.8323L92.1612 24.6231C92.032 24.3853 91.9956 24.1714 92.0518 23.9816C92.1118 23.7791 92.2607 23.6133 92.4986 23.4841L92.6585 23.3973C92.8964 23.2681 93.1125 23.2358 93.3067 23.3002C93.5048 23.352 93.6684 23.4968 93.7975 23.7347L93.9111 23.9438C94.0402 24.1817 94.0748 24.4019 94.0148 24.6044C93.9586 24.7942 93.8116 24.9537 93.5737 25.0828L93.4138 25.1697ZM99.9012 19.417C99.975 19.377 100.06 19.347 100.155 19.327C100.259 19.3026 100.384 19.2984 100.53 19.3143C100.728 19.3453 100.943 19.3505 101.176 19.3301C101.418 19.3053 101.665 19.2238 101.92 19.0857C102.174 18.9477 102.378 18.757 102.533 18.5137C102.691 18.2578 102.782 17.9749 102.805 17.6651C102.824 17.3471 102.744 17.024 102.566 16.6959C102.396 16.3842 102.19 16.1615 101.948 16.0277C101.714 15.8894 101.461 15.8249 101.19 15.834C100.927 15.8387 100.676 15.9057 100.438 16.0348C100.258 16.1328 100.115 16.2316 100.01 16.3312C99.9129 16.4264 99.8181 16.5256 99.7255 16.629C99.6367 16.7197 99.5185 16.8051 99.3708 16.8853C99.1822 16.9877 98.9989 17.0023 98.821 16.9289C98.6513 16.8511 98.5175 16.722 98.4195 16.5415C98.3572 16.4267 98.322 16.3131 98.314 16.2006C98.3143 16.0836 98.3306 15.9473 98.3629 15.7917L99.2791 12.3153L99.7649 12.4179L96.7383 14.0612C96.5414 14.1681 96.3417 14.1915 96.1393 14.1316C95.9368 14.0716 95.7821 13.9432 95.6752 13.7463C95.5728 13.5576 95.5538 13.3662 95.6182 13.1719C95.6782 12.9694 95.8066 12.8147 96.0035 12.7078L99.7683 10.6637C100.023 10.5256 100.249 10.4929 100.448 10.5655C100.655 10.6337 100.816 10.7744 100.932 10.9877C100.99 11.0943 101.019 11.2166 101.019 11.3544C101.016 11.484 100.995 11.612 100.957 11.7386L100.049 15.2586L99.4895 15.0207C99.5575 14.9307 99.6605 14.827 99.7985 14.7096C99.9447 14.5877 100.071 14.4978 100.178 14.4399C100.662 14.1771 101.149 14.0772 101.64 14.1399C102.134 14.19 102.585 14.3648 102.992 14.6643C103.403 14.9511 103.733 15.3242 103.982 15.7836C104.311 16.3905 104.461 16.989 104.431 17.5788C104.401 18.1687 104.204 18.7162 103.841 19.2213C103.478 19.7264 102.969 20.157 102.312 20.5133C102.009 20.6781 101.69 20.8037 101.354 20.8902C101.019 20.9767 100.711 21.0164 100.431 21.0091C100.197 21.0087 100.016 20.9689 99.8883 20.8897C99.764 20.7978 99.673 20.6985 99.6151 20.5919C99.5127 20.4033 99.4825 20.1913 99.5247 19.956C99.5706 19.708 99.6961 19.5284 99.9012 19.417ZM109.494 16.4549C109.264 16.5796 109.038 16.6123 108.814 16.553C108.586 16.4856 108.415 16.3452 108.299 16.1319L104.932 9.93099L105.251 10.1081L104.714 11.2602C104.648 11.4128 104.529 11.5358 104.357 11.6293C104.16 11.7362 103.947 11.7559 103.72 11.6884C103.492 11.621 103.322 11.4847 103.211 11.2796C103.068 11.0172 103.08 10.7349 103.245 10.4328L104.375 8.28969C104.426 8.18773 104.494 8.09774 104.579 8.01969C104.673 7.93718 104.764 7.87144 104.854 7.82245C105.092 7.6933 105.321 7.66469 105.541 7.73662C105.756 7.80035 105.921 7.93885 106.037 8.15211L109.898 15.2635C110.014 15.4768 110.034 15.6995 109.958 15.9318C109.886 16.1514 109.732 16.3257 109.494 16.4549ZM82.318 49.9398C82.5149 49.8329 82.7146 49.8095 82.9171 49.8695C83.1196 49.9294 83.2742 50.0579 83.3811 50.2547C83.4836 50.4434 83.5048 50.6389 83.4448 50.8414C83.3804 51.0357 83.2497 51.1863 83.0529 51.2932L78.8697 53.5645C78.6564 53.6803 78.4527 53.7059 78.2584 53.6415C78.0641 53.5771 77.9113 53.4423 77.7999 53.2373C77.6886 53.0322 77.6644 52.8117 77.7275 52.5757L78.8531 48.2527C78.9785 47.7598 79.0337 47.2944 79.0189 46.8564C79.0123 46.4139 78.94 46.0655 78.802 45.8112C78.5793 45.4011 78.2822 45.1376 77.9107 45.0207C77.5348 44.8956 77.15 44.9399 76.7563 45.1537C76.6004 45.2383 76.4605 45.362 76.3366 45.5249C76.2126 45.6878 76.1083 45.8772 76.0237 46.093C75.9474 46.3044 75.8903 46.5319 75.8526 46.7754C75.8254 46.9601 75.7715 47.0955 75.6909 47.1818C75.6103 47.268 75.529 47.3334 75.447 47.378C75.2665 47.4759 75.0627 47.5016 74.8356 47.455C74.6123 47.3957 74.4516 47.2759 74.3537 47.0954C74.2779 46.956 74.2496 46.7961 74.2685 46.6159C74.2957 46.4312 74.3412 46.2313 74.4049 46.0162C74.4986 45.6998 74.6303 45.3946 74.8 45.1007C74.9696 44.8068 75.1675 44.5454 75.3936 44.3164C75.6153 44.0792 75.8533 43.8916 76.1076 43.7535C76.6571 43.4551 77.193 43.3076 77.7152 43.3108C78.2411 43.3014 78.7239 43.4375 79.1635 43.7192C79.5988 43.9927 79.9633 44.4001 80.2573 44.9414C80.5022 45.3925 80.6408 45.9705 80.6729 46.6752C80.7088 47.3672 80.6326 48.0777 80.4442 48.8066L79.7452 51.4801L79.5498 51.4429L82.318 49.9398ZM88.7588 48.3544C88.0534 48.7374 87.3544 48.878 86.6619 48.7761C85.9731 48.6616 85.3212 48.3411 84.7062 47.8148C84.0867 47.2803 83.5409 46.5783 83.0689 45.7088C82.5924 44.8312 82.3009 43.9911 82.1944 43.1887C82.0879 42.3863 82.1765 41.6691 82.46 41.0372C82.7473 40.3927 83.2436 39.879 83.949 39.496C84.6544 39.113 85.3515 38.9787 86.0403 39.0933C86.7328 39.1952 87.3866 39.5093 88.0016 40.0356C88.6166 40.562 89.1624 41.2639 89.6389 42.1416C90.111 43.011 90.4025 43.8511 90.5134 44.6617C90.6199 45.4642 90.5294 46.1876 90.2422 46.8322C89.9586 47.464 89.4642 47.9714 88.7588 48.3544ZM87.9571 46.878C88.3016 46.691 88.539 46.424 88.6693 46.0772C88.8033 45.7176 88.8221 45.2827 88.7255 44.7722C88.6244 44.2536 88.3957 43.6662 88.0395 43.01C87.6787 42.3456 87.3106 41.8339 86.9352 41.4749C86.5597 41.1159 86.1869 40.8988 85.8169 40.8236C85.4505 40.7357 85.0951 40.7853 84.7506 40.9724C84.4143 41.155 84.1792 41.426 84.0452 41.7856C83.9067 42.1369 83.8857 42.5677 83.9823 43.0782C84.0789 43.5886 84.3076 44.176 84.6683 44.8404C85.0246 45.4966 85.3927 46.0083 85.7726 46.3755C86.1481 46.7345 86.5231 46.9557 86.8976 47.0391C87.2677 47.1143 87.6209 47.0606 87.9571 46.878ZM95.8927 44.3218C95.663 44.4465 95.4365 44.4792 95.2131 44.4199C94.9853 44.3524 94.8135 44.212 94.6977 43.9988L91.3309 37.7979L91.6501 37.975L91.1127 39.127C91.0469 39.2796 90.9278 39.4027 90.7556 39.4962C90.5587 39.6031 90.3464 39.6228 90.1186 39.5553C89.8908 39.4878 89.7212 39.3516 89.6099 39.1465C89.4674 38.884 89.4787 38.6017 89.6439 38.2996L90.7743 36.1565C90.8251 36.0546 90.8931 35.9646 90.9782 35.8865C91.0714 35.804 91.1632 35.7383 91.2534 35.6893C91.4913 35.5602 91.72 35.5315 91.9396 35.6035C92.1548 35.6672 92.3202 35.8057 92.436 36.019L96.2972 43.1304C96.413 43.3436 96.433 43.5664 96.3574 43.7986C96.2854 44.0182 96.1305 44.1926 95.8927 44.3218ZM100.616 36.1017L100.438 35.8321C100.825 35.8023 101.194 35.8358 101.544 35.9326C101.894 36.0293 102.202 36.1756 102.467 36.3712C102.733 36.5669 102.941 36.8042 103.093 37.0831C103.346 37.5506 103.449 38.0525 103.4 38.5887C103.355 39.1123 103.18 39.611 102.874 40.0849C102.564 40.5506 102.143 40.9282 101.61 41.2176C101.077 41.5071 100.53 41.655 99.9709 41.6614C99.407 41.6596 98.8892 41.5372 98.4174 41.2942C97.9493 41.0385 97.5884 40.6769 97.3345 40.2094C97.1297 39.8321 97.0317 39.4658 97.0406 39.1105C97.0532 38.7426 97.1272 38.3997 97.2627 38.0819C97.4063 37.7596 97.5637 37.4724 97.7347 37.2202L97.8233 37.6182C97.5738 37.6475 97.3104 37.6417 97.0334 37.601C96.7602 37.5476 96.4974 37.4353 96.2452 37.2643C95.9931 37.0932 95.7801 36.8477 95.6064 36.5278C95.357 36.0685 95.2511 35.5897 95.2885 35.0915C95.3215 34.585 95.4789 34.1119 95.7606 33.6723C96.0504 33.2281 96.4414 32.8724 96.9336 32.6052C97.4339 32.3336 97.9411 32.2016 98.455 32.2093C98.9772 32.2125 99.4596 32.3382 99.9023 32.5864C100.341 32.8263 100.684 33.176 100.934 33.6353C101.125 33.988 101.216 34.3211 101.206 34.6347C101.195 34.9483 101.13 35.2282 101.008 35.4746C100.887 35.7209 100.757 35.9299 100.616 36.1017ZM97.0962 35.7508C97.2165 35.9723 97.3726 36.1424 97.5645 36.2612C97.7647 36.3756 97.9839 36.4371 98.2223 36.4457C98.4561 36.4462 98.6879 36.3841 98.9176 36.2594C99.1473 36.1347 99.3215 35.9763 99.4403 35.7844C99.5629 35.5798 99.6266 35.3646 99.6315 35.1389C99.6446 34.9088 99.591 34.683 99.4708 34.4615C99.2926 34.1334 99.0308 33.9251 98.6854 33.8366C98.3437 33.7353 98.0047 33.776 97.6684 33.9586C97.3239 34.1457 97.0969 34.4123 96.9875 34.7584C96.8818 35.0919 96.9181 35.4227 97.0962 35.7508ZM100.875 39.8643C101.269 39.6505 101.536 39.3512 101.678 38.9664C101.815 38.5733 101.79 38.2046 101.603 37.8601C101.474 37.6222 101.296 37.4424 101.071 37.3205C100.845 37.1987 100.597 37.1423 100.326 37.1515C100.05 37.1524 99.7813 37.2242 99.5188 37.3667C99.2563 37.5092 99.0496 37.6957 98.8987 37.9264C98.7434 38.1488 98.6554 38.3877 98.6348 38.6432C98.6142 38.8986 98.6685 39.1453 98.7976 39.3832C98.9846 39.7277 99.2803 39.9495 99.6846 40.0486C100.084 40.1395 100.481 40.078 100.875 39.8643Z" fill="#618A54"/>
<path fill-rule="evenodd" clip-rule="evenodd" d="M133.868 28.2542C134.924 44.4743 126.691 60.5986 111.468 68.8637C96.2459 77.1288 78.2387 75.2518 65.2104 65.5324L63.2832 66.5787C76.9692 77.2325 96.2059 79.4263 112.423 70.6213C128.639 61.8164 137.276 44.4884 135.795 27.2078L133.868 28.2542ZM48.0411 28.2009C49.0057 13.9985 56.9967 0.580549 70.4326 -6.71459C83.8686 -14.0097 99.4741 -13.4036 111.911 -6.47739L113.974 -7.59773C100.79 -15.4301 83.9341 -16.3211 69.4783 -8.47222C55.0225 -0.62338 46.5896 13.998 45.9777 29.3212L48.0411 28.2009Z" fill="#618A54"/>
</g>
</svg>
