<svg width="221" height="136" fill="none" xmlns="http://www.w3.org/2000/svg"><path d="M121 89c-13.333 4-26.667 4-40 0-13.333-4-26.667-4-40 0-13.333 4-26.667 4-40 0" stroke="#121315"/><path d="M121 82c-13.333 4-26.667 4-40 0-13.333-4-26.667-4-40 0-13.333 4-26.667 4-40 0" stroke="#121315"/><path d="M121 75c-13.333 4-26.667 4-40 0-13.333-4-26.667-4-40 0-13.333 4-26.667 4-40 0" stroke="#121315"/><path d="M121 68c-13.333 4-26.667 4-40 0-13.333-4-26.667-4-40 0-13.333 4-26.667 4-40 0" stroke="#121315"/><path d="M121 62c-13.333 4-26.667 4-40 0-13.333-4-26.667-4-40 0-13.333 4-26.667 4-40 0" stroke="#121315"/><g opacity=".75"><path d="M219.161 67.526c0 36.451-29.549 66-66 66s-66-29.549-66-66c0-36.45 29.549-66 66-66s66 29.55 66 66z" stroke="#618A54" stroke-width="2"/><path d="M216.561 72.026c0 .576-.108 1.088-.324 1.536-.216.448-.52.824-.912 1.128a3.836 3.836 0 01-1.344.696c-.504.16-1.044.24-1.62.24-.776 0-1.484-.14-2.124-.42a3.57 3.57 0 01-1.512-1.224c-.376-.528-.564-1.18-.564-1.956v-2.868a.74.74 0 01.204-.528.74.74 0 01.528-.204h6.936a.718.718 0 01.732.732v2.868zm-7.02-.12c0 .504.128.916.384 1.236.264.32.608.552 1.032.696.432.152.9.228 1.404.228a4.2 4.2 0 001.068-.132c.344-.08.644-.208.9-.384.264-.176.472-.4.624-.672.152-.272.228-.596.228-.972v-2.1l.108.12h-5.88l.132-.072v2.052zM215.639 78.486l-.586 3.977a.696.696 0 01-.277.48.641.641 0 01-.53.141.627.627 0 01-.455-.285.753.753 0 01-.103-.537l.49-3.324.186.136-2.315-.34.109-.082-.409 2.778a.7.7 0 01-.278.48.641.641 0 01-.53.141.628.628 0 01-.455-.285.752.752 0 01-.103-.537l.405-2.742.086.073-2.398-.354.121-.079-.489 3.312a.676.676 0 01-.289.48.638.638 0 01-.506.143.627.627 0 01-.455-.285.724.724 0 01-.115-.539l.586-3.977a.745.745 0 01.279-.492.739.739 0 01.552-.125l6.862 1.011a.717.717 0 01.617.831zM206.144 87.72a.7.7 0 01-.331.444.643.643 0 01-.543.076.664.664 0 01-.43-.34.725.725 0 01-.051-.548l1.02-3.764a.742.742 0 01.335-.457.741.741 0 01.563-.058l6.695 1.814a.676.676 0 01.441.343.747.747 0 01.065.59.693.693 0 01-.341.43.661.661 0 01-.557.085l-6.243-1.692.266-.202-.889 3.278zM210.161 95.721c-.288.712-.67 1.174-1.145 1.388-.475.213-1.039.187-1.691-.077a1.807 1.807 0 01-.819-.63c-.191-.276-.292-.61-.305-1.005-.006-.39.09-.83.289-1.32l.482.248a3.92 3.92 0 01-.42.749c-.18.272-.406.513-.681.72-.27.22-.585.36-.947.42-.356.07-.757.016-1.202-.164-.489-.198-.857-.442-1.102-.732a1.95 1.95 0 01-.47-.915 2.685 2.685 0 01-.018-.979c.061-.32.147-.618.258-.892l1.123-2.77a.74.74 0 01.387-.412.74.74 0 01.566.01l6.428 2.606a.716.716 0 01.403.953l-1.136 2.802zm-1.231-.732l.803-1.98.119.217-2.013-.816.154-.093-.811 2.002a.953.953 0 00-.023.664c.071.228.241.396.507.504.319.13.582.14.789.035.212-.096.37-.273.475-.533zm-3.083-1.146l.821-2.024.048.136-2.347-.951.157-.067-.857 2.113c-.138.341-.159.648-.062.92.104.276.338.487.701.634.334.136.602.166.804.093a.926.926 0 00.472-.365c.112-.17.2-.334.263-.49zM207.316 100.553l-2.007 3.484a.699.699 0 01-.434.345.642.642 0 01-.545-.064.629.629 0 01-.318-.433.755.755 0 01.101-.537l1.677-2.912.123.196-2.028-1.168.132-.035-1.402 2.433a.699.699 0 01-.434.345.642.642 0 01-.545-.064.629.629 0 01-.318-.433.75.75 0 01.101-.537l1.384-2.402.053.1-2.101-1.21.142-.029-1.671 2.901a.681.681 0 01-.445.34.64.64 0 01-.523-.053.627.627 0 01-.319-.433.722.722 0 01.091-.543l2.006-3.483a.742.742 0 01.441-.356.74.74 0 01.559.087l6.011 3.462a.72.72 0 01.269 1zM196.2 101.824a.96.96 0 01.522-.359.66.66 0 01.581.103l5.564 4.142a.718.718 0 01.15 1.024l-2.063 2.772c-.249.334-.57.578-.965.733a2.43 2.43 0 01-1.262.168c-.441-.049-.865-.225-1.269-.526a2.159 2.159 0 01-.598-.684 2.61 2.61 0 01-.324-.87 2.283 2.283 0 01-.011-.89l.214.174c-.23.108-.455.17-.676.185a1.747 1.747 0 01-.631-.036 1.652 1.652 0 01-.574-.233 5.228 5.228 0 01-.46-.267 2.07 2.07 0 00-.351-.172.45.45 0 00-.321.03.661.661 0 01-.56-.012.539.539 0 01-.335-.414.613.613 0 01.037-.391c.062-.124.143-.233.244-.328.107-.09.206-.156.297-.198.145-.061.319-.101.522-.119.21-.014.447.023.711.11.26.093.556.264.89.513a.93.93 0 00.704.18.78.78 0 00.355-.155 1.48 1.48 0 00.344-.342l1.447-1.945.114.309-2.089-1.554a.846.846 0 01-.323-.45.573.573 0 01.116-.498zm3.167 2.941l-1.67 2.243c-.086.115-.118.266-.096.451.027.191.105.388.232.592.134.209.31.395.528.557.282.211.574.308.874.292.303-.004.518-.093.647-.266l1.656-2.224.222.345-2.725-2.027.332.037zM189.806 108.716a.774.774 0 01.532-.252c.204-.002.38.07.529.215l4.975 4.868-1.091 1.115-4.975-4.868a.695.695 0 01-.218-.532.787.787 0 01.248-.546zm6.873 3.014a.761.761 0 01.506-.243.656.656 0 01.503.207.618.618 0 01.209.49.76.76 0 01-.232.511l-3.726 3.809a.725.725 0 01-.498.234.644.644 0 01-.511-.198.641.641 0 01-.21-.507.755.755 0 01.233-.495l3.726-3.808zM184.857 112.46c.443-.356.92-.58 1.431-.672a2.981 2.981 0 011.441.09c.45.152.818.405 1.103.761.25.312.425.638.525.979.098.353.117.716.059 1.091-.064.38-.213.776-.446 1.189l-1.338-.172c.362-.444.54-.823.534-1.137-.007-.302-.12-.591-.34-.865a1.536 1.536 0 00-.584-.44c-.234-.099-.504-.123-.812-.071-.302.057-.631.229-.986.515a2.002 2.002 0 00-.629.827 2.656 2.656 0 00-.18 1.022c.006.364.063.724.172 1.077.108.365.256.702.444 1.013.068.11.093.218.076.324-.024.112-.114.23-.27.355a.572.572 0 01-.541.111.782.782 0 01-.471-.376 5.41 5.41 0 01-.559-1.367 4.55 4.55 0 01-.145-1.484c.032-.497.168-.986.408-1.466.24-.469.609-.904 1.108-1.304zm-3.272 2.749a.773.773 0 01.219-.13.577.577 0 01.175-.032c.759.026 1.456.051 2.091.075.634.035 1.227.078 1.779.127.552.049 1.091.119 1.616.211a75.6 75.6 0 001.139.193c.342.054.643.13.906.227.261.108.485.278.67.509.245.306.392.655.44 1.047a2.34 2.34 0 01-.193 1.216c-.171.414-.465.789-.883 1.124-.43.346-.875.585-1.333.716-.465.137-.851.135-1.16-.007a.854.854 0 01-.145-.084.914.914 0 01-.232-.214.542.542 0 01-.117-.414.617.617 0 01.25-.416c.1-.08.193-.124.279-.132a.786.786 0 01.222.008c.282.07.541.067.777-.009.235-.065.471-.193.708-.384.281-.225.436-.473.466-.742a.96.96 0 00-.213-.707c-.156-.193-.379-.331-.672-.415a5.391 5.391 0 00-.896-.158 9.617 9.617 0 01-.81-.088c-.358-.051-.751-.1-1.179-.146a96.472 96.472 0 00-1.278-.098 47.039 47.039 0 01-1.17-.077 26.367 26.367 0 01-.89-.054 1.055 1.055 0 01-.358-.082.679.679 0 01-.283-.219c-.065-.081-.108-.211-.128-.39-.027-.173.041-.325.203-.455z" fill="#618A54"/><path d="M178.338 116.45c.479-.29.945-.493 1.399-.609a3.693 3.693 0 011.483-.029.952.952 0 01.361.132.745.745 0 01.246.244.68.68 0 01.085.51.668.668 0 01-.32.446.633.633 0 01-.423.088 3.888 3.888 0 00-1.062-.016c-.327.048-.678.186-1.054.414a2.427 2.427 0 00-.63.536 1.7 1.7 0 00-.32.629.764.764 0 00.085.58.906.906 0 00.501.411c.211.069.471.075.782.018a4.824 4.824 0 001.108-.349 5.252 5.252 0 011.125-.344c.351-.054.674-.053.969.002.292.066.557.186.794.361.241.182.45.419.628.714.27.444.387.893.352 1.344a2.562 2.562 0 01-.499 1.284 3.86 3.86 0 01-1.144 1.03c-.445.269-.897.45-1.356.541-.462.102-.875.123-1.239.063-.294-.038-.503-.159-.627-.364a.683.683 0 01-.074-.516.64.64 0 01.299-.434.524.524 0 01.333-.075c.167.029.368.029.603-.001.238-.023.477-.069.715-.139.243-.062.453-.148.631-.255.294-.179.521-.367.681-.567a1.19 1.19 0 00.265-.582.823.823 0 00-.12-.544.89.89 0 00-.485-.408 1.564 1.564 0 00-.716-.001 7.622 7.622 0 00-.935.286c-.457.173-.87.302-1.24.386a2.868 2.868 0 01-1.022.072 1.699 1.699 0 01-.829-.326c-.248-.177-.477-.44-.689-.789-.269-.445-.378-.903-.326-1.374.051-.47.227-.914.527-1.329a3.775 3.775 0 011.138-1.04zM177.595 126.072a.69.69 0 01-.548.009.658.658 0 01-.42-.377l-2.844-6.326a.703.703 0 01-.009-.575.77.77 0 01.398-.402.73.73 0 01.576-.036.741.741 0 01.403.398l2.844 6.326c.085.19.09.376.015.559a.75.75 0 01-.415.424zm-4.849 2.18a.71.71 0 01-.581.024.695.695 0 01-.397-.387l-2.845-6.326a.72.72 0 01-.019-.57c.068-.18.208-.317.42-.413a.755.755 0 01.554-.025.72.72 0 01.414.393l2.844 6.326c.085.19.086.378.003.564a.74.74 0 01-.393.414zm3.45-5.38l-4.882 2.195-.565-1.259 4.881-2.195.566 1.259zM164.217 130.319a.68.68 0 01-.532-.076.678.678 0 01-.362-.447.799.799 0 01-.026-.23.642.642 0 01.034-.234l1.575-4.488.015.855-.926-3.317a.72.72 0 01.066-.567.655.655 0 01.407-.325.721.721 0 01.552.058.74.74 0 01.339.453l.9 3.225-.196-.344 3.423 2.62c.105.079.186.16.242.244a.818.818 0 01.117.241.647.647 0 01-.1.577.818.818 0 01-.442.335c-.216.06-.435.005-.657-.166l-3.074-2.443.336-.044-1.21 3.564c-.097.277-.258.446-.481.509zM159.798 122.164a.96.96 0 01.624.109c.196.116.31.276.342.482l1.064 6.854a.719.719 0 01-.611.835l-3.415.53a2.162 2.162 0 01-1.202-.153 2.436 2.436 0 01-1.018-.765c-.28-.345-.459-.767-.536-1.265-.047-.3-.029-.602.053-.907.075-.303.201-.585.379-.848a2.28 2.28 0 01.617-.642l.03.275a1.907 1.907 0 01-.612-.343 1.723 1.723 0 01-.424-.468 1.646 1.646 0 01-.247-.569 5.11 5.11 0 01-.14-.512 2.023 2.023 0 00-.13-.369.45.45 0 00-.25-.204.656.656 0 01-.39-.401.537.537 0 01.051-.53.609.609 0 01.301-.253c.13-.045.265-.066.403-.063.139.011.256.033.35.067.147.059.299.152.457.282.159.137.302.329.429.577.12.248.212.578.275.989a.94.94 0 00.376.622.784.784 0 00.362.138c.141.027.303.026.485-.003l2.395-.371-.135.3-.4-2.573a.838.838 0 01.085-.548.576.576 0 01.432-.273zm.196 4.317l-2.763.429c-.142.022-.271.107-.385.254-.114.155-.197.35-.25.585a2.116 2.116 0 00-.014.767c.054.348.194.622.419.822.219.209.435.297.648.264l2.739-.426-.083.402-.521-3.356.21.259zM151.802 123.295a.702.702 0 01.218-.533.767.767 0 01.524-.214.73.73 0 01.544.194c.138.141.21.316.214.524l.134 6.934a.68.68 0 01-.206.52.748.748 0 01-.548.227.689.689 0 01-.508-.206.662.662 0 01-.238-.512l-.134-6.934zM148.236 123.1a.702.702 0 01.251-.518.765.765 0 01.536-.181c.224.009.4.085.531.226.129.15.19.329.181.537l-.294 6.929a.68.68 0 01-.238.507.745.745 0 01-.561.192.69.69 0 01-.494-.237.661.661 0 01-.206-.525l.294-6.93zM138.473 129.378a2.058 2.058 0 01-1.091-.543 2.68 2.68 0 01-.72-1.102 2.8 2.8 0 01-.111-1.404c.08-.49.263-.918.55-1.284a2.77 2.77 0 011.034-.829 2.067 2.067 0 011.207-.168l2.179.356-.153.194.4-2.452a.769.769 0 01.275-.49.656.656 0 01.53-.12.65.65 0 01.453.28.765.765 0 01.104.552l-1.116 6.846a.72.72 0 01-.841.605l-2.7-.441zm.649-3.979c-.15-.025-.306.015-.469.118a1.531 1.531 0 00-.681 1.044c-.037.229-.025.45.038.662.062.213.155.39.278.532.121.15.257.237.407.261l2.203.359-.177.19.493-3.02.099.211-2.191-.357zM128.276 121.989a4.654 4.654 0 01.752-1.532 4.28 4.28 0 011.2-1.091 3.867 3.867 0 011.501-.53 3.918 3.918 0 011.662.127 3.936 3.936 0 012.466 2.02c.235.484.377 1.003.426 1.558a4.629 4.629 0 01-.176 1.698 4.634 4.634 0 01-.752 1.532 4.268 4.268 0 01-1.185 1.082 3.95 3.95 0 01-1.504.542 3.919 3.919 0 01-1.662-.128 3.912 3.912 0 01-1.475-.773 3.788 3.788 0 01-.987-1.258 4.132 4.132 0 01-.441-1.55 4.62 4.62 0 01.175-1.697zm1.499.43a3.205 3.205 0 00-.089 1.485c.086.483.274.899.565 1.249.291.35.674.593 1.151.73s.931.135 1.363-.008a2.665 2.665 0 001.139-.746c.319-.358.554-.798.704-1.321a3.373 3.373 0 00.104-1.493 2.649 2.649 0 00-.568-1.237 2.268 2.268 0 00-1.151-.731 2.269 2.269 0 00-1.363.008 2.658 2.658 0 00-1.139.747 3.288 3.288 0 00-.716 1.317zM126.85 115.853c.509.233.938.505 1.289.816.347.317.633.721.857 1.211a.941.941 0 01.093.373.743.743 0 01-.064.34.675.675 0 01-.374.357.67.67 0 01-.549-.014.638.638 0 01-.31-.301 3.903 3.903 0 00-.583-.888c-.223-.243-.535-.456-.935-.64a2.445 2.445 0 00-.796-.22 1.707 1.707 0 00-.701.088.762.762 0 00-.432.396.907.907 0 00-.059.646c.061.213.202.432.425.657.219.233.522.473.91.721.366.239.671.484.916.737.242.261.423.528.543.804.109.279.158.565.147.859a2.494 2.494 0 01-.238.921c-.216.473-.521.821-.915 1.046-.4.221-.848.324-1.342.308a3.853 3.853 0 01-1.495-.369 4.158 4.158 0 01-1.209-.818c-.344-.325-.593-.655-.747-.99-.134-.264-.152-.505-.052-.723a.684.684 0 01.386-.351.638.638 0 01.526.004c.109.05.193.127.25.233.07.155.182.321.339.499.153.184.325.356.517.514a2.568 2.568 0 001.417.623c.247.017.457-.019.63-.107a.825.825 0 00.383-.405.893.893 0 00.065-.63 1.566 1.566 0 00-.401-.593 7.79 7.79 0 00-.762-.614c-.4-.28-.738-.549-1.015-.809a2.86 2.86 0 01-.634-.805 1.692 1.692 0 01-.196-.869c.008-.304.097-.642.267-1.013.217-.473.534-.82.953-1.042a2.764 2.764 0 011.396-.31 3.787 3.787 0 011.5.358zM121.123 112.4a.769.769 0 01.363.463.711.711 0 01-.093.563l-3.649 5.926-1.328-.818 3.649-5.926a.7.7 0 01.471-.33c.194-.04.39 0 .587.122zm-1.423 7.368a.762.762 0 01.349.44.658.658 0 01-.09.536.617.617 0 01-.432.312.763.763 0 01-.55-.113l-4.537-2.794a.726.726 0 01-.339-.434.644.644 0 01.081-.542.64.64 0 01.448-.316.75.75 0 01.534.117l4.536 2.794zM107.207 105.835a4.63 4.63 0 011.344-1.05 4.287 4.287 0 011.556-.459 3.86 3.86 0 011.582.177c.519.164.998.444 1.439.839a3.928 3.928 0 011.339 2.893 4.388 4.388 0 01-.296 1.588 4.615 4.615 0 01-.898 1.451c-.4.447-.848.797-1.344 1.051a4.265 4.265 0 01-1.539.458 3.965 3.965 0 01-1.59-.168 3.93 3.93 0 01-1.439-.839 3.928 3.928 0 01-.991-1.34 3.79 3.79 0 01-.34-1.562 4.141 4.141 0 01.278-1.587 4.652 4.652 0 01.899-1.452zm1.161 1.042c-.358.399-.6.831-.728 1.297a2.64 2.64 0 00-.036 1.37c.109.442.349.828.718 1.159.369.331.779.527 1.23.588.451.06.901.001 1.35-.176a3.33 3.33 0 001.21-.882c.358-.399.606-.832.745-1.298.127-.466.137-.92.028-1.361a2.275 2.275 0 00-.718-1.159 2.265 2.265 0 00-1.23-.588 2.659 2.659 0 00-1.35.176 3.273 3.273 0 00-1.219.874zM109.69 101.265a.773.773 0 01.195.556.747.747 0 01-.277.494l-5.346 4.419a.717.717 0 01-1.03-.097l-2.486-3.006a.701.701 0 01-.171-.528.64.64 0 01.251-.487.62.62 0 01.498-.132.7.7 0 01.486.267l2.064 2.498-.179.008 1.859-1.537-.067.164-1.705-2.062a.698.698 0 01-.172-.528.642.642 0 01.251-.487.622.622 0 01.498-.132.694.694 0 01.486.268l1.721 2.08-.152-.014 2.238-1.851a.698.698 0 01.552-.16.722.722 0 01.486.267zM105.991 95.883a.77.77 0 01.129.574.74.74 0 01-.333.459l-5.824 3.766a.72.72 0 01-1.012-.218l-2.118-3.275a.7.7 0 01-.109-.544.642.642 0 01.306-.455.628.628 0 01.51-.072.7.7 0 01.452.322l1.76 2.72-.18-.012 2.025-1.31-.085.156-1.453-2.247a.698.698 0 01-.11-.544.642.642 0 01.307-.455.626.626 0 01.51-.073c.188.04.338.148.451.323l1.466 2.267-.149-.032 2.439-1.577a.699.699 0 01.567-.095.724.724 0 01.451.322zM101.947 89.683a.7.7 0 01.575-.026.765.765 0 01.414.386.73.73 0 01.053.575.74.74 0 01-.386.414l-6.239 3.031a.68.68 0 01-.558.031.748.748 0 01-.436-.402.69.69 0 01-.026-.548.662.662 0 01.365-.43l6.238-3.031zM92.338 85.336a.622.622 0 01.316-.52.722.722 0 01.63-.08.55.55 0 01.378.286.92.92 0 01.1.49 3.05 3.05 0 00.231 1.282c.166.399.377.731.634.997.254.258.546.45.874.573.32.127.665.184 1.032.17.363-.02.737-.11 1.122-.27.45-.186.816-.411 1.097-.675.277-.27.48-.566.606-.887.127-.321.182-.66.164-1.016a3.433 3.433 0 00-.263-1.073 3.557 3.557 0 00-.303-.576 2.223 2.223 0 00-.438-.494.838.838 0 01-.266-.422.632.632 0 01.072-.485c.123-.224.294-.356.512-.394a.614.614 0 01.56.158c.175.153.339.319.491.498.142.175.27.36.386.555.122.191.228.394.317.608.22.533.345 1.074.374 1.625a4.217 4.217 0 01-.226 1.587c-.179.508-.472.97-.879 1.39-.414.423-.95.77-1.607 1.043a4.547 4.547 0 01-1.694.364 4.01 4.01 0 01-2.935-1.253 4.52 4.52 0 01-.96-1.472 4.436 4.436 0 01-.284-1 4.194 4.194 0 01-.041-1.009zM91.424 82.109L90.4 78.22a.7.7 0 01.067-.551.642.642 0 01.432-.337.629.629 0 01.53.084c.151.1.253.252.306.453l.854 3.25-.224-.053 2.263-.595-.069.117-.714-2.715a.7.7 0 01.067-.551.642.642 0 01.432-.337.629.629 0 01.53.083c.151.101.253.252.306.454l.705 2.68-.108-.033 2.344-.616-.08.12-.851-3.238a.68.68 0 01.078-.554.64.64 0 01.409-.33.629.629 0 01.53.083c.159.099.265.249.317.45l1.022 3.888a.74.74 0 01-.063.563.74.74 0 01-.458.331l-6.708 1.763a.718.718 0 01-.894-.522zM89.686 64.275c-.01-.576.087-1.09.294-1.543.208-.451.504-.833.89-1.145.379-.32.822-.56 1.33-.722.502-.17 1.04-.26 1.616-.27.776-.016 1.486.11 2.132.378.637.268 1.149.666 1.535 1.195.386.52.587 1.169.602 1.944l.055 2.868a.74.74 0 01-.194.532.74.74 0 01-.524.214l-6.934.134a.718.718 0 01-.746-.718l-.056-2.867zm7.021-.016c-.01-.504-.145-.913-.408-1.228a2.238 2.238 0 00-1.045-.676 4.204 4.204 0 00-1.408-.201 4.2 4.2 0 00-1.065.152c-.343.087-.64.22-.893.402-.26.18-.464.409-.61.684-.147.274-.217.6-.21.976l.04 2.1-.11-.118 5.88-.114-.131.075-.04-2.052zM90.518 57.561l.525-3.986a.7.7 0 01.27-.484.642.642 0 01.528-.149.629.629 0 01.46.279c.1.15.138.329.11.535l-.438 3.331-.189-.134 2.32.306-.107.083.367-2.784a.7.7 0 01.27-.485.642.642 0 01.527-.149.629.629 0 01.46.279c.1.15.138.329.11.535l-.361 2.748-.088-.072 2.404.317-.12.08.437-3.319a.679.679 0 01.282-.483.64.64 0 01.504-.151.629.629 0 01.46.278c.109.152.15.33.122.537l-.525 3.985a.74.74 0 01-.27.497.74.74 0 01-.551.133l-6.877-.906a.718.718 0 01-.63-.821zM99.85 48.25a.698.698 0 01.325-.45.64.64 0 01.541-.085c.194.049.339.16.436.333.09.164.11.346.058.548l-.963 3.779a.737.737 0 01-.328.461.74.74 0 01-.562.068l-6.721-1.713a.68.68 0 01-.447-.336.747.747 0 01-.073-.589.69.69 0 01.334-.435.663.663 0 01.556-.093l6.268 1.596-.263.206.839-3.29zM95.69 40.328c.278-.716.652-1.184 1.124-1.404.472-.22 1.036-.203 1.692.052.35.136.627.342.829.617.194.273.3.606.32 1 .011.39-.079.832-.27 1.324l-.486-.24c.09-.231.226-.483.41-.755.175-.275.398-.519.669-.731.267-.223.58-.367.94-.433.356-.077.758-.028 1.205.145.493.191.863.43 1.113.715.252.279.414.582.484.91.07.327.081.653.032.977a4.71 4.71 0 01-.244.896l-1.082 2.786a.74.74 0 01-.381.418.74.74 0 01-.566 0l-6.466-2.51a.718.718 0 01-.418-.947l1.095-2.82zm1.242.714l-.773 1.991-.123-.215 2.025.786-.153.096.782-2.014a.954.954 0 00.013-.664c-.075-.227-.247-.392-.515-.496-.321-.125-.584-.133-.79-.024-.21.1-.365.28-.466.54zm3.1 1.1l-.79 2.036-.051-.135 2.36.916-.155.069.825-2.126c.133-.343.149-.65.048-.92-.108-.275-.345-.482-.71-.624-.336-.13-.604-.157-.805-.081a.925.925 0 00-.467.372 2.817 2.817 0 00-.255.493zM98.503 35.338l1.955-3.512a.698.698 0 01.429-.352.64.64 0 01.545.056c.175.098.284.24.325.428a.75.75 0 01-.093.539l-1.634 2.936-.126-.194 2.045 1.138-.131.037 1.366-2.453a.698.698 0 01.429-.352.64.64 0 01.545.056c.175.097.283.24.325.428a.75.75 0 01-.093.538l-1.348 2.423-.055-.1 2.118 1.18-.141.03 1.628-2.925a.68.68 0 01.44-.346.638.638 0 01.524.045c.175.097.283.24.325.428a.722.722 0 01-.083.544l-1.955 3.513a.74.74 0 01-.435.362.739.739 0 01-.56-.078l-6.061-3.373a.718.718 0 01-.284-.996zM109.503 34.027a.955.955 0 01-.516.367.66.66 0 01-.583-.094l-5.624-4.06a.72.72 0 01-.165-1.022l2.023-2.802c.243-.338.561-.587.954-.747.39-.172.81-.234 1.259-.187.442.044.868.213 1.276.508.247.178.45.403.608.675.163.266.276.554.338.865.066.305.074.601.023.89l-.217-.171c.229-.111.453-.176.674-.195.218-.03.429-.02.631.027.201.037.394.111.578.225.181.091.336.178.463.26.133.076.251.132.354.167a.45.45 0 00.321-.035.657.657 0 01.559.004c.184.074.298.21.341.41a.608.608 0 01-.031.391c-.06.124-.14.235-.239.33a1.326 1.326 0 01-.294.203 1.747 1.747 0 01-.52.127 1.907 1.907 0 01-.713-.1c-.261-.09-.56-.256-.897-.5a.933.933 0 00-.707-.169.777.777 0 00-.352.16 1.46 1.46 0 00-.339.347l-1.419 1.966-.118-.308 2.111 1.524c.169.122.279.27.33.446a.572.572 0 01-.109.498zm-3.209-2.893l1.636-2.268c.085-.116.115-.267.091-.452a1.566 1.566 0 00-.242-.589 2.11 2.11 0 00-.535-.55c-.286-.205-.579-.298-.879-.279-.303.01-.517.101-.643.276l-1.623 2.248-.227-.342 2.754 1.988-.332-.032zM115.819 26.98a.77.77 0 01-.528.259.72.72 0 01-.532-.207l-5.045-4.795 1.075-1.13 5.045 4.794a.7.7 0 01.226.529.79.79 0 01-.241.55zm-6.916-2.915a.764.764 0 01-.502.251.659.659 0 01-.506-.2.62.62 0 01-.216-.486.765.765 0 01.224-.515l3.671-3.862a.722.722 0 01.494-.242.64.64 0 01.514.19.643.643 0 01.217.505.754.754 0 01-.225.497l-3.671 3.863zM120.791 23.078a3.156 3.156 0 01-1.421.692 2.984 2.984 0 01-1.442-.068 2.337 2.337 0 01-1.114-.745 2.821 2.821 0 01-.539-.972 2.556 2.556 0 01-.075-1.09c.058-.38.201-.779.428-1.195l1.341.153c-.355.45-.528.83-.518 1.144.012.302.129.59.354.86.152.185.349.329.589.431.236.096.506.116.813.06.301-.062.628-.238.979-.529.29-.24.495-.518.616-.837.123-.329.178-.67.166-1.024a3.847 3.847 0 00-.188-1.074 4.286 4.286 0 00-.459-1.007.465.465 0 01-.08-.323c.022-.112.11-.231.264-.358a.573.573 0 01.54-.12.784.784 0 01.476.37c.251.415.444.868.579 1.358.136.479.192.973.166 1.482a3.79 3.79 0 01-.386 1.472c-.233.472-.595.912-1.089 1.32zm3.232-2.796a.8.8 0 01-.218.133.564.564 0 01-.173.035c-.76-.016-1.458-.03-2.093-.046a53.871 53.871 0 01-1.78-.1 19.372 19.372 0 01-1.619-.188 67.6 67.6 0 00-1.142-.176 4.802 4.802 0 01-.909-.214 1.662 1.662 0 01-.677-.5 2.037 2.037 0 01-.456-1.04c-.052-.402.006-.809.176-1.219.164-.416.453-.795.866-1.136a3.816 3.816 0 011.323-.736c.462-.144.849-.147 1.16-.01a.87.87 0 01.145.083c.081.047.16.117.236.21a.541.541 0 01.123.412.615.615 0 01-.244.42.537.537 0 01-.278.136.781.781 0 01-.221-.004 1.387 1.387 0 00-.777.02c-.234.069-.468.2-.702.393-.278.23-.429.48-.455.75-.02.265.055.5.223.703.158.191.384.326.678.405.288.073.588.121.898.145.316.019.587.044.811.077.359.045.753.088 1.181.129.429.03.855.055 1.279.079.419.017.81.037 1.171.06.363.011.66.025.891.041.141.008.261.034.359.077.105.038.2.11.287.215.066.08.111.209.133.387.029.174-.036.326-.196.459z" fill="#618A54"/><path d="M127.018 19.134a5.189 5.189 0 01-1.39.63 3.7 3.7 0 01-1.483.05.944.944 0 01-.362-.127.752.752 0 01-.25-.24.682.682 0 01-.092-.509.665.665 0 01.313-.45.635.635 0 01.422-.095 3.87 3.87 0 001.062 0c.326-.052.675-.195 1.048-.428.251-.158.458-.34.622-.545.159-.213.263-.425.311-.634a.765.765 0 00-.093-.579.912.912 0 00-.508-.404c-.211-.066-.472-.068-.783-.006a4.837 4.837 0 00-1.102.365c-.4.175-.773.295-1.119.36-.35.06-.673.064-.969.013a2.107 2.107 0 01-.8-.35 2.515 2.515 0 01-.639-.704c-.275-.44-.399-.887-.371-1.339.036-.456.196-.886.48-1.291a3.863 3.863 0 011.129-1.047c.441-.276.89-.462 1.348-.56.46-.11.873-.136 1.238-.081.294.033.505.15.632.354.093.15.121.321.082.515a.64.64 0 01-.293.438.523.523 0 01-.331.08 2.046 2.046 0 00-.603.01 3.88 3.88 0 00-.714.15c-.241.065-.45.154-.627.264a2.568 2.568 0 00-.672.577 1.19 1.19 0 00-.257.585.83.83 0 00.128.543.893.893 0 00.491.4c.203.053.442.05.716-.009.271-.065.581-.165.931-.3.454-.18.865-.314 1.234-.404a2.869 2.869 0 011.021-.087c.301.029.579.133.833.314.251.173.484.433.701.779.275.44.391.897.347 1.368a2.763 2.763 0 01-.508 1.338 3.781 3.781 0 01-1.123 1.056zM127.831 9.363a.69.69 0 01.548-.017.664.664 0 01.426.37L131.743 16c.088.188.093.38.017.574a.768.768 0 01-.392.409.73.73 0 01-.576.044.74.74 0 01-.408-.392l-2.938-6.283a.68.68 0 01-.023-.559.748.748 0 01.408-.43zm4.816-2.251a.709.709 0 01.581-.033.7.7 0 01.403.38l2.938 6.284a.72.72 0 01.028.57c-.066.18-.203.32-.414.418a.751.751 0 01-.553.034.718.718 0 01-.42-.387l-2.938-6.283a.663.663 0 01-.012-.564.746.746 0 01.387-.42zm-3.369 5.43l4.848-2.267.585 1.25-4.848 2.267-.585-1.25zM141.109 4.92a.677.677 0 01.533.069.677.677 0 01.369.441.82.82 0 01.03.23.635.635 0 01-.031.233l-1.507 4.513-.028-.856.977 3.303a.72.72 0 01-.058.568.658.658 0 01-.402.331.726.726 0 01-.553-.049.74.74 0 01-.345-.448l-.949-3.211.201.34-3.462-2.567a1.045 1.045 0 01-.246-.24.822.822 0 01-.121-.24.647.647 0 01.092-.578.812.812 0 01.437-.342c.215-.063.434-.011.659.156l3.111 2.397-.336.049 1.156-3.583c.093-.278.251-.45.473-.515zM145.374 13.048a.957.957 0 01-.626-.1.658.658 0 01-.349-.476l-1.169-6.837a.719.719 0 01.598-.845l3.407-.582c.41-.07.811-.025 1.204.135.399.15.742.4 1.029.75.285.34.47.759.555 1.255.052.3.038.603-.039.908-.07.304-.192.589-.366.854a2.28 2.28 0 01-.606.652l-.035-.275c.241.081.447.192.617.333.177.132.321.286.432.462.118.167.203.355.255.565.065.192.114.362.148.51.041.148.086.27.136.367a.45.45 0 00.253.2.657.657 0 01.396.395.538.538 0 01-.043.53.61.61 0 01-.297.258c-.13.047-.264.07-.402.07a1.352 1.352 0 01-.351-.062 1.738 1.738 0 01-.461-.275 1.916 1.916 0 01-.439-.57c-.123-.247-.22-.575-.29-.985a.939.939 0 00-.133-.355.807.807 0 00-.252-.261.776.776 0 00-.364-.133 1.442 1.442 0 00-.485.01l-2.389.409.131-.303.439 2.567a.835.835 0 01-.077.549.574.574 0 01-.427.28zm-.263-4.314l2.756-.47c.142-.025.269-.112.382-.26.111-.158.191-.354.24-.59.048-.243.049-.499.003-.767-.06-.347-.203-.619-.432-.815-.222-.206-.439-.29-.652-.254l-2.732.467.077-.402.572 3.347-.214-.256zM153.459 11.749a.7.7 0 01-.21.535.768.768 0 01-.521.223.728.728 0 01-.546-.185.744.744 0 01-.223-.521l-.24-6.932a.674.674 0 01.198-.523.745.745 0 01.544-.235.69.69 0 01.511.198c.157.13.238.3.246.508l.241 6.932zM156.926 11.874a.696.696 0 01-.242.522.767.767 0 01-.533.19.733.733 0 01-.535-.219.738.738 0 01-.189-.533l.187-6.933a.68.68 0 01.23-.51.748.748 0 01.558-.201.694.694 0 01.498.23c.148.14.219.313.214.521l-.188 6.933zM166.686 5.425c.412.06.778.236 1.099.526.329.291.575.655.737 1.091.162.436.206.904.133 1.403-.073.49-.249.921-.53 1.292-.282.371-.622.652-1.022.844a2.062 2.062 0 01-1.205.187l-2.184-.323.15-.196-.362 2.458a.763.763 0 01-.267.494.659.659 0 01-.528.128.646.646 0 01-.457-.273.761.761 0 01-.113-.55l1.011-6.862a.719.719 0 01.831-.617l2.707.398zm-.588 3.99c.15.021.306-.02.467-.126a1.539 1.539 0 00.617-1.716 1.404 1.404 0 00-.286-.528c-.124-.148-.261-.232-.411-.255l-2.208-.325.174-.193-.447 3.028-.102-.21 2.196.324zM176.788 12.576c-.157.579-.4 1.093-.729 1.543a4.29 4.29 0 01-1.183 1.109c-.45.284-.947.468-1.493.553a3.92 3.92 0 01-1.663-.103 3.92 3.92 0 01-1.487-.751 4.046 4.046 0 01-1.009-1.23 4.404 4.404 0 01-.45-1.552 4.64 4.64 0 01.15-1.7c.157-.58.4-1.094.729-1.544.329-.45.719-.816 1.169-1.1a3.95 3.95 0 011.495-.565 3.918 3.918 0 011.663.103 3.924 3.924 0 011.488.751c.427.348.763.762 1.006 1.243.252.474.407.989.464 1.543a4.64 4.64 0 01-.15 1.7zm-1.505-.408a3.21 3.21 0 00.067-1.486 2.647 2.647 0 00-.584-1.24 2.271 2.271 0 00-1.162-.713 2.268 2.268 0 00-1.363.028c-.43.15-.806.404-1.127.764a3.325 3.325 0 00-.684 1.332 3.366 3.366 0 00-.082 1.494c.095.474.291.883.587 1.229.296.345.683.583 1.162.712.479.13.933.12 1.363-.028.43-.149.806-.404 1.127-.764.324-.368.555-.811.696-1.328zM178.359 18.639a5.202 5.202 0 01-1.301-.796 3.696 3.696 0 01-.875-1.2.94.94 0 01-.099-.37.75.75 0 01.059-.342.677.677 0 01.369-.362.668.668 0 01.549.006c.139.061.244.16.315.296.178.35.377.643.596.88.227.24.541.448.944.625.271.12.537.189.8.208.265.012.498-.02.699-.098a.764.764 0 00.426-.402.907.907 0 00.049-.648c-.064-.211-.209-.428-.434-.65a4.874 4.874 0 00-.921-.707 5.23 5.23 0 01-.927-.724 2.9 2.9 0 01-.555-.795 2.101 2.101 0 01-.16-.857c.011-.301.085-.61.224-.924.21-.476.51-.83.9-1.06a2.559 2.559 0 011.338-.328c.494.008.994.124 1.499.346.476.21.883.477 1.221.8.349.32.603.647.762.98.139.261.159.502.062.721a.682.682 0 01-.38.357.639.639 0 01-.526.005.527.527 0 01-.253-.23 2.041 2.041 0 00-.346-.494 3.892 3.892 0 00-.525-.506 2.561 2.561 0 00-1.426-.602 1.188 1.188 0 00-.628.116.83.83 0 00-.378.41.893.893 0 00-.055.632c.07.197.207.393.41.587.206.187.463.388.771.602.403.274.746.539 1.027.794.288.258.503.523.646.796.145.265.215.554.208.865-.003.305-.087.644-.251 1.017-.21.476-.522.828-.938 1.056a2.758 2.758 0 01-1.391.331 3.782 3.782 0 01-1.505-.335zM184.419 22.115a.77.77 0 01-.37-.458.716.716 0 01.085-.564l3.562-5.98 1.34.799-3.562 5.98a.701.701 0 01-.466.336.788.788 0 01-.589-.113zm1.314-7.388a.764.764 0 01-.355-.436.659.659 0 01.082-.537.624.624 0 01.427-.318.765.765 0 01.552.105l4.578 2.727c.178.106.293.25.345.429a.641.641 0 01-.073.544.64.64 0 01-.443.322.753.753 0 01-.536-.11l-4.577-2.726zM198.495 28.5c-.394.453-.837.81-1.329 1.071a4.296 4.296 0 01-1.549.481 3.872 3.872 0 01-1.584-.154 3.926 3.926 0 01-1.452-.818 3.924 3.924 0 01-1.01-1.325 4.056 4.056 0 01-.371-1.548 4.419 4.419 0 01.273-1.592 4.647 4.647 0 01.877-1.464c.394-.453.837-.81 1.329-1.07a4.267 4.267 0 011.532-.48 3.957 3.957 0 011.592.144c.521.157 1.005.43 1.452.819.446.388.783.83 1.01 1.325.233.5.354 1.019.363 1.557a4.152 4.152 0 01-.256 1.59 4.628 4.628 0 01-.877 1.465zm-1.176-1.023c.352-.405.588-.84.709-1.308.126-.474.131-.93.016-1.37a2.273 2.273 0 00-.735-1.15 2.267 2.267 0 00-1.239-.569 2.66 2.66 0 00-1.347.196c-.44.189-.839.489-1.197.899-.351.404-.593.84-.726 1.31-.12.467-.123.92-.007 1.36.115.44.36.823.734 1.149.374.326.787.515 1.239.57.451.053.9-.012 1.347-.196.452-.19.854-.487 1.206-.891zM195.9 32.873a.768.768 0 01-.204-.552.737.737 0 01.268-.499l5.264-4.516a.72.72 0 011.032.079l2.539 2.96a.696.696 0 01.181.524.643.643 0 01-.241.492.628.628 0 01-.496.141.699.699 0 01-.491-.259l-2.11-2.459.18-.011-1.831 1.57.064-.165 1.742 2.03a.7.7 0 01.182.525.644.644 0 01-.242.492.628.628 0 01-.496.141.698.698 0 01-.491-.259l-1.758-2.049.152.012-2.204 1.89a.7.7 0 01-.549.171.725.725 0 01-.491-.258zM199.819 38.345a.77.77 0 01-.137-.573.74.74 0 01.326-.463l5.768-3.85a.717.717 0 011.015.202l2.166 3.243a.704.704 0 01.117.542.644.644 0 01-.3.46.627.627 0 01-.509.08.702.702 0 01-.456-.316l-1.799-2.694.18.01-2.006 1.339.083-.157 1.486 2.226a.704.704 0 01.117.542.644.644 0 01-.3.46.627.627 0 01-.509.08.702.702 0 01-.456-.316l-1.499-2.245.15.03-2.416 1.612a.698.698 0 01-.565.103.725.725 0 01-.456-.315zM204.038 44.61a.699.699 0 01-.574.034.767.767 0 01-.42-.38.73.73 0 01-.061-.574.742.742 0 01.38-.42l6.193-3.123a.68.68 0 01.558-.04c.193.064.34.196.441.396a.687.687 0 01.034.547.662.662 0 01-.358.436l-6.193 3.123zM213.702 48.787a.622.622 0 01-.309.526.723.723 0 01-.629.088.552.552 0 01-.382-.28.919.919 0 01-.106-.489 3.07 3.07 0 00-.251-1.277 3.162 3.162 0 00-.649-.988 2.527 2.527 0 00-1.916-.715 3.44 3.44 0 00-1.118.287c-.448.193-.811.424-1.087.691a2.541 2.541 0 00-.593.897 2.393 2.393 0 00-.149 1.018c.03.353.123.71.279 1.07.085.198.189.388.312.57.122.183.271.346.445.488.14.122.231.262.272.418a.633.633 0 01-.064.486c-.121.226-.289.36-.507.401a.612.612 0 01-.561-.15 4.58 4.58 0 01-.499-.49 4.527 4.527 0 01-.394-.549 3.845 3.845 0 01-.326-.604 4.896 4.896 0 01-.399-1.618 4.245 4.245 0 01.202-1.59c.172-.51.458-.978.858-1.404.408-.429.939-.784 1.592-1.066a4.546 4.546 0 011.688-.39 4.014 4.014 0 012.953 1.21c.408.398.735.884.983 1.457.139.323.239.655.299.995.059.34.078.676.056 1.008zM214.669 52.002l1.081 3.872c.056.2.037.384-.058.552a.64.64 0 01-.427.343.628.628 0 01-.532-.076.752.752 0 01-.312-.448l-.904-3.236.226.049-2.254.629.067-.118.755 2.704a.7.7 0 01-.058.552.643.643 0 01-.427.344.629.629 0 01-.532-.076.748.748 0 01-.312-.449l-.746-2.67.109.032-2.335.652.078-.122.9 3.225a.68.68 0 01-.069.555.64.64 0 01-.404.337.628.628 0 01-.532-.075.723.723 0 01-.324-.446l-1.081-3.872a.746.746 0 01.055-.563.739.739 0 01.454-.339l6.68-1.864a.716.716 0 01.902.508zM131.95 53.363c.13 0 .266.038.406.112a.756.756 0 01.336.266l3.402 5.236-.7-.028 3.486-5.208c.177-.252.406-.378.686-.378a.88.88 0 01.602.238.79.79 0 01.266.616v8.106c0 .243-.08.448-.238.616-.159.159-.369.238-.63.238a.899.899 0 01-.644-.238.862.862 0 01-.238-.616V55.73l.546.126-2.856 4.354a1.15 1.15 0 01-.322.266.625.625 0 01-.378.098.653.653 0 01-.378-.098 1.206 1.206 0 01-.308-.266l-2.674-4.228.364-.742v7.084a.896.896 0 01-.224.616.772.772 0 01-.588.238.752.752 0 01-.574-.238.891.891 0 01-.224-.616v-8.106c0-.233.084-.434.252-.602a.884.884 0 01.63-.252zm17.14 2.184c.243 0 .444.08.602.238a.832.832 0 01.238.616v5.922a.862.862 0 01-.238.616.814.814 0 01-.602.238.817.817 0 01-.602-.238.867.867 0 01-.238-.616v-.686l.308.126c0 .122-.065.27-.196.448-.13.168-.308.336-.532.504-.224.168-.49.313-.798.434a2.766 2.766 0 01-.98.168 3.235 3.235 0 01-1.75-.49 3.62 3.62 0 01-1.246-1.372c-.298-.588-.448-1.26-.448-2.016 0-.765.15-1.437.448-2.016a3.524 3.524 0 011.232-1.372 3.055 3.055 0 011.708-.504 3.233 3.233 0 011.974.644c.252.187.444.378.574.574.14.187.21.346.21.476l-.504.182v-1.022c0-.242.08-.443.238-.602a.794.794 0 01.602-.252zm-2.828 6.23c.411 0 .77-.102 1.078-.308a2.03 2.03 0 00.714-.84c.178-.354.266-.751.266-1.19 0-.448-.088-.85-.266-1.204a2.03 2.03 0 00-.714-.84 1.897 1.897 0 00-1.078-.308c-.401 0-.756.103-1.064.308-.308.206-.55.486-.728.84a2.78 2.78 0 00-.252 1.204c0 .439.084.836.252 1.19.178.355.42.635.728.84.308.206.663.308 1.064.308zm6.887 1.4a.817.817 0 01-.602-.238.867.867 0 01-.238-.616v-5.782c0-.242.08-.443.238-.602a.794.794 0 01.602-.252c.243 0 .444.084.602.252.159.159.238.36.238.602v1.316l-.098-.938a2.18 2.18 0 01.952-1.022 2.39 2.39 0 01.658-.266c.234-.056.467-.084.7-.084.28 0 .514.08.7.238.196.159.294.346.294.56 0 .308-.079.532-.238.672a.796.796 0 01-.518.196c-.177 0-.34-.032-.49-.098a1.147 1.147 0 00-.49-.098c-.168 0-.34.042-.518.126a1.42 1.42 0 00-.476.364c-.14.168-.256.378-.35.63a2.662 2.662 0 00-.126.868v3.318a.862.862 0 01-.238.616.814.814 0 01-.602.238zm4.865-.014c-.271 0-.481-.07-.63-.21-.14-.15-.21-.36-.21-.63v-.238c0-.27.07-.476.21-.616.149-.15.359-.224.63-.224h.182c.27 0 .476.075.616.224.149.14.224.346.224.616v.238c0 .27-.075.48-.224.63-.14.14-.346.21-.616.21h-.182zm8.446-1.96a.93.93 0 01.266.042c.102.028.214.084.336.168.158.122.345.229.56.322.224.094.48.14.77.14.289 0 .56-.07.812-.21a1.85 1.85 0 00.644-.616c.168-.27.252-.592.252-.966 0-.354-.075-.648-.224-.882a1.377 1.377 0 00-.574-.532 1.619 1.619 0 00-.756-.182 2.04 2.04 0 00-.518.056c-.131.038-.262.08-.392.126a1.486 1.486 0 01-.434.056.613.613 0 01-.504-.224.861.861 0 01-.168-.532c0-.13.023-.247.07-.35.056-.102.135-.214.238-.336l2.464-2.618.378.322h-3.444a.759.759 0 01-.56-.224.757.757 0 01-.224-.56c0-.214.074-.392.224-.532a.76.76 0 01.56-.224h4.284c.289 0 .504.08.644.238a.845.845 0 01.126.966 1.546 1.546 0 01-.238.308l-2.478 2.66-.378-.476c.102-.046.242-.088.42-.126.186-.037.34-.056.462-.056.55 0 1.026.145 1.428.434.41.28.723.649.938 1.106.224.448.336.934.336 1.456 0 .69-.154 1.288-.462 1.792a3.032 3.032 0 01-1.302 1.162c-.56.27-1.214.406-1.96.406-.346 0-.686-.042-1.022-.126a3.358 3.358 0 01-.868-.336c-.206-.112-.346-.233-.42-.364a.922.922 0 01-.098-.392c0-.214.074-.415.224-.602a.727.727 0 01.588-.294zm9.843 1.974a.9.9 0 01-.644-.238.838.838 0 01-.252-.616v-7.056l.196.308-1.022.756a.767.767 0 01-.49.154.806.806 0 01-.588-.252.822.822 0 01-.252-.602c0-.298.145-.541.434-.728l2.016-1.344a.93.93 0 01.308-.14c.122-.028.234-.042.336-.042.271 0 .486.084.644.252.159.159.238.36.238.602v8.092a.814.814 0 01-.266.616c-.168.159-.387.238-.658.238zm-39.873 16.46c.224 0 .41.075.56.224.149.15.224.336.224.56a.744.744 0 01-.224.546.788.788 0 01-.56.21h-4.76c-.243 0-.434-.074-.574-.224a.806.806 0 01-.21-.574c0-.233.084-.438.252-.616l3.052-3.262c.345-.373.616-.756.812-1.148.205-.392.308-.732.308-1.022 0-.466-.136-.84-.406-1.12-.271-.29-.63-.434-1.078-.434-.178 0-.36.042-.546.126-.187.084-.369.2-.546.35a3.63 3.63 0 00-.476.518c-.112.15-.224.243-.336.28a.98.98 0 01-.308.056.872.872 0 01-.574-.224.732.732 0 01-.252-.546c0-.158.051-.312.154-.462a4.33 4.33 0 01.406-.462 4.2 4.2 0 01.784-.616c.289-.177.588-.312.896-.406.308-.102.606-.154.896-.154.625 0 1.166.126 1.624.378.466.243.826.593 1.078 1.05.252.448.378.98.378 1.596 0 .514-.154 1.088-.462 1.722a7.045 7.045 0 01-1.218 1.764l-1.89 2.016-.154-.126h3.15zm6.416 1.68c-.802 0-1.484-.21-2.044-.63-.55-.43-.97-1.022-1.26-1.778-.289-.765-.434-1.642-.434-2.632 0-.998.145-1.876.434-2.632.29-.756.71-1.344 1.26-1.764.56-.43 1.242-.644 2.044-.644.803 0 1.48.215 2.03.644.56.42.985 1.008 1.274 1.764.29.756.434 1.634.434 2.632 0 .99-.144 1.867-.434 2.632-.289.756-.714 1.349-1.274 1.778-.55.42-1.227.63-2.03.63zm0-1.68c.392 0 .728-.121 1.008-.364.29-.252.514-.625.672-1.12.159-.504.238-1.13.238-1.876 0-.756-.079-1.381-.238-1.876-.158-.494-.382-.863-.672-1.106a1.455 1.455 0 00-1.008-.378 1.49 1.49 0 00-1.008.378c-.289.243-.513.612-.672 1.106-.158.495-.238 1.12-.238 1.876 0 .747.08 1.372.238 1.876.159.495.383.868.672 1.12.29.243.626.364 1.008.364zm8.194 1.54a.9.9 0 01-.644-.238.838.838 0 01-.252-.616v-7.056l.196.308-1.022.756a.77.77 0 01-.49.154.806.806 0 01-.588-.252.822.822 0 01-.252-.602c0-.298.145-.541.434-.728l2.016-1.344a.92.92 0 01.308-.14c.121-.028.233-.042.336-.042.271 0 .485.084.644.252.159.159.238.36.238.602v8.092a.817.817 0 01-.266.616c-.168.159-.387.238-.658.238zm8.073-4.97l-.028-.322c.355.159.663.364.924.616.262.252.462.528.602.826.14.299.21.607.21.924 0 .532-.149 1.022-.448 1.47a3.238 3.238 0 01-1.176 1.064 3.478 3.478 0 01-1.652.392c-.606 0-1.157-.13-1.652-.392a3.374 3.374 0 01-1.19-1.064 2.658 2.658 0 01-.434-1.47c0-.43.089-.798.266-1.106.187-.317.416-.583.686-.798.28-.214.556-.392.826-.532l-.112.392a3.012 3.012 0 01-.686-.392 2.045 2.045 0 01-.742-1.624c0-.522.136-.994.406-1.414.271-.43.635-.77 1.092-1.022a3.19 3.19 0 011.54-.378c.57 0 1.078.126 1.526.378a2.94 2.94 0 011.092 1.022c.271.42.406.892.406 1.414 0 .402-.079.738-.238 1.008-.158.27-.35.486-.574.644-.224.159-.438.28-.644.364zm-2.926-1.988c0 .252.056.476.168.672.122.196.285.355.49.476.206.112.439.168.7.168.262 0 .49-.056.686-.168.206-.121.364-.28.476-.476.122-.196.182-.42.182-.672 0-.373-.13-.681-.392-.924a1.29 1.29 0 00-.952-.378c-.392 0-.718.126-.98.378-.252.243-.378.55-.378.924zm1.358 5.418c.448 0 .826-.135 1.134-.406.308-.28.462-.616.462-1.008 0-.27-.07-.513-.21-.728a1.435 1.435 0 00-.574-.504 1.683 1.683 0 00-.812-.196c-.298 0-.569.066-.812.196-.242.122-.434.29-.574.504-.14.215-.21.458-.21.728 0 .392.154.728.462 1.008.308.27.686.406 1.134.406z" fill="#618A54"/><path fill-rule="evenodd" clip-rule="evenodd" d="M192.08 85.177c-6.812 14.758-21.741 25-39.062 25-17.322 0-32.251-10.242-39.063-25h-2.193c6.944 15.893 22.803 27 41.256 27 18.452 0 34.311-11.107 41.255-27h-2.193zm-75.401-41c7.625-12.02 21.05-20 36.339-20 15.288 0 28.713 7.98 36.338 20h2.348c-7.85-13.174-22.237-22-38.686-22-16.45 0-30.837 8.826-38.687 22h2.348z" fill="#618A54"/></g></svg>