<svg width="137" height="123" fill="none" xmlns="http://www.w3.org/2000/svg"><path d="M128 105c-13.333 4-26.667 4-40 0-13.333-4-26.667-4-40 0-13.333 4-26.667 4-40 0" stroke="#121315"/><path d="M128 98c-13.333 4-26.667 4-40 0-13.333-4-26.667-4-40 0-13.333 4-26.667 4-40 0" stroke="#121315"/><path d="M128 91c-13.333 4-26.667 4-40 0-13.333-4-26.667-4-40 0-13.333 4-26.667 4-40 0" stroke="#121315"/><path d="M128 84c-13.333 4-26.667 4-40 0-13.333-4-26.667-4-40 0-13.333 4-26.667 4-40 0" stroke="#121315"/><path d="M128 78c-13.333 4-26.667 4-40 0-13.333-4-26.667-4-40 0-13.333 4-26.667 4-40 0" stroke="#121315"/><g opacity=".75"><path d="M149.245-.18c17.393 32.034 5.524 72.102-26.51 89.494-32.033 17.393-72.101 5.525-89.494-26.509S27.717-9.297 59.75-26.689c32.033-17.393 72.101-5.525 89.494 26.51z" stroke="#618A54" stroke-width="2"/><path d="M136.713 62.294c.283-.483.595-.884.939-1.202.35-.314.78-.559 1.29-.734a.946.946 0 01.38-.055.75.75 0 01.333.097.68.68 0 01.317.407.664.664 0 01-.068.545.63.63 0 01-.33.28 3.881 3.881 0 00-.941.492c-.264.198-.506.487-.728.866-.15.256-.249.513-.298.772a1.72 1.72 0 00.018.705.767.767 0 00.352.47.907.907 0 00.637.122c.218-.04.45-.159.696-.358a4.83 4.83 0 00.807-.835c.273-.34.548-.62.824-.839.283-.215.567-.368.853-.46.288-.082.578-.103.869-.062.299.044.596.153.893.327.449.262.766.6.951 1.014.18.42.238.876.174 1.367-.064.49-.236.974-.514 1.45a4.182 4.182 0 01-.934 1.123c-.357.31-.71.525-1.058.646-.276.107-.518.1-.725-.02a.68.68 0 01-.311-.419.638.638 0 01.055-.523.527.527 0 01.257-.225c.161-.055.338-.15.53-.289.198-.134.386-.288.562-.463.183-.171.328-.346.432-.526.174-.297.283-.571.328-.823a1.189 1.189 0 00-.044-.637.828.828 0 00-.365-.422.894.894 0 00-.621-.127c-.204.048-.414.162-.63.341a7.645 7.645 0 00-.685.698c-.319.37-.62.68-.906.93a2.868 2.868 0 01-.864.551c-.28.115-.574.151-.883.11-.303-.038-.63-.16-.982-.366-.449-.262-.763-.612-.943-1.05a2.767 2.767 0 01-.171-1.42c.062-.502.23-.988.504-1.458zM140.651 71.105a.689.689 0 01-.477.27.66.66 0 01-.548-.131l-5.519-4.203a.698.698 0 01-.281-.501.764.764 0 01.157-.544.73.73 0 01.49-.306.738.738 0 01.543.158l5.518 4.202a.678.678 0 01.28.485.748.748 0 01-.163.57zm-3.22 4.229a.708.708 0 01-.499.299.702.702 0 01-.535-.15l-5.518-4.203a.722.722 0 01-.289-.492c-.026-.19.032-.378.172-.562a.756.756 0 01.475-.287.718.718 0 01.551.148l5.518 4.202c.166.126.257.29.273.494a.747.747 0 01-.148.551zm.464-6.374l-3.243 4.258-1.097-.836 3.242-4.258 1.098.836zM130.921 81.22a.678.678 0 01-.504.188.677.677 0 01-.531-.221.813.813 0 01-.133-.189.661.661 0 01-.081-.222l-.758-4.696.421.745-2.396-2.474a.714.714 0 01-.212-.529.656.656 0 01.202-.48.727.727 0 01.513-.213.741.741 0 01.514.237l2.33 2.404-.337-.208 4.259.67c.129.018.239.051.329.098.09.046.162.099.218.156a.65.65 0 01.187.554.817.817 0 01-.229.506c-.161.156-.38.212-.656.168l-3.868-.68.275-.2.637 3.71c.047.29-.013.515-.18.676zM123.146 76.163a.954.954 0 01.601-.202.659.659 0 01.53.26l4.206 5.516a.715.715 0 01-.139 1.026l-2.748 2.095a2.164 2.164 0 01-1.129.438 2.43 2.43 0 01-1.259-.186c-.411-.17-.77-.455-1.075-.856a2.158 2.158 0 01-.386-.822 2.617 2.617 0 01-.072-.926c.025-.31.103-.597.235-.859l.158.227c-.251.04-.484.037-.701-.01a1.729 1.729 0 01-.597-.208 1.657 1.657 0 01-.487-.383 4.912 4.912 0 01-.368-.383 2.1 2.1 0 00-.29-.262.453.453 0 00-.318-.06.657.657 0 01-.534-.166.54.54 0 01-.208-.49.611.611 0 01.144-.366c.093-.102.202-.184.324-.247.128-.057.241-.094.34-.109.157-.019.335-.009.536.03a1.9 1.9 0 01.652.302c.224.161.462.407.714.738a.943.943 0 00.283.252.802.802 0 00.344.115c.124.017.251 0 .384-.051a1.44 1.44 0 00.425-.234l1.928-1.47.024.33-1.579-2.072a.833.833 0 01-.186-.521.57.57 0 01.248-.446zm2.233 3.7l-2.224 1.695c-.114.087-.187.223-.217.407-.026.19-.006.402.06.633.071.238.188.465.353.682.214.28.467.454.761.522.291.079.523.053.695-.078l2.204-1.68.119.392-2.059-2.7.308.127zM116.659 80.972a.699.699 0 01-.063-.572.769.769 0 01.359-.438.73.73 0 01.57-.09.739.739 0 01.438.359l3.427 6.03c.103.18.125.366.067.555a.746.746 0 01-.373.46.69.69 0 01-.545.062.662.662 0 01-.453-.336l-3.427-6.03zM113.433 82.502a.698.698 0 01-.028-.575.768.768 0 01.385-.415.73.73 0 01.575-.054.74.74 0 01.415.385l3.048 6.23a.683.683 0 01.033.559.752.752 0 01-.401.436.692.692 0 01-.548.028.665.665 0 01-.432-.364l-3.047-6.23zM107.848 92.678a2.06 2.06 0 01-1.218.044 2.673 2.673 0 01-1.158-.626 2.793 2.793 0 01-.768-1.18 2.765 2.765 0 01-.13-1.392c.077-.459.249-.866.515-1.221.26-.345.587-.587.98-.724l2.085-.727-.042.243-.819-2.345a.771.771 0 01.007-.562.661.661 0 01.409-.358.646.646 0 01.532.03.765.765 0 01.355.435l2.285 6.55a.719.719 0 01-.45.932l-2.583.9zm-1.328-3.807a.662.662 0 00-.356.328 1.544 1.544 0 00-.101 1.242c.077.219.193.407.35.564.156.158.322.27.498.335.178.073.339.085.482.035l2.108-.735-.065.251-1.008-2.89.188.139-2.096.731zM95.36 91.05a4.64 4.64 0 01-.069-1.706 4.293 4.293 0 01.534-1.531c.267-.46.622-.855 1.066-1.182a3.918 3.918 0 011.521-.68 3.92 3.92 0 011.666-.025c.533.112 1.021.32 1.465.622.438.313.811.702 1.118 1.166.308.465.526.99.656 1.576.129.586.153 1.154.07 1.705a4.259 4.259 0 01-.525 1.517c-.273.47-.628.868-1.064 1.194a3.92 3.92 0 01-1.521.68 3.918 3.918 0 01-1.666.025 3.797 3.797 0 01-1.467-.634 4.156 4.156 0 01-1.127-1.152 4.64 4.64 0 01-.656-1.576zm1.524-.337c.116.523.326.972.63 1.347.306.383.67.66 1.092.828.423.169.876.2 1.36.093a2.268 2.268 0 001.195-.658c.312-.331.526-.73.644-1.2.11-.466.106-.965-.011-1.496a3.388 3.388 0 00-.621-1.362 2.662 2.662 0 00-1.09-.816 2.268 2.268 0 00-1.36-.093 2.268 2.268 0 00-1.194.658 2.66 2.66 0 00-.645 1.2 3.277 3.277 0 000 1.499zM91.18 86.338a5.2 5.2 0 011.522.101c.456.114.9.333 1.331.656.11.081.196.175.26.283a.745.745 0 01.106.33.678.678 0 01-.16.492.666.666 0 01-.487.25.636.636 0 01-.417-.117 3.868 3.868 0 00-.936-.502c-.312-.107-.688-.146-1.127-.116-.295.02-.563.082-.805.186-.24.113-.432.25-.573.412a.765.765 0 00-.191.554c.016.24.101.438.256.596.155.158.384.283.687.375.303.1.685.166 1.144.2.435.034.821.104 1.157.21.336.113.623.262.86.447.23.193.41.421.54.685.13.272.207.58.23.922.035.52-.067.971-.305 1.356a2.56 2.56 0 01-1.033.912 3.86 3.86 0 01-1.49.389 4.185 4.185 0 01-1.452-.142c-.457-.122-.834-.293-1.13-.513-.243-.168-.373-.372-.39-.612a.683.683 0 01.172-.492.64.64 0 01.464-.248c.12-.008.23.02.33.086.136.103.315.195.537.276.222.09.455.158.699.206a2.556 2.556 0 001.543-.128c.225-.104.393-.236.502-.395.11-.16.158-.34.144-.54a.894.894 0 00-.244-.584c-.153-.142-.365-.252-.635-.33-.27-.07-.59-.129-.962-.176a9.353 9.353 0 01-1.278-.226 2.874 2.874 0 01-.942-.406 1.698 1.698 0 01-.586-.67c-.139-.27-.222-.61-.25-1.017-.034-.519.079-.975.34-1.37a2.76 2.76 0 011.08-.939 3.78 3.78 0 011.489-.401zM84.5 86.036c.223.012.403.09.54.233a.719.719 0 01.187.54l-.38 6.95-1.558-.086.38-6.95a.7.7 0 01.256-.514.788.788 0 01.575-.173zm2.265 7.154c.208.011.38.085.517.22a.66.66 0 01.176.515.622.622 0 01-.23.48.766.766 0 01-.538.163l-5.32-.29a.723.723 0 01-.505-.22.642.642 0 01-.188-.516.642.642 0 01.243-.491.75.75 0 01.525-.152l5.32.29zM69.137 86.907a4.64 4.64 0 01.68-1.565c.315-.46.698-.841 1.149-1.145a3.876 3.876 0 011.474-.6 3.92 3.92 0 011.666.051c.576.137 1.079.372 1.51.705.43.332.78.732 1.047 1.199.258.472.423.984.498 1.536a4.64 4.64 0 01-.097 1.704 4.641 4.641 0 01-.68 1.565c-.316.46-.693.839-1.134 1.137-.45.304-.943.507-1.478.61a3.918 3.918 0 01-1.665-.05 3.92 3.92 0 01-1.51-.704 3.796 3.796 0 01-1.044-1.211 4.157 4.157 0 01-.513-1.528 4.64 4.64 0 01.097-1.704zm1.518.361a3.202 3.202 0 00-.021 1.488c.108.478.316.885.622 1.22.307.337.701.562 1.184.677.483.115.936.091 1.361-.071a2.661 2.661 0 001.103-.798c.302-.373.516-.823.642-1.353.124-.521.136-1.02.035-1.496a2.66 2.66 0 00-.625-1.21 2.267 2.267 0 00-1.183-.676 2.268 2.268 0 00-1.362.071 2.662 2.662 0 00-1.103.799c-.311.378-.53.828-.653 1.35zM69.139 81.706a.772.772 0 01.436.395.74.74 0 01-.008.566l-2.589 6.435a.718.718 0 01-.952.406l-3.618-1.456a.7.7 0 01-.403-.382.642.642 0 01-.012-.548.627.627 0 01.375-.353.7.7 0 01.555.003l3.006 1.21-.154.093.9-2.238.02.176-2.483-.999a.699.699 0 01-.403-.382.642.642 0 01-.012-.548.627.627 0 01.375-.353.7.7 0 01.555.003l2.505 1.008-.14.06 1.084-2.695a.7.7 0 01.408-.404.726.726 0 01.555.003zM63.32 78.74a.772.772 0 01.387.444.74.74 0 01-.074.561l-3.321 6.09a.719.719 0 01-.993.292l-3.424-1.868a.7.7 0 01-.355-.426.642.642 0 01.051-.546.628.628 0 01.414-.308.7.7 0 01.55.068L59.4 84.6l-.164.075 1.156-2.118-.002.177-2.349-1.281a.7.7 0 01-.355-.426.642.642 0 01.052-.546.627.627 0 01.413-.308.7.7 0 01.551.068l2.37 1.293-.146.043 1.39-2.549a.7.7 0 01.454-.354.725.725 0 01.55.068zM56.808 75.221a.7.7 0 01.492-.296.768.768 0 01.548.141.73.73 0 01.32.48.74.74 0 01-.14.548l-4.037 5.64a.68.68 0 01-.476.295.747.747 0 01-.574-.146.69.69 0 01-.285-.469.662.662 0 01.115-.552l4.037-5.64zM46.288 75.987a.622.622 0 01.03-.609c.11-.2.282-.322.516-.37a.55.55 0 01.468.07.92.92 0 01.322.385 3.055 3.055 0 00.815 1.015c.336.272.68.463 1.033.574.347.106.694.135 1.041.087.343-.042.672-.156.988-.343.31-.192.596-.45.858-.773.307-.379.52-.751.642-1.117.114-.37.15-.727.109-1.07a2.408 2.408 0 00-.34-.97 3.435 3.435 0 00-.744-.818 3.557 3.557 0 00-.541-.361c-.193-.105-.4-.18-.621-.225a.84.84 0 01-.435-.244.631.631 0 01-.168-.46c.002-.257.089-.453.262-.591a.613.613 0 01.567-.128c.227.05.45.118.67.203.208.086.409.187.603.303.2.11.39.238.57.384.447.363.815.779 1.103 1.25.282.465.469.965.56 1.502a3.82 3.82 0 01-.11 1.641c-.162.569-.467 1.13-.915 1.683a4.55 4.55 0 01-1.315 1.128 4.01 4.01 0 01-3.176.3 4.52 4.52 0 01-1.547-.836 4.44 4.44 0 01-.727-.743 4.195 4.195 0 01-.517-.867zM43.945 73.587l-2.753-2.93a.7.7 0 01-.205-.515.642.642 0 01.22-.503.628.628 0 01.506-.18c.18.018.342.102.484.253l2.302 2.449-.223.06 1.705-1.602-.004.136-1.923-2.046a.7.7 0 01-.205-.516.642.642 0 01.22-.503.628.628 0 01.506-.18c.18.018.342.102.484.253l1.899 2.02-.111.022 1.766-1.66-.013.144-2.293-2.44a.68.68 0 01-.196-.523.64.64 0 01.202-.486.629.629 0 01.506-.18c.186.011.35.093.493.244l2.754 2.93a.74.74 0 01.213.524.74.74 0 01-.245.51l-5.054 4.75a.718.718 0 01-1.035-.032zM33.909 58.743c-.285-.501-.444-1-.478-1.496a3.128 3.128 0 01.236-1.431c.18-.461.455-.884.825-1.27.359-.387.789-.724 1.29-1.008.674-.384 1.36-.612 2.054-.684a3.57 3.57 0 011.92.317c.587.273 1.072.747 1.456 1.422l1.417 2.493a.74.74 0 01.083.56.74.74 0 01-.358.438l-6.03 3.427a.718.718 0 01-.998-.275l-1.417-2.493zm6.162-3.364c-.249-.438-.563-.733-.944-.885a2.238 2.238 0 00-1.241-.095c-.45.081-.895.246-1.334.495a4.2 4.2 0 00-.863.642c-.26.24-.457.5-.593.779a1.93 1.93 0 00-.21.893c.002.311.096.63.282.957l1.037 1.826-.153-.05 5.112-2.906-.079.128-1.014-1.784zM31.436 52.446l-1.44-3.753a.7.7 0 01.006-.555.642.642 0 01.393-.382.629.629 0 01.537.025c.16.084.278.223.353.417l1.203 3.137-.229-.028 2.185-.838-.055.124-1.006-2.622a.7.7 0 01.005-.554.642.642 0 01.393-.383.628.628 0 01.537.026.75.75 0 01.353.417l.993 2.588-.111-.021 2.263-.869-.066.128-1.2-3.125a.68.68 0 01.017-.56.64.64 0 01.37-.373.629.629 0 01.538.025c.168.081.29.219.364.413l1.44 3.753a.74.74 0 01-.001.566.74.74 0 01-.42.38l-6.476 2.485a.718.718 0 01-.946-.421zM35.194 39.81a.7.7 0 01.07-.55.642.642 0 01.436-.334.666.666 0 01.542.086c.158.1.262.252.313.453l.957 3.78a.74.74 0 01-.068.563.74.74 0 01-.462.327l-6.724 1.703a.68.68 0 01-.553-.083.748.748 0 01-.345-.482.69.69 0 01.086-.542.662.662 0 01.444-.348l6.27-1.587-.133.306-.833-3.292zM27.759 34.834c-.098-.762.008-1.352.317-1.77.31-.42.814-.673 1.512-.763a1.81 1.81 0 011.023.148c.301.147.554.389.758.725.197.338.328.769.395 1.293l-.541.02a3.933 3.933 0 01-.001-.858 2.92 2.92 0 01.24-.962c.128-.323.334-.6.62-.83.275-.237.652-.386 1.128-.447.523-.067.963-.034 1.319.098.354.124.64.313.859.568.218.254.383.535.495.844.104.309.175.61.212.904l.38 2.964a.74.74 0 01-.136.55.74.74 0 01-.498.269l-6.88.88a.718.718 0 01-.819-.633l-.383-3zm1.431.034l.271 2.12-.21-.131 2.155-.276-.09.157-.273-2.143a.953.953 0 00-.306-.59c-.174-.163-.404-.226-.69-.19-.34.044-.575.163-.704.357-.137.186-.188.419-.153.697zm3.25-.512l.277 2.166-.11-.094 2.512-.322-.103.135-.29-2.262c-.046-.365-.179-.642-.396-.832-.226-.19-.534-.259-.922-.21-.358.047-.606.151-.747.314a.924.924 0 00-.232.55c-.014.203-.01.389.01.555zM27.85 29.106l.042-4.02a.7.7 0 01.21-.513.642.642 0 01.505-.211c.2.002.364.076.49.22a.75.75 0 01.175.519l-.035 3.36-.203-.11 2.34.024-.097.095.029-2.808a.7.7 0 01.21-.514.642.642 0 01.506-.21c.2.001.363.075.49.22.118.138.176.31.174.518l-.029 2.772-.095-.061 2.424.025-.11.095.035-3.348a.68.68 0 01.222-.514.64.64 0 01.482-.21c.2.002.363.075.49.22.126.138.189.31.186.518l-.041 4.02a.74.74 0 01-.21.526.74.74 0 01-.53.199l-6.935-.072a.718.718 0 01-.724-.74zM36.892 22.705a.956.956 0 01-.28.57.66.66 0 01-.557.194l-6.88-.884a.719.719 0 01-.633-.82l.442-3.427c.053-.413.213-.784.481-1.112.262-.338.6-.592 1.018-.765.41-.173.864-.227 1.364-.163.302.039.587.14.856.304.27.155.507.355.71.599.203.236.352.493.445.77l-.272-.046c.148-.207.314-.371.499-.493.178-.13.367-.223.568-.277.194-.064.398-.09.615-.079.202-.006.38-.003.531.008a2.07 2.07 0 00.39-.022.451.451 0 00.266-.184.658.658 0 01.493-.263.538.538 0 01.495.197c.092.1.145.22.16.359.006.138-.011.273-.052.404-.05.131-.103.237-.162.318a1.75 1.75 0 01-.397.36c-.176.115-.4.2-.674.253-.272.046-.614.042-1.027-.011a.934.934 0 00-.702.188.773.773 0 00-.233.309 1.44 1.44 0 00-.132.467l-.31 2.404-.25-.214 2.582.332a.834.834 0 01.503.234c.12.128.168.292.142.49zm-4.202-1.012l.357-2.773c.018-.143-.028-.29-.137-.44a1.556 1.556 0 00-.493-.403 2.115 2.115 0 00-.733-.227c-.35-.045-.651.013-.906.174-.261.152-.406.335-.433.549l-.354 2.75-.362-.192 3.368.433-.307.13zM39.079 13.498a.772.772 0 01-.34.48.718.718 0 01-.566.071l-6.722-1.806.405-1.507 6.721 1.807a.7.7 0 01.451.357c.094.174.11.373.05.598zm-7.468.739a.767.767 0 01-.323.46.66.66 0 01-.54.066.622.622 0 01-.421-.325.767.767 0 01-.049-.56l1.383-5.145c.054-.2.16-.35.32-.448a.642.642 0 01.542-.078c.201.054.345.167.43.34.081.162.095.343.04.544l-1.382 5.146zM41.587 7.697a3.162 3.162 0 01-.918 1.286c-.398.323-.831.532-1.3.628a2.34 2.34 0 01-1.335-.123 2.826 2.826 0 01-.937-.597 2.56 2.56 0 01-.587-.922 3.69 3.69 0 01-.193-1.254l1.25-.506c-.097.564-.066.982.092 1.252.154.26.394.457.72.588.223.09.465.122.725.097.252-.027.5-.14.742-.335.236-.198.438-.51.608-.932.14-.349.188-.692.143-1.03a2.66 2.66 0 00-.344-.978c-.183-.316-.41-.6-.678-.855a4.322 4.322 0 00-.883-.666.465.465 0 01-.224-.246c-.034-.108-.014-.255.06-.44a.573.573 0 01.418-.363.783.783 0 01.595.097c.418.246.804.552 1.157.918.348.356.633.763.853 1.223.216.45.337.942.362 1.478.022.526-.087 1.086-.326 1.68zm1.505-4a.8.8 0 01-.127.22.568.568 0 01-.136.114c-.675.35-1.295.67-1.86.96-.57.279-1.108.533-1.613.76-.506.228-1.01.43-1.512.608-.402.14-.764.27-1.088.39-.325.12-.625.201-.901.245a1.67 1.67 0 01-.833-.115 2.036 2.036 0 01-.897-.697 2.349 2.349 0 01-.428-1.155c-.054-.444.02-.915.22-1.412.205-.513.476-.938.81-1.278.339-.347.677-.534 1.016-.562a.849.849 0 01.167.003.913.913 0 01.307.072.542.542 0 01.305.304.616.616 0 01-.014.485.537.537 0 01-.18.252.781.781 0 01-.196.102c-.28.077-.505.206-.673.388a1.998 1.998 0 00-.43.681c-.134.334-.148.626-.041.876.11.242.286.413.531.511.23.093.493.104.789.033.288-.073.575-.174.858-.301.288-.135.537-.241.75-.32.337-.131.704-.281 1.1-.45.39-.179.778-.36 1.161-.541.377-.185.73-.354 1.058-.506.324-.163.592-.292.803-.388.128-.061.245-.096.352-.104a.68.68 0 01.354.052c.097.038.197.13.303.276.108.139.123.305.046.498z" fill="#618A54"/><path d="M45.178 1.26a5.197 5.197 0 01-.921 1.216c-.346.319-.773.57-1.28.752a.947.947 0 01-.379.061.745.745 0 01-.334-.092.678.678 0 01-.323-.403.665.665 0 01.06-.545.635.635 0 01.325-.285c.366-.142.677-.311.934-.506.261-.202.5-.494.716-.877.145-.258.241-.516.286-.776a1.707 1.707 0 00-.029-.705.765.765 0 00-.358-.464.908.908 0 00-.639-.113c-.217.043-.447.166-.69.368-.25.199-.515.481-.795.847a5.266 5.266 0 01-.811.85c-.28.22-.562.377-.846.474-.288.086-.577.11-.87.074a2.5 2.5 0 01-.897-.314c-.453-.255-.774-.589-.965-1a2.56 2.56 0 01-.195-1.363c.057-.492.222-.978.493-1.459.256-.452.562-.831.917-1.135.353-.316.703-.536 1.05-.662.273-.112.515-.108.724.01.153.086.26.224.318.413a.64.64 0 01-.048.524.526.526 0 01-.254.23c-.16.056-.335.154-.525.295a3.87 3.87 0 00-.556.472 2.558 2.558 0 00-.74 1.36 1.19 1.19 0 00.054.636c.073.18.197.318.371.417a.894.894 0 00.623.117c.203-.05.411-.167.625-.35.206-.186.431-.422.675-.707.313-.375.61-.69.891-.944.286-.261.57-.45.856-.564.278-.118.572-.16.882-.122.303.033.632.15.987.35.453.256.772.602.958 1.038.186.435.25.908.192 1.417-.054.503-.215.99-.482 1.464zM65.844 28.987a.862.862 0 01.41-.095.752.752 0 01.422.074l5.489 2.978-.629.31.579-6.241c.035-.306.176-.526.422-.66a.879.879 0 01.643-.078.788.788 0 01.527.415l3.868 7.123a.864.864 0 01.085.655c-.064.215-.21.385-.44.51a.9.9 0 01-.68.098.864.864 0 01-.503-.428l-3.146-5.795.54-.15-.432 5.19c-.025.13-.077.26-.156.387a.623.623 0 01-.286.267.656.656 0 01-.379.094 1.218 1.218 0 01-.397-.087l-4.368-2.44-.034-.825 3.38 6.225c.116.213.148.43.097.648a.77.77 0 01-.403.49.753.753 0 01-.618.065.894.894 0 01-.49-.434l-3.869-7.124a.822.822 0 01-.065-.65.885.885 0 01.433-.522zm16.106-6.26a.816.816 0 01.642-.077.833.833 0 01.503.428l2.826 5.204a.864.864 0 01.085.655.816.816 0 01-.416.496.816.816 0 01-.642.078.864.864 0 01-.503-.427l-.328-.603.331-.037c.058.107.072.27.042.488-.035.21-.11.442-.227.697a3.398 3.398 0 01-.495.762c-.209.24-.469.446-.78.615a3.234 3.234 0 01-1.772.404 3.615 3.615 0 01-1.75-.61c-.543-.375-.995-.894-1.356-1.559-.365-.672-.554-1.334-.568-1.985-.01-.664.133-1.262.428-1.794.29-.54.711-.96 1.26-1.258a3.235 3.235 0 012.043-.376c.31.044.57.121.778.23.212.098.35.204.412.319l-.356.4-.488-.898a.816.816 0 01-.078-.642.793.793 0 01.409-.51zm.487 6.825c.361-.196.628-.457.8-.785a2.03 2.03 0 00.227-1.079 2.623 2.623 0 00-.334-1.172 2.655 2.655 0 00-.808-.931 2.03 2.03 0 00-1.028-.398 1.898 1.898 0 00-1.095.244 1.874 1.874 0 00-.788.778c-.172.328-.252.69-.239 1.086.022.391.14.784.353 1.178.21.386.473.694.79.926.325.227.672.357 1.04.39.369.034.73-.045 1.082-.237zm6.72-2.055a.816.816 0 01-.642.078.864.864 0 01-.503-.428l-2.76-5.081a.816.816 0 01-.077-.643.792.792 0 01.409-.509.793.793 0 01.649-.066c.215.064.38.203.496.416l.628 1.156-.533-.777c-.017-.246.004-.48.064-.704.063-.236.158-.452.285-.649.122-.204.273-.387.45-.547.18-.16.371-.297.576-.408.246-.134.489-.175.729-.125.248.046.423.163.525.352.147.27.184.505.112.704a.798.798 0 01-.362.42 1.209 1.209 0 01-.477.147 1.205 1.205 0 00-.873.506 1.413 1.413 0 00-.244.547 2.131 2.131 0 00-.007.72c.042.254.143.528.303.823l1.583 2.916a.864.864 0 01.085.655.816.816 0 01-.415.497zm4.257-2.327c-.238.129-.456.167-.654.116-.194-.065-.356-.216-.485-.454l-.114-.209c-.129-.238-.165-.452-.11-.641.06-.203.21-.369.448-.498l.16-.087c.237-.129.453-.161.648-.097.198.052.361.197.49.435l.114.209c.13.238.164.458.104.66-.056.19-.203.35-.441.479l-.16.087zm6.487-5.753a.936.936 0 01.254-.09c.104-.024.229-.029.375-.013.198.031.413.037.646.016.242-.025.489-.106.744-.244.254-.138.458-.329.613-.572.158-.256.249-.54.272-.849.019-.318-.061-.641-.239-.97-.17-.31-.376-.534-.618-.667a1.371 1.371 0 00-.758-.194 1.618 1.618 0 00-.752.2c-.18.099-.323.198-.428.297a6.342 6.342 0 00-.285.298c-.088.09-.206.176-.354.256a.613.613 0 01-.55.044.861.861 0 01-.401-.387.838.838 0 01-.106-.341c0-.117.017-.254.049-.41l.916-3.476.486.103-3.027 1.643a.76.76 0 01-.599.07.76.76 0 01-.464-.385.698.698 0 01-.057-.574.76.76 0 01.386-.464l3.764-2.044c.255-.138.481-.171.68-.098a.844.844 0 01.571.788c-.003.13-.024.258-.062.385l-.908 3.52-.56-.238c.069-.09.171-.194.31-.311.146-.122.272-.212.379-.27.484-.263.971-.363 1.462-.3.494.05.945.225 1.352.524.411.287.741.66.99 1.12.329.606.479 1.205.449 1.795a3.032 3.032 0 01-.59 1.642c-.363.505-.872.936-1.529 1.292-.303.165-.622.29-.958.377a3.363 3.363 0 01-.923.12c-.234-.001-.415-.041-.543-.12a.932.932 0 01-.273-.298.946.946 0 01-.09-.636.73.73 0 01.376-.539zm9.593-2.962a.901.901 0 01-.68.098.837.837 0 01-.515-.421l-3.367-6.201.319.177-.537 1.152a.77.77 0 01-.357.37.806.806 0 01-.637.058.82.82 0 01-.509-.408c-.143-.263-.131-.545.034-.847l1.13-2.143a.927.927 0 01.204-.27c.094-.083.185-.149.275-.198.238-.129.467-.157.687-.085.215.063.38.202.496.415l3.861 7.112a.814.814 0 01.06.668c-.072.22-.226.394-.464.523zM82.318 49.94a.76.76 0 01.6-.07.76.76 0 01.463.385.743.743 0 01.064.586.787.787 0 01-.392.452l-4.183 2.272c-.214.115-.417.14-.612.077a.806.806 0 01-.458-.405.868.868 0 01-.072-.661l1.125-4.323c.126-.493.18-.959.166-1.397-.007-.442-.079-.79-.217-1.045-.223-.41-.52-.673-.891-.79-.376-.125-.761-.081-1.155.133a1.324 1.324 0 00-.42.37 2.345 2.345 0 00-.312.569 3.653 3.653 0 00-.171.682c-.028.185-.081.32-.162.407a.984.984 0 01-.244.196.875.875 0 01-.611.077.732.732 0 01-.482-.36.805.805 0 01-.085-.48 4.367 4.367 0 01.531-1.514c.17-.294.368-.556.594-.785.221-.237.46-.424.714-.563.55-.298 1.085-.445 1.607-.442a2.543 2.543 0 011.448.408c.436.274.8.681 1.094 1.222.245.451.384 1.03.416 1.734a7.03 7.03 0 01-.229 2.132l-.699 2.673-.195-.037 2.768-1.503zm6.44-1.586c-.705.383-1.404.524-2.096.422-.689-.114-1.34-.435-1.956-.961-.62-.535-1.165-1.237-1.637-2.106-.477-.878-.768-1.718-.875-2.52-.106-.803-.017-1.52.266-2.152.287-.644.784-1.158 1.489-1.541.705-.383 1.403-.517 2.091-.403.693.102 1.347.416 1.962.943.615.526 1.16 1.228 1.637 2.106.472.869.764 1.71.874 2.52.107.802.016 1.526-.27 2.17-.284.632-.779 1.14-1.484 1.522zm-.8-1.476c.344-.187.581-.454.711-.8.134-.36.153-.795.056-1.306-.1-.518-.33-1.106-.685-1.762-.361-.664-.73-1.176-1.105-1.535-.375-.36-.748-.576-1.118-.651a1.455 1.455 0 00-1.066.148 1.488 1.488 0 00-.706.814c-.138.35-.16.782-.063 1.292s.326 1.098.686 1.762c.357.657.725 1.168 1.105 1.535.375.36.75.58 1.125.664.37.075.723.022 1.06-.161zm7.935-2.556a.9.9 0 01-.68.098.838.838 0 01-.515-.421l-3.367-6.201.32.177-.538 1.152a.769.769 0 01-.357.37.806.806 0 01-.637.058.821.821 0 01-.51-.408c-.142-.263-.13-.545.035-.847l1.13-2.143a.923.923 0 01.204-.27 1.5 1.5 0 01.275-.198c.238-.129.467-.157.687-.086.215.064.38.203.496.416l3.861 7.111a.816.816 0 01.06.669c-.072.22-.227.394-.464.523zm4.723-8.22l-.178-.27a3.2 3.2 0 011.106.1c.35.097.658.244.923.44.266.195.474.432.626.711a2.6 2.6 0 01.307 1.506 3.24 3.24 0 01-.526 1.496c-.31.466-.731.843-1.264 1.133-.533.29-1.08.437-1.64.443a3.366 3.366 0 01-1.553-.367 2.656 2.656 0 01-1.082-1.085c-.205-.377-.303-.743-.294-1.099.012-.367.086-.71.222-1.028a5.58 5.58 0 01.472-.862l.088.398a3.01 3.01 0 01-.79-.017 2.047 2.047 0 01-1.427-1.073 2.555 2.555 0 01-.318-1.437c.034-.506.19-.98.473-1.419.29-.444.68-.8 1.173-1.067a3.059 3.059 0 011.521-.396 2.948 2.948 0 011.447.377c.439.24.782.59 1.032 1.05.191.352.282.685.272.999a2.031 2.031 0 01-.198.84 3.231 3.231 0 01-.392.627zm-3.52-.351c.12.221.277.391.468.51.2.115.42.176.658.185.234 0 .466-.062.696-.187.23-.124.403-.283.522-.475.123-.204.187-.42.192-.645a1.25 1.25 0 00-.161-.678 1.206 1.206 0 00-.786-.624 1.29 1.29 0 00-1.017.122 1.356 1.356 0 00-.68.8c-.106.333-.07.664.108.992zm3.779 4.113c.394-.213.661-.513.803-.898.137-.393.112-.761-.075-1.106a1.305 1.305 0 00-.532-.54 1.438 1.438 0 00-.745-.169c-.276.001-.545.073-.807.216-.263.142-.47.329-.62.56a1.436 1.436 0 00-.264.716c-.02.256.033.502.163.74.187.345.482.566.887.666.399.09.796.029 1.19-.185z" fill="#618A54"/><path fill-rule="evenodd" clip-rule="evenodd" d="M133.868 28.254c1.056 16.22-7.177 32.345-22.4 40.61-15.222 8.265-33.23 6.388-46.258-3.332l-1.927 1.047c13.686 10.654 32.923 12.847 49.14 4.042 16.216-8.805 24.853-26.133 23.372-43.413l-1.927 1.046zm-85.827-.053C49.006 13.998 56.997.58 70.433-6.715c13.436-7.295 29.041-6.689 41.478.238l2.063-1.12c-13.184-7.833-30.04-8.724-44.496-.875-14.455 7.849-22.888 22.47-23.5 37.793l2.063-1.12z" fill="#618A54"/></g></svg>