<svg width="221" height="136" viewBox="0 0 221 136" fill="none" xmlns="http://www.w3.org/2000/svg">
<path d="M121 89C107.667 93 94.3333 93 81 89C67.6667 85 54.3333 85 41 89C27.6667 93 14.3333 93 1 89" stroke="#121315"/>
<path d="M121 82C107.667 86 94.3333 86 81 82C67.6667 78 54.3333 78 41 82C27.6667 86 14.3333 86 1 82" stroke="#121315"/>
<path d="M121 75C107.667 79 94.3333 79 81 75C67.6667 71 54.3333 71 41 75C27.6667 79 14.3333 79 1 75" stroke="#121315"/>
<path d="M121 68C107.667 72 94.3333 72 81 68C67.6667 64 54.3333 64 41 68C27.6667 72 14.3333 72 1 68" stroke="#121315"/>
<path d="M121 62C107.667 66 94.3333 66 81 62C67.6667 58 54.3333 58 41 62C27.6667 66 14.3333 66 1 62" stroke="#121315"/>
<g opacity="0.75">
<path d="M219.161 67.5259C219.161 103.977 189.612 133.526 153.161 133.526C116.71 133.526 87.161 103.977 87.161 67.5259C87.161 31.0751 116.71 1.52588 153.161 1.52588C189.612 1.52588 219.161 31.0751 219.161 67.5259Z" stroke="#618A54" stroke-width="2"/>
<path d="M216.561 72.0259C216.561 72.6019 216.453 73.1139 216.237 73.5619C216.021 74.0099 215.717 74.3859 215.325 74.6899C214.941 75.0019 214.493 75.2339 213.981 75.3859C213.477 75.5459 212.937 75.6259 212.361 75.6259C211.585 75.6259 210.877 75.4859 210.237 75.2059C209.605 74.9259 209.101 74.5179 208.725 73.9819C208.349 73.4539 208.161 72.8019 208.161 72.0259V69.1579C208.161 68.9499 208.229 68.7739 208.365 68.6299C208.509 68.4939 208.685 68.4259 208.893 68.4259H215.829C216.037 68.4259 216.209 68.4939 216.345 68.6299C216.489 68.7739 216.561 68.9499 216.561 69.1579V72.0259ZM209.541 71.9059C209.541 72.4099 209.669 72.8219 209.925 73.1419C210.189 73.4619 210.533 73.6939 210.957 73.8379C211.389 73.9899 211.857 74.0659 212.361 74.0659C212.737 74.0659 213.093 74.0219 213.429 73.9339C213.773 73.8539 214.073 73.7259 214.329 73.5499C214.593 73.3739 214.801 73.1499 214.953 72.8779C215.105 72.6059 215.181 72.2819 215.181 71.9059V69.8059L215.289 69.9259H209.409L209.541 69.8539V71.9059Z" fill="#618A54"/>
<path d="M215.639 78.4861L215.053 82.4631C215.023 82.6689 214.931 82.8291 214.776 82.9438C214.629 83.0676 214.452 83.1143 214.246 83.084C214.048 83.0548 213.896 82.9597 213.791 82.7986C213.692 82.6465 213.658 82.4676 213.688 82.2618L214.178 78.9378L214.364 79.0743L212.049 78.7331L212.158 78.6521L211.749 81.4301C211.718 81.6359 211.626 81.7961 211.471 81.9109C211.324 82.0346 211.147 82.0814 210.941 82.051C210.743 82.0219 210.592 81.9267 210.486 81.7656C210.387 81.6136 210.353 81.4346 210.383 81.2289L210.788 78.4865L210.874 78.5599L208.476 78.2064L208.597 78.1271L208.108 81.4394C208.078 81.6451 207.982 81.8048 207.819 81.9183C207.664 82.041 207.495 82.0889 207.313 82.062C207.115 82.0329 206.963 81.9377 206.858 81.7766C206.751 81.6234 206.713 81.4439 206.743 81.2381L207.329 77.2611C207.36 77.0553 207.453 76.8911 207.608 76.7685C207.77 76.6549 207.954 76.6133 208.16 76.6437L215.022 77.6551C215.228 77.6855 215.388 77.7778 215.503 77.9322C215.624 78.0957 215.67 78.2803 215.639 78.4861Z" fill="#618A54"/>
<path d="M206.144 87.7191C206.09 87.9198 205.979 88.068 205.813 88.1637C205.651 88.2692 205.47 88.2948 205.27 88.2404C205.077 88.1881 204.933 88.0746 204.84 87.9001C204.752 87.7353 204.735 87.5526 204.789 87.3518L205.809 83.5876C205.864 83.3868 205.975 83.2347 206.144 83.1313C206.319 83.0377 206.507 83.0181 206.707 83.0725L213.402 84.8867C213.603 84.9411 213.75 85.0556 213.843 85.2302C213.945 85.4068 213.966 85.6032 213.908 85.8194C213.857 86.0048 213.744 86.1481 213.567 86.2494C213.396 86.3605 213.21 86.3889 213.01 86.3345L206.767 84.6427L207.033 84.4413L206.144 87.7191Z" fill="#618A54"/>
<path d="M210.161 95.7213C209.873 96.4331 209.491 96.8955 209.016 97.1087C208.541 97.3219 207.977 97.2962 207.325 97.0317C206.977 96.8904 206.703 96.6804 206.506 96.4017C206.315 96.1259 206.214 95.7912 206.201 95.3975C206.195 95.0067 206.291 94.5667 206.49 94.0774L206.972 94.3248C206.879 94.5546 206.739 94.8043 206.552 95.0738C206.372 95.3463 206.146 95.5866 205.871 95.7948C205.601 96.0134 205.286 96.1531 204.924 96.2138C204.568 96.2849 204.167 96.2303 203.722 96.0499C203.233 95.8515 202.865 95.6076 202.62 95.3183C202.372 95.0364 202.215 94.7311 202.15 94.4025C202.084 94.0738 202.078 93.7477 202.132 93.4241C202.193 93.1035 202.279 92.8061 202.39 92.5318L203.513 89.7627C203.591 89.5699 203.72 89.4324 203.9 89.35C204.085 89.2781 204.274 89.2812 204.466 89.3594L210.894 91.9655C211.087 92.0437 211.221 92.1713 211.296 92.3484C211.375 92.536 211.376 92.7262 211.297 92.9189L210.161 95.7213ZM208.93 94.9891L209.733 93.0096L209.852 93.2263L207.839 92.4102L207.993 92.3174L207.182 94.3191C207.095 94.5341 207.087 94.7554 207.159 94.983C207.23 95.2107 207.4 95.3786 207.666 95.4868C207.985 95.6161 208.248 95.6277 208.455 95.5217C208.667 95.4261 208.825 95.2486 208.93 94.9891ZM205.847 93.8426L206.668 91.8187L206.716 91.9548L204.369 91.0035L204.526 90.9373L203.669 93.0503C203.531 93.3913 203.51 93.698 203.607 93.9703C203.711 94.2456 203.945 94.4569 204.308 94.6042C204.642 94.7395 204.91 94.7705 205.112 94.6971C205.314 94.6238 205.472 94.502 205.584 94.3317C205.696 94.1613 205.784 93.9983 205.847 93.8426Z" fill="#618A54"/>
<path d="M207.316 100.553L205.309 104.037C205.205 104.217 205.061 104.332 204.875 104.382C204.692 104.443 204.511 104.422 204.33 104.318C204.157 104.218 204.051 104.074 204.012 103.885C203.976 103.707 204.01 103.528 204.113 103.348L205.79 100.436L205.913 100.632L203.885 99.464L204.017 99.4287L202.615 101.862C202.511 102.042 202.367 102.157 202.181 102.207C201.998 102.268 201.817 102.247 201.636 102.143C201.463 102.043 201.357 101.899 201.318 101.71C201.282 101.532 201.315 101.353 201.419 101.173L202.803 98.7711L202.856 98.8711L200.755 97.6613L200.897 97.632L199.226 100.533C199.122 100.713 198.974 100.827 198.781 100.873C198.592 100.929 198.417 100.912 198.258 100.82C198.084 100.72 197.978 100.576 197.939 100.387C197.896 100.206 197.926 100.025 198.03 99.8445L200.036 96.3609C200.14 96.1807 200.287 96.0621 200.477 96.0052C200.669 95.9592 200.856 95.9881 201.036 96.0919L207.047 99.5536C207.227 99.6574 207.342 99.8021 207.392 99.9879C207.445 100.185 207.419 100.373 207.316 100.553Z" fill="#618A54"/>
<path d="M196.2 101.824C196.334 101.645 196.508 101.525 196.722 101.465C196.942 101.41 197.136 101.444 197.303 101.568L202.867 105.71C203.034 105.834 203.131 105.991 203.159 106.181C203.189 106.383 203.141 106.567 203.017 106.734L200.954 109.506C200.705 109.84 200.384 110.084 199.989 110.239C199.596 110.406 199.175 110.461 198.727 110.407C198.286 110.358 197.862 110.182 197.458 109.881C197.214 109.7 197.015 109.472 196.86 109.197C196.701 108.929 196.593 108.639 196.536 108.327C196.474 108.022 196.47 107.725 196.525 107.437L196.739 107.611C196.509 107.719 196.284 107.781 196.063 107.796C195.844 107.822 195.634 107.81 195.432 107.76C195.232 107.721 195.04 107.643 194.858 107.527C194.678 107.433 194.525 107.344 194.398 107.26C194.267 107.182 194.15 107.125 194.047 107.088C193.94 107.058 193.833 107.068 193.726 107.118C193.537 107.197 193.351 107.193 193.166 107.106C192.984 107.03 192.872 106.892 192.831 106.692C192.8 106.559 192.813 106.429 192.868 106.301C192.93 106.177 193.011 106.068 193.112 105.973C193.219 105.883 193.318 105.817 193.409 105.775C193.554 105.714 193.728 105.674 193.931 105.656C194.141 105.642 194.378 105.679 194.642 105.766C194.902 105.859 195.198 106.03 195.532 106.279C195.641 106.36 195.755 106.415 195.874 106.443C195.999 106.476 196.119 106.481 196.236 106.459C196.359 106.441 196.477 106.389 196.591 106.304C196.71 106.223 196.825 106.109 196.935 105.962L198.382 104.017L198.496 104.326L196.407 102.772C196.241 102.647 196.133 102.497 196.084 102.322C196.042 102.15 196.08 101.985 196.2 101.824ZM199.367 104.765L197.697 107.008C197.611 107.123 197.579 107.274 197.601 107.459C197.628 107.65 197.706 107.847 197.833 108.051C197.967 108.26 198.143 108.446 198.361 108.608C198.643 108.819 198.935 108.916 199.235 108.9C199.538 108.896 199.753 108.807 199.882 108.634L201.538 106.41L201.76 106.755L199.035 104.728L199.367 104.765Z" fill="#618A54"/>
<path d="M189.806 108.716C189.963 108.556 190.14 108.472 190.338 108.464C190.542 108.462 190.718 108.534 190.867 108.679L195.842 113.547L194.751 114.662L189.776 109.794C189.627 109.649 189.554 109.471 189.558 109.262C189.561 109.064 189.644 108.882 189.806 108.716ZM196.679 111.73C196.824 111.581 196.993 111.5 197.185 111.487C197.372 111.479 197.54 111.548 197.688 111.694C197.837 111.839 197.907 112.002 197.897 112.184C197.888 112.376 197.811 112.547 197.665 112.695L193.939 116.504C193.794 116.652 193.628 116.73 193.441 116.738C193.249 116.751 193.078 116.685 192.93 116.54C192.781 116.395 192.711 116.226 192.72 116.033C192.73 115.852 192.807 115.687 192.953 115.538L196.679 111.73Z" fill="#618A54"/>
<path d="M184.857 112.46C185.3 112.104 185.777 111.88 186.288 111.788C186.792 111.701 187.273 111.731 187.729 111.878C188.179 112.03 188.547 112.283 188.832 112.639C189.082 112.951 189.257 113.277 189.357 113.618C189.455 113.971 189.474 114.334 189.416 114.709C189.352 115.089 189.203 115.485 188.97 115.898L187.632 115.726C187.994 115.282 188.172 114.903 188.166 114.589C188.159 114.287 188.046 113.998 187.826 113.724C187.675 113.537 187.481 113.39 187.242 113.284C187.008 113.185 186.738 113.161 186.43 113.213C186.128 113.27 185.799 113.442 185.444 113.728C185.15 113.963 184.941 114.239 184.815 114.555C184.688 114.883 184.628 115.223 184.635 115.577C184.641 115.941 184.698 116.301 184.807 116.654C184.915 117.019 185.063 117.356 185.251 117.667C185.319 117.777 185.344 117.885 185.327 117.991C185.303 118.103 185.213 118.221 185.057 118.346C184.895 118.476 184.715 118.513 184.516 118.457C184.317 118.401 184.16 118.276 184.045 118.081C183.801 117.662 183.614 117.206 183.486 116.714C183.357 116.233 183.308 115.739 183.341 115.23C183.373 114.733 183.509 114.244 183.749 113.764C183.989 113.295 184.358 112.86 184.857 112.46ZM181.585 115.209C181.66 115.148 181.733 115.105 181.804 115.079C181.869 115.058 181.927 115.047 181.979 115.047C182.738 115.073 183.435 115.098 184.07 115.122C184.704 115.157 185.297 115.2 185.849 115.249C186.401 115.298 186.94 115.368 187.465 115.46C187.883 115.534 188.263 115.598 188.604 115.653C188.946 115.707 189.247 115.783 189.51 115.88C189.771 115.988 189.995 116.158 190.18 116.389C190.425 116.695 190.572 117.044 190.62 117.436C190.667 117.839 190.603 118.245 190.427 118.652C190.256 119.066 189.962 119.441 189.544 119.776C189.114 120.122 188.669 120.361 188.211 120.492C187.746 120.629 187.36 120.627 187.051 120.485C187.04 120.484 186.992 120.456 186.906 120.401C186.826 120.352 186.749 120.281 186.674 120.187C186.579 120.069 186.54 119.931 186.557 119.773C186.574 119.616 186.658 119.477 186.807 119.357C186.907 119.277 187 119.233 187.086 119.225C187.173 119.218 187.246 119.22 187.308 119.233C187.59 119.303 187.849 119.3 188.085 119.224C188.32 119.159 188.556 119.031 188.793 118.84C189.074 118.615 189.229 118.367 189.259 118.098C189.282 117.833 189.211 117.597 189.046 117.391C188.89 117.198 188.667 117.06 188.374 116.976C188.087 116.899 187.788 116.847 187.478 116.818C187.162 116.795 186.892 116.766 186.668 116.73C186.31 116.679 185.917 116.63 185.489 116.584C185.061 116.548 184.635 116.516 184.211 116.486C183.792 116.463 183.403 116.438 183.041 116.409C182.679 116.392 182.382 116.374 182.151 116.355C182.01 116.345 181.891 116.317 181.793 116.273C181.689 116.233 181.595 116.16 181.51 116.054C181.445 115.973 181.402 115.843 181.382 115.664C181.355 115.491 181.423 115.339 181.585 115.209Z" fill="#618A54"/>
<path d="M178.338 116.45C178.817 116.16 179.283 115.957 179.737 115.841C180.195 115.732 180.689 115.722 181.22 115.812C181.355 115.833 181.475 115.878 181.581 115.944C181.687 116.011 181.769 116.092 181.827 116.188C181.922 116.346 181.951 116.516 181.912 116.698C181.87 116.892 181.763 117.04 181.592 117.144C181.462 117.223 181.321 117.252 181.169 117.232C180.78 117.178 180.426 117.172 180.107 117.216C179.78 117.264 179.429 117.402 179.053 117.63C178.8 117.783 178.59 117.962 178.423 118.166C178.261 118.376 178.154 118.586 178.103 118.795C178.056 119.01 178.084 119.204 178.188 119.375C178.312 119.58 178.479 119.717 178.689 119.786C178.9 119.855 179.16 119.861 179.471 119.804C179.787 119.753 180.156 119.637 180.579 119.455C180.982 119.286 181.357 119.171 181.704 119.111C182.055 119.057 182.378 119.058 182.673 119.113C182.965 119.179 183.23 119.299 183.467 119.474C183.708 119.656 183.917 119.893 184.095 120.188C184.365 120.632 184.482 121.081 184.447 121.532C184.405 121.988 184.238 122.416 183.948 122.816C183.657 123.217 183.276 123.56 182.804 123.846C182.359 124.115 181.907 124.296 181.448 124.387C180.986 124.489 180.573 124.51 180.209 124.45C179.915 124.412 179.706 124.291 179.582 124.086C179.491 123.935 179.466 123.763 179.508 123.57C179.55 123.376 179.649 123.232 179.807 123.136C179.909 123.074 180.02 123.049 180.14 123.061C180.307 123.09 180.508 123.09 180.743 123.06C180.981 123.037 181.22 122.991 181.458 122.921C181.701 122.859 181.911 122.773 182.089 122.666C182.383 122.487 182.61 122.299 182.77 122.099C182.923 121.903 183.011 121.71 183.035 121.517C183.059 121.325 183.019 121.144 182.915 120.973C182.791 120.767 182.629 120.631 182.43 120.565C182.228 120.51 181.989 120.509 181.714 120.564C181.442 120.625 181.131 120.721 180.779 120.85C180.322 121.023 179.909 121.152 179.539 121.236C179.162 121.324 178.821 121.348 178.517 121.308C178.216 121.275 177.94 121.166 177.688 120.982C177.44 120.805 177.211 120.542 176.999 120.193C176.73 119.748 176.621 119.29 176.673 118.819C176.724 118.349 176.9 117.905 177.2 117.49C177.493 117.078 177.873 116.732 178.338 116.45Z" fill="#618A54"/>
<path d="M177.595 126.072C177.42 126.15 177.237 126.154 177.047 126.081C176.852 126.02 176.712 125.894 176.627 125.704L173.783 119.378C173.698 119.189 173.695 118.997 173.774 118.803C173.857 118.617 173.99 118.483 174.172 118.401C174.377 118.309 174.569 118.297 174.748 118.365C174.931 118.441 175.066 118.573 175.151 118.763L177.995 125.089C178.08 125.279 178.085 125.465 178.01 125.648C177.937 125.839 177.799 125.98 177.595 126.072ZM172.746 128.252C172.542 128.343 172.348 128.352 172.165 128.276C171.985 128.208 171.853 128.079 171.768 127.889L168.923 121.563C168.838 121.373 168.832 121.183 168.904 120.993C168.972 120.813 169.112 120.676 169.324 120.58C169.499 120.502 169.684 120.493 169.878 120.555C170.068 120.627 170.206 120.758 170.292 120.948L173.136 127.274C173.221 127.464 173.222 127.652 173.139 127.838C173.06 128.032 172.929 128.17 172.746 128.252ZM176.196 122.872L171.314 125.067L170.749 123.808L175.63 121.613L176.196 122.872Z" fill="#618A54"/>
<path d="M164.217 130.319C164.04 130.368 163.862 130.343 163.685 130.243C163.502 130.153 163.382 130.004 163.323 129.796C163.304 129.726 163.295 129.65 163.297 129.566C163.293 129.493 163.304 129.415 163.331 129.332L164.906 124.844L164.921 125.699L163.995 122.382C163.939 122.182 163.961 121.993 164.061 121.815C164.155 121.648 164.291 121.539 164.468 121.49C164.661 121.436 164.845 121.455 165.02 121.548C165.19 121.65 165.303 121.801 165.359 122.001L166.259 125.226L166.063 124.882L169.486 127.502C169.591 127.581 169.672 127.662 169.728 127.746C169.785 127.83 169.824 127.91 169.845 127.987C169.904 128.195 169.87 128.388 169.745 128.564C169.619 128.74 169.472 128.852 169.303 128.899C169.087 128.959 168.868 128.904 168.646 128.733L165.572 126.29L165.908 126.246L164.698 129.81C164.601 130.087 164.44 130.256 164.217 130.319Z" fill="#618A54"/>
<path d="M159.798 122.164C160.019 122.13 160.227 122.166 160.422 122.273C160.618 122.389 160.732 122.549 160.764 122.755L161.828 129.609C161.86 129.814 161.819 129.995 161.705 130.15C161.585 130.314 161.422 130.412 161.217 130.444L157.802 130.974C157.39 131.038 156.99 130.987 156.6 130.821C156.203 130.664 155.864 130.409 155.582 130.056C155.302 129.711 155.123 129.289 155.046 128.791C154.999 128.491 155.017 128.189 155.099 127.884C155.174 127.581 155.3 127.299 155.478 127.036C155.648 126.775 155.853 126.561 156.095 126.394L156.125 126.669C155.885 126.584 155.681 126.47 155.513 126.326C155.339 126.192 155.197 126.035 155.089 125.858C154.973 125.69 154.891 125.5 154.842 125.289C154.78 125.096 154.733 124.926 154.702 124.777C154.663 124.629 154.62 124.506 154.572 124.408C154.516 124.311 154.433 124.243 154.322 124.204C154.132 124.128 154.002 123.995 153.932 123.803C153.855 123.621 153.872 123.444 153.983 123.273C154.054 123.157 154.154 123.072 154.284 123.02C154.414 122.975 154.549 122.954 154.687 122.957C154.826 122.968 154.943 122.99 155.037 123.024C155.184 123.083 155.336 123.176 155.494 123.306C155.653 123.443 155.796 123.635 155.923 123.883C156.043 124.131 156.135 124.461 156.198 124.872C156.219 125.006 156.262 125.125 156.327 125.229C156.392 125.34 156.475 125.428 156.574 125.494C156.675 125.567 156.795 125.613 156.936 125.632C157.077 125.659 157.239 125.658 157.421 125.629L159.816 125.258L159.681 125.558L159.281 122.985C159.249 122.779 159.278 122.597 159.366 122.437C159.456 122.286 159.6 122.195 159.798 122.164ZM159.994 126.481L157.231 126.91C157.089 126.932 156.96 127.017 156.846 127.164C156.732 127.319 156.649 127.514 156.596 127.749C156.545 127.992 156.54 128.248 156.582 128.516C156.636 128.864 156.776 129.138 157.001 129.338C157.22 129.547 157.436 129.635 157.649 129.602L160.388 129.176L160.305 129.578L159.784 126.222L159.994 126.481Z" fill="#618A54"/>
<path d="M151.802 123.295C151.798 123.087 151.871 122.909 152.02 122.762C152.169 122.623 152.344 122.552 152.544 122.548C152.768 122.544 152.949 122.608 153.088 122.742C153.226 122.883 153.298 123.058 153.302 123.266L153.436 130.2C153.44 130.408 153.371 130.582 153.23 130.72C153.088 130.867 152.906 130.943 152.682 130.947C152.49 130.951 152.32 130.882 152.174 130.741C152.019 130.608 151.94 130.437 151.936 130.229L151.802 123.295Z" fill="#618A54"/>
<path d="M148.236 123.1C148.245 122.892 148.329 122.72 148.487 122.582C148.644 122.453 148.823 122.392 149.023 122.401C149.247 122.41 149.423 122.486 149.554 122.627C149.683 122.777 149.744 122.956 149.735 123.164L149.441 130.093C149.432 130.301 149.353 130.47 149.203 130.6C149.053 130.738 148.866 130.802 148.642 130.792C148.45 130.784 148.286 130.705 148.148 130.555C148.002 130.413 147.933 130.238 147.942 130.03L148.236 123.1Z" fill="#618A54"/>
<path d="M138.473 129.378C138.062 129.311 137.699 129.13 137.382 128.835C137.058 128.539 136.818 128.172 136.662 127.733C136.507 127.294 136.47 126.826 136.551 126.329C136.631 125.839 136.814 125.411 137.101 125.045C137.387 124.678 137.732 124.402 138.135 124.216C138.529 124.037 138.932 123.982 139.342 124.048L141.521 124.404L141.368 124.598L141.768 122.146C141.802 121.941 141.893 121.778 142.043 121.656C142.191 121.542 142.368 121.502 142.573 121.536C142.77 121.568 142.921 121.662 143.026 121.816C143.129 121.979 143.164 122.163 143.13 122.368L142.014 129.214C141.98 129.419 141.885 129.578 141.729 129.69C141.564 129.809 141.379 129.852 141.173 129.819L138.473 129.378ZM139.122 125.399C138.972 125.374 138.816 125.414 138.653 125.517C138.49 125.62 138.345 125.762 138.218 125.944C138.09 126.134 138.008 126.34 137.972 126.561C137.935 126.79 137.947 127.011 138.01 127.223C138.072 127.436 138.165 127.613 138.288 127.755C138.409 127.905 138.545 127.992 138.695 128.016L140.898 128.375L140.721 128.565L141.214 125.545L141.313 125.756L139.122 125.399Z" fill="#618A54"/>
<path d="M128.276 121.989C128.442 121.412 128.693 120.901 129.028 120.457C129.364 120.012 129.764 119.648 130.228 119.366C130.683 119.088 131.183 118.912 131.729 118.836C132.268 118.757 132.822 118.8 133.391 118.963C133.959 119.127 134.451 119.385 134.866 119.737C135.281 120.089 135.611 120.504 135.857 120.983C136.092 121.467 136.234 121.986 136.283 122.541C136.332 123.096 136.273 123.662 136.107 124.239C135.942 124.815 135.691 125.326 135.355 125.771C135.019 126.215 134.624 126.576 134.17 126.853C133.706 127.136 133.204 127.317 132.666 127.395C132.127 127.473 131.573 127.431 131.004 127.267C130.435 127.104 129.944 126.846 129.529 126.494C129.106 126.139 128.777 125.72 128.542 125.236C128.296 124.758 128.149 124.241 128.101 123.686C128.052 123.131 128.11 122.565 128.276 121.989ZM129.775 122.419C129.627 122.934 129.598 123.429 129.686 123.904C129.772 124.387 129.96 124.803 130.251 125.153C130.542 125.503 130.925 125.746 131.402 125.883C131.879 126.02 132.333 126.018 132.765 125.875C133.197 125.733 133.577 125.484 133.904 125.129C134.223 124.771 134.458 124.331 134.608 123.808C134.756 123.293 134.791 122.795 134.712 122.315C134.624 121.84 134.435 121.427 134.144 121.078C133.853 120.728 133.47 120.484 132.993 120.347C132.516 120.21 132.062 120.213 131.63 120.355C131.198 120.497 130.818 120.746 130.491 121.102C130.162 121.465 129.924 121.904 129.775 122.419Z" fill="#618A54"/>
<path d="M126.85 115.853C127.359 116.086 127.788 116.358 128.139 116.669C128.486 116.986 128.772 117.39 128.996 117.88C129.054 118.003 129.085 118.128 129.089 118.253C129.093 118.378 129.072 118.491 129.025 118.593C128.949 118.761 128.824 118.879 128.651 118.95C128.467 119.024 128.284 119.019 128.102 118.936C127.964 118.872 127.861 118.772 127.792 118.635C127.619 118.283 127.424 117.987 127.209 117.747C126.986 117.504 126.674 117.291 126.274 117.107C126.005 116.984 125.74 116.911 125.478 116.887C125.212 116.871 124.979 116.9 124.777 116.975C124.572 117.057 124.428 117.189 124.345 117.371C124.245 117.589 124.225 117.805 124.286 118.017C124.347 118.23 124.488 118.449 124.711 118.674C124.93 118.907 125.233 119.147 125.621 119.395C125.987 119.634 126.292 119.879 126.537 120.132C126.779 120.393 126.96 120.66 127.08 120.936C127.189 121.215 127.238 121.501 127.227 121.795C127.212 122.096 127.133 122.403 126.989 122.716C126.773 123.189 126.468 123.537 126.074 123.762C125.674 123.983 125.226 124.086 124.732 124.07C124.237 124.054 123.739 123.932 123.237 123.701C122.764 123.485 122.361 123.212 122.028 122.883C121.684 122.558 121.435 122.228 121.281 121.893C121.147 121.629 121.129 121.388 121.229 121.17C121.303 121.01 121.431 120.893 121.615 120.819C121.799 120.745 121.974 120.746 122.141 120.823C122.25 120.873 122.334 120.95 122.391 121.056C122.461 121.211 122.573 121.377 122.73 121.555C122.883 121.739 123.055 121.911 123.247 122.069C123.435 122.234 123.623 122.36 123.812 122.447C124.125 122.59 124.409 122.672 124.664 122.692C124.911 122.709 125.121 122.673 125.294 122.585C125.466 122.497 125.594 122.362 125.677 122.18C125.777 121.962 125.799 121.752 125.742 121.55C125.674 121.352 125.541 121.154 125.341 120.957C125.137 120.767 124.884 120.562 124.579 120.343C124.179 120.063 123.841 119.794 123.564 119.534C123.279 119.272 123.068 119.003 122.93 118.729C122.788 118.462 122.723 118.172 122.734 117.86C122.742 117.556 122.831 117.218 123.001 116.847C123.218 116.374 123.535 116.027 123.954 115.805C124.372 115.584 124.838 115.48 125.35 115.495C125.855 115.507 126.355 115.626 126.85 115.853Z" fill="#618A54"/>
<path d="M121.123 112.4C121.314 112.517 121.435 112.672 121.486 112.863C121.534 113.061 121.503 113.249 121.393 113.426L117.744 119.352L116.416 118.534L120.065 112.608C120.174 112.431 120.331 112.321 120.536 112.278C120.73 112.238 120.926 112.278 121.123 112.4ZM119.7 119.768C119.878 119.877 119.994 120.024 120.049 120.208C120.098 120.389 120.068 120.567 119.959 120.744C119.85 120.922 119.706 121.026 119.527 121.056C119.337 121.09 119.154 121.052 118.977 120.943L114.44 118.149C114.263 118.04 114.15 117.895 114.101 117.715C114.046 117.531 114.073 117.35 114.182 117.173C114.291 116.996 114.44 116.89 114.63 116.857C114.809 116.826 114.987 116.865 115.164 116.974L119.7 119.768Z" fill="#618A54"/>
<path d="M107.207 105.835C107.607 105.389 108.055 105.038 108.551 104.785C109.047 104.531 109.566 104.378 110.107 104.326C110.637 104.274 111.164 104.333 111.689 104.503C112.208 104.667 112.687 104.947 113.128 105.342C113.569 105.738 113.899 106.184 114.119 106.682C114.339 107.18 114.455 107.697 114.467 108.235C114.468 108.773 114.37 109.303 114.171 109.823C113.973 110.344 113.674 110.828 113.273 111.274C112.873 111.721 112.425 112.071 111.929 112.325C111.433 112.579 110.92 112.731 110.39 112.783C109.849 112.835 109.319 112.779 108.8 112.615C108.281 112.45 107.802 112.171 107.361 111.776C106.92 111.38 106.59 110.934 106.37 110.436C106.144 109.933 106.031 109.412 106.03 108.874C106.017 108.336 106.11 107.807 106.308 107.287C106.507 106.766 106.806 106.282 107.207 105.835ZM108.368 106.877C108.01 107.276 107.768 107.708 107.64 108.174C107.507 108.646 107.495 109.103 107.604 109.544C107.713 109.986 107.953 110.372 108.322 110.703C108.691 111.034 109.101 111.23 109.552 111.291C110.003 111.351 110.453 111.292 110.902 111.115C111.346 110.932 111.749 110.638 112.112 110.233C112.47 109.834 112.718 109.401 112.857 108.935C112.984 108.469 112.994 108.015 112.885 107.574C112.775 107.132 112.536 106.746 112.167 106.415C111.798 106.083 111.388 105.888 110.937 105.827C110.486 105.767 110.036 105.825 109.587 106.003C109.132 106.186 108.726 106.478 108.368 106.877Z" fill="#618A54"/>
<path d="M109.69 101.265C109.833 101.438 109.898 101.623 109.885 101.821C109.86 102.017 109.768 102.182 109.608 102.315L104.262 106.734C104.102 106.867 103.926 106.924 103.734 106.906C103.532 106.887 103.364 106.797 103.232 106.637L100.746 103.631C100.614 103.471 100.557 103.295 100.575 103.103C100.582 102.911 100.665 102.748 100.826 102.616C100.961 102.503 101.127 102.459 101.324 102.484C101.515 102.502 101.677 102.591 101.81 102.751L103.874 105.249L103.695 105.257L105.554 103.72L105.487 103.884L103.782 101.822C103.649 101.662 103.592 101.486 103.61 101.294C103.617 101.102 103.701 100.939 103.861 100.807C103.997 100.694 104.163 100.65 104.359 100.675C104.551 100.693 104.713 100.782 104.845 100.943L106.566 103.023L106.414 103.009L108.652 101.158C108.812 101.026 108.996 100.972 109.204 100.998C109.401 101.022 109.563 101.111 109.69 101.265Z" fill="#618A54"/>
<path d="M105.991 95.8831C106.113 96.0712 106.156 96.2627 106.12 96.4574C106.073 96.6498 105.962 96.8025 105.787 96.9155L99.9628 100.682C99.7881 100.795 99.6067 100.831 99.4187 100.791C99.2196 100.748 99.0635 100.639 98.9506 100.464L96.8329 97.1895C96.72 97.0148 96.6837 96.8334 96.7241 96.6454C96.7533 96.455 96.8553 96.3033 97.03 96.1903C97.1778 96.0948 97.3479 96.0705 97.5403 96.1176C97.7283 96.158 97.8788 96.2655 97.9918 96.4401L99.7511 99.1609L99.5715 99.1484L101.597 97.8387L101.512 97.9939L100.059 95.7468C99.9456 95.5721 99.9093 95.3908 99.9496 95.2027C99.9789 95.0123 100.081 94.8606 100.256 94.7477C100.403 94.6521 100.573 94.6279 100.766 94.6749C100.954 94.7153 101.104 94.8228 101.217 94.9975L102.683 97.2648L102.534 97.2327L104.973 95.6558C105.147 95.5429 105.336 95.5112 105.54 95.5606C105.732 95.6077 105.883 95.7152 105.991 95.8831Z" fill="#618A54"/>
<path d="M101.947 89.6827C102.134 89.5918 102.326 89.5833 102.522 89.657C102.711 89.7343 102.849 89.8629 102.936 90.0428C103.034 90.2443 103.052 90.4359 102.989 90.6177C102.919 90.8029 102.79 90.941 102.603 91.0319L96.3642 94.063C96.1771 94.1539 95.991 94.1643 95.8057 94.0942C95.6133 94.0276 95.4681 93.8936 95.3702 93.6921C95.2863 93.5194 95.2776 93.3368 95.3442 93.1444C95.4001 92.9482 95.5216 92.8047 95.7087 92.7138L101.947 89.6827Z" fill="#618A54"/>
<path d="M92.3375 85.3364C92.354 85.1044 92.4596 84.9308 92.6543 84.8155C92.846 84.6928 93.0559 84.6665 93.284 84.7365C93.4569 84.7775 93.5828 84.8725 93.6619 85.0216C93.7379 85.1633 93.7711 85.3271 93.7615 85.5129C93.7536 85.724 93.7689 85.9385 93.8072 86.1564C93.8424 86.3669 93.9044 86.5794 93.9932 86.7937C94.1585 87.1928 94.3698 87.5253 94.6271 87.7911C94.8813 88.0494 95.1726 88.2405 95.501 88.3643C95.8219 88.4911 96.1658 88.5479 96.5326 88.5345C96.8963 88.5137 97.2704 88.4237 97.6547 88.2646C98.1056 88.0778 98.4713 87.8527 98.7518 87.5893C99.0293 87.3185 99.2315 87.0227 99.3583 86.7017C99.4852 86.3807 99.5397 86.0421 99.522 85.6857C99.4969 85.3325 99.4094 84.9747 99.2594 84.6126C99.1767 84.413 99.0756 84.2211 98.956 84.0368C98.8364 83.8526 98.6903 83.688 98.5176 83.543C98.3794 83.4184 98.2908 83.2776 98.2518 83.1206C98.2097 82.9562 98.2337 82.7947 98.3239 82.6361C98.4474 82.4118 98.6182 82.2804 98.8361 82.2421C99.0436 82.1995 99.2299 82.2522 99.3951 82.4002C99.5708 82.5526 99.7348 82.7185 99.887 82.8979C100.029 83.073 100.157 83.2578 100.273 83.4526C100.395 83.6442 100.501 83.8472 100.59 84.0615C100.81 84.5937 100.935 85.1352 100.964 85.686C100.99 86.2295 100.915 86.7585 100.738 87.2732C100.559 87.7806 100.266 88.2439 99.8591 88.6634C99.4453 89.0859 98.9095 89.4334 98.2517 89.7058C97.6826 89.9415 97.118 90.0628 96.558 90.0696C95.9949 90.069 95.4662 89.9633 94.9719 89.7524C94.4671 89.5372 94.0176 89.2255 93.6234 88.8172C93.2218 88.4121 92.9016 87.9213 92.6628 87.3447C92.5281 87.0195 92.4334 86.6864 92.3788 86.3454C92.3241 86.0043 92.3104 85.668 92.3375 85.3364Z" fill="#618A54"/>
<path d="M91.4235 82.1086L90.4015 78.2207C90.3486 78.0195 90.3707 77.8359 90.4676 77.6697C90.5548 77.4979 90.699 77.3856 90.9002 77.3327C91.0936 77.2819 91.2705 77.3098 91.4309 77.4165C91.5815 77.5176 91.6833 77.6687 91.7362 77.8698L92.5904 81.1194L92.3656 81.0668L94.6287 80.4719L94.5603 80.5892L93.8464 77.8735C93.7936 77.6723 93.8156 77.4887 93.9126 77.3225C93.9997 77.1507 94.1439 77.0384 94.3451 76.9855C94.5385 76.9347 94.7154 76.9626 94.8758 77.0693C95.0265 77.1704 95.1282 77.3215 95.1811 77.5226L95.8858 80.2035L95.7777 80.1699L98.1221 79.5537L98.042 79.674L97.1909 76.436C97.138 76.2348 97.1639 76.0502 97.2686 75.882C97.3635 75.7082 97.5 75.5979 97.6779 75.5511C97.8713 75.5002 98.0483 75.5282 98.2087 75.6349C98.367 75.7339 98.4727 75.884 98.5255 76.0851L99.5475 79.9731C99.6004 80.1742 99.5794 80.3617 99.4845 80.5356C99.3798 80.7037 99.2268 80.8142 99.0257 80.8671L92.3176 82.6304C92.1164 82.6833 91.9328 82.6613 91.7666 82.5643C91.5908 82.4617 91.4764 82.3097 91.4235 82.1086Z" fill="#618A54"/>
<path d="M89.6862 64.2745C89.6751 63.6986 89.7732 63.1846 89.9805 62.7325C90.1878 62.2805 90.4845 61.8987 90.8706 61.5871C91.2485 61.2678 91.6919 61.0272 92.2009 60.8653C92.7017 60.6956 93.24 60.6052 93.8159 60.5941C94.5918 60.5791 95.3024 60.7055 95.9476 60.973C96.5849 61.2408 97.0967 61.639 97.483 62.1676C97.8691 62.6883 98.0697 63.3365 98.0846 64.1124L98.14 66.9799C98.144 67.1878 98.0794 67.3651 97.9462 67.5117C97.8049 67.6505 97.6302 67.7218 97.4222 67.7259L90.4875 67.8597C90.2796 67.8637 90.1063 67.7991 89.9677 67.6657C89.8209 67.5245 89.7456 67.3499 89.7415 67.142L89.6862 64.2745ZM96.7072 64.259C96.6975 63.7551 96.5615 63.3456 96.2994 63.0306C96.0293 62.7158 95.6809 62.4905 95.2542 62.3547C94.8193 62.2111 94.3499 62.1441 93.846 62.1538C93.4701 62.1611 93.115 62.2119 92.7808 62.3064C92.4384 62.393 92.1409 62.5268 91.8884 62.7077C91.6278 62.8888 91.4242 63.1167 91.2775 63.3916C91.1307 63.6665 91.061 63.9919 91.0683 64.3678L91.1088 66.4675L90.9985 66.3496L96.8774 66.2361L96.7468 66.3106L96.7072 64.259Z" fill="#618A54"/>
<path d="M90.5183 57.5611L91.0434 53.5755C91.0706 53.3693 91.1605 53.2077 91.3131 53.0906C91.4588 52.9646 91.6347 52.9151 91.841 52.9423C92.0392 52.9684 92.1924 53.0612 92.3005 53.2207C92.4017 53.3712 92.4388 53.5496 92.4116 53.7558L91.9727 57.087L91.7845 56.9533L94.1045 57.2589L93.9968 57.3416L94.3636 54.5576C94.3907 54.3514 94.4806 54.1898 94.6332 54.0727C94.7789 53.9467 94.9549 53.8972 95.1611 53.9244C95.3594 53.9505 95.5126 54.0433 95.6207 54.2028C95.7219 54.3533 95.7589 54.5317 95.7317 54.7379L95.3697 57.4862L95.2823 57.4141L97.6855 57.7308L97.5659 57.8118L98.0033 54.4925C98.0304 54.2863 98.1243 54.1252 98.2848 54.0092C98.4385 53.8842 98.6065 53.8337 98.7889 53.8577C98.9872 53.8838 99.1404 53.9766 99.2485 54.1361C99.3576 54.2877 99.3986 54.4666 99.3714 54.6728L98.8463 58.6583C98.8192 58.8646 98.7287 59.0302 98.5751 59.1552C98.4146 59.2712 98.2312 59.3156 98.025 59.2885L91.1484 58.3824C90.9422 58.3553 90.7805 58.2654 90.6635 58.1128C90.5395 57.9512 90.4911 57.7673 90.5183 57.5611Z" fill="#618A54"/>
<path d="M99.8497 48.2491C99.901 48.0476 100.009 47.8977 100.175 47.7994C100.334 47.6915 100.515 47.6632 100.716 47.7146C100.91 47.7639 101.055 47.8752 101.152 48.0483C101.242 48.2117 101.262 48.3942 101.21 48.5957L100.247 52.375C100.196 52.5766 100.087 52.7303 99.9194 52.8363C99.7463 52.9325 99.5589 52.955 99.3574 52.9036L92.636 51.1913C92.4345 51.14 92.2856 51.0277 92.1893 50.8546C92.0853 50.6795 92.061 50.4835 92.1163 50.2664C92.1637 50.0803 92.2749 49.9353 92.45 49.8313C92.6194 49.7176 92.8048 49.6864 93.0064 49.7378L99.2742 51.3345L99.0113 51.54L99.8497 48.2491Z" fill="#618A54"/>
<path d="M95.6896 40.3284C95.9675 39.6125 96.3423 39.1444 96.8139 38.9241C97.2856 38.7038 97.8496 38.721 98.5059 38.9758C98.8564 39.1118 99.1326 39.3177 99.3345 39.5934C99.529 39.8663 99.6357 40.1994 99.6546 40.5929C99.666 40.9836 99.5762 41.425 99.3852 41.9172L98.8991 41.6771C98.9889 41.4459 99.1252 41.1941 99.3081 40.9219C99.4835 40.6467 99.7068 40.403 99.978 40.1907C100.245 39.9681 100.558 39.8237 100.918 39.7576C101.274 39.6812 101.676 39.7298 102.123 39.9035C102.616 40.0945 102.986 40.3328 103.236 40.6185C103.488 40.8967 103.65 41.1996 103.72 41.5272C103.79 41.8548 103.801 42.1808 103.752 42.5051C103.696 42.8266 103.615 43.1253 103.508 43.4013L102.426 46.1868C102.351 46.3807 102.224 46.5202 102.045 46.6053C101.862 46.6799 101.673 46.6796 101.479 46.6044L95.0131 44.0948C94.8192 44.0196 94.6834 43.8939 94.6058 43.7179C94.5237 43.5316 94.5203 43.3415 94.5955 43.1476L95.6896 40.3284ZM96.9316 41.0421L96.1587 43.0334L96.0362 42.8185L98.061 43.6044L97.9082 43.6996L98.6898 41.6859C98.7737 41.4696 98.7781 41.2482 98.703 41.0217C98.6278 40.7952 98.456 40.6298 98.1876 40.5256C97.8669 40.4011 97.6038 40.3934 97.3984 40.5025C97.1885 40.6012 97.0329 40.7811 96.9316 41.0421ZM100.032 42.1423L99.2413 44.1783L99.1909 44.0429L101.551 44.959L101.396 45.0275L102.221 42.902C102.354 42.5589 102.37 42.2519 102.269 41.9811C102.161 41.7074 101.924 41.4996 101.559 41.3578C101.223 41.2275 100.955 41.2006 100.754 41.2769C100.552 41.3533 100.397 41.4774 100.287 41.6494C100.178 41.8214 100.092 41.9857 100.032 42.1423Z" fill="#618A54"/>
<path d="M98.5032 35.3384L100.458 31.8257C100.559 31.6439 100.702 31.5267 100.887 31.474C101.069 31.4104 101.251 31.4291 101.432 31.5303C101.607 31.6275 101.716 31.7702 101.757 31.9583C101.796 32.1355 101.765 32.3149 101.664 32.4967L100.03 35.4327L99.9042 35.2392L101.949 36.377L101.818 36.4142L103.184 33.9605C103.285 33.7787 103.428 33.6615 103.613 33.6088C103.795 33.5452 103.977 33.564 104.158 33.6651C104.333 33.7624 104.441 33.905 104.483 34.0931C104.522 34.2703 104.491 34.4497 104.39 34.6315L103.042 37.0537L102.987 36.9546L105.105 38.1333L104.964 38.1647L106.592 35.2391C106.693 35.0573 106.84 34.9421 107.032 34.8932C107.221 34.8335 107.395 34.8484 107.556 34.9379C107.731 35.0351 107.839 35.1778 107.881 35.3659C107.927 35.5469 107.899 35.7284 107.798 35.9101L105.843 39.4229C105.742 39.6046 105.597 39.7254 105.408 39.7851C105.216 39.8339 105.029 39.8077 104.848 39.7066L98.7869 36.334C98.6051 36.2329 98.4879 36.0898 98.4352 35.9048C98.3794 35.709 98.402 35.5202 98.5032 35.3384Z" fill="#618A54"/>
<path d="M109.503 34.0274C109.372 34.209 109.2 34.3314 108.987 34.3945C108.767 34.4529 108.573 34.4213 108.404 34.2995L102.78 30.2399C102.612 30.1182 102.512 29.9624 102.481 29.7725C102.449 29.5715 102.493 29.3866 102.615 29.218L104.638 26.4158C104.881 26.0785 105.199 25.8294 105.592 25.6686C105.982 25.4967 106.402 25.4346 106.851 25.4824C107.293 25.5255 107.719 25.6946 108.127 25.9896C108.374 26.1675 108.577 26.3927 108.735 26.665C108.898 26.9309 109.011 27.2193 109.073 27.5302C109.139 27.8346 109.147 28.1313 109.096 28.4203L108.879 28.249C109.108 28.1377 109.332 28.0727 109.553 28.0543C109.771 28.0247 109.982 28.0337 110.184 28.0812C110.385 28.1175 110.578 28.1924 110.762 28.3059C110.943 28.397 111.098 28.4838 111.225 28.5663C111.358 28.6422 111.476 28.6977 111.579 28.7326C111.687 28.7611 111.794 28.7495 111.9 28.698C112.087 28.6161 112.274 28.6175 112.459 28.7021C112.643 28.7756 112.757 28.9119 112.8 29.1112C112.833 29.2434 112.823 29.374 112.769 29.503C112.709 29.6273 112.629 29.7376 112.53 29.8338C112.425 29.9254 112.327 29.9928 112.236 30.036C112.092 30.0995 111.918 30.1419 111.716 30.1632C111.506 30.1798 111.269 30.1465 111.003 30.0634C110.742 29.9737 110.443 29.8071 110.106 29.5637C109.996 29.4841 109.881 29.4309 109.762 29.4043C109.637 29.373 109.516 29.3696 109.399 29.3941C109.277 29.414 109.159 29.4673 109.047 29.5542C108.929 29.6364 108.816 29.7521 108.708 29.9012L107.289 31.8667L107.171 31.5592L109.282 33.0833C109.451 33.205 109.561 33.3535 109.612 33.5285C109.657 33.699 109.62 33.8652 109.503 34.0274ZM106.294 31.1335L107.93 28.8665C108.015 28.7497 108.045 28.5987 108.021 28.4136C107.99 28.2237 107.909 28.0275 107.779 27.8251C107.643 27.6179 107.464 27.4347 107.244 27.2755C106.958 27.0695 106.665 26.9765 106.365 26.9963C106.062 27.0051 105.848 27.097 105.722 27.2721L104.099 29.5197L103.872 29.1782L106.626 31.1659L106.294 31.1335Z" fill="#618A54"/>
<path d="M115.819 26.9793C115.665 27.1416 115.489 27.2282 115.291 27.2389C115.087 27.244 114.91 27.175 114.759 27.0317L109.714 22.237L110.789 21.1062L115.834 25.9009C115.985 26.0442 116.06 26.2205 116.06 26.4299C116.059 26.628 115.979 26.8111 115.819 26.9793ZM108.903 24.0655C108.76 24.2163 108.593 24.2998 108.401 24.316C108.214 24.3264 108.045 24.26 107.895 24.1167C107.744 23.9734 107.672 23.8111 107.679 23.6299C107.685 23.4373 107.76 23.2656 107.903 23.1149L111.574 19.2528C111.717 19.102 111.882 19.0215 112.068 19.0111C112.26 18.9948 112.432 19.0584 112.582 19.2017C112.733 19.345 112.805 19.5129 112.799 19.7055C112.792 19.8867 112.717 20.0527 112.574 20.2035L108.903 24.0655Z" fill="#618A54"/>
<path d="M120.791 23.0781C120.354 23.4401 119.88 23.6707 119.37 23.7702C118.867 23.8645 118.386 23.8417 117.928 23.7016C117.476 23.5565 117.104 23.3082 116.814 22.9567C116.559 22.6484 116.379 22.3246 116.275 21.9851C116.172 21.6344 116.147 21.2712 116.2 20.8955C116.258 20.5147 116.401 20.1163 116.628 19.7003L117.969 19.8529C117.614 20.3023 117.441 20.6837 117.451 20.9971C117.463 21.2993 117.58 21.5861 117.805 21.8574C117.957 22.0423 118.154 22.186 118.394 22.2883C118.63 22.3845 118.9 22.4045 119.207 22.3483C119.508 22.286 119.835 22.1095 120.186 21.819C120.476 21.5794 120.681 21.3005 120.802 20.9824C120.925 20.6531 120.98 20.3117 120.968 19.9583C120.957 19.5936 120.894 19.2353 120.78 18.8835C120.667 18.5205 120.514 18.185 120.321 17.8769C120.252 17.7681 120.225 17.6604 120.241 17.554C120.263 17.4424 120.351 17.3229 120.505 17.1955C120.666 17.0629 120.845 17.0232 121.045 17.0762C121.244 17.1292 121.403 17.2522 121.521 17.4452C121.772 17.861 121.965 18.314 122.1 18.8041C122.236 19.283 122.292 19.777 122.266 20.2859C122.242 20.7836 122.113 21.2743 121.88 21.7579C121.647 22.2302 121.285 22.6703 120.791 23.0781ZM124.023 20.282C123.949 20.3431 123.876 20.3874 123.805 20.4148C123.741 20.4371 123.683 20.4486 123.632 20.4495C122.872 20.4342 122.174 20.4192 121.539 20.4045C120.905 20.3785 120.312 20.345 119.759 20.3039C119.206 20.2628 118.666 20.2003 118.14 20.1163C117.72 20.0481 117.34 19.9893 116.998 19.9398C116.656 19.8904 116.353 19.819 116.089 19.7258C115.826 19.6214 115.6 19.4551 115.412 19.2269C115.162 18.9248 115.01 18.578 114.956 18.1865C114.904 17.7838 114.962 17.3774 115.132 16.9673C115.296 16.551 115.585 16.1721 115.998 15.8306C116.423 15.4788 116.864 15.2337 117.321 15.0951C117.783 14.9514 118.17 14.9483 118.481 15.0858C118.492 15.0868 118.54 15.1142 118.626 15.1678C118.707 15.2152 118.786 15.2851 118.862 15.3776C118.959 15.4948 119 15.6322 118.985 15.7899C118.97 15.9476 118.889 16.0876 118.741 16.2099C118.642 16.2915 118.55 16.3367 118.463 16.3456C118.377 16.3545 118.304 16.3532 118.242 16.3417C117.959 16.275 117.7 16.2817 117.465 16.3617C117.231 16.4305 116.997 16.5617 116.763 16.7554C116.485 16.9848 116.334 17.2346 116.308 17.505C116.288 17.7702 116.363 18.0045 116.531 18.208C116.689 18.3991 116.915 18.5342 117.209 18.6132C117.497 18.686 117.797 18.7342 118.107 18.758C118.423 18.7766 118.694 18.8022 118.918 18.8349C119.277 18.8803 119.671 18.9233 120.099 18.9639C120.528 18.9932 120.954 19.0194 121.378 19.0426C121.797 19.0596 122.188 19.0795 122.549 19.1024C122.912 19.1141 123.209 19.128 123.44 19.1443C123.581 19.152 123.701 19.1775 123.799 19.2209C123.904 19.2593 123.999 19.3308 124.086 19.4356C124.152 19.5158 124.197 19.645 124.219 19.8233C124.248 19.9965 124.183 20.1494 124.023 20.282Z" fill="#618A54"/>
<path d="M127.018 19.1342C126.544 19.4313 126.08 19.6411 125.628 19.7635C125.172 19.8792 124.678 19.8961 124.145 19.8142C124.01 19.7948 123.89 19.7525 123.783 19.6873C123.676 19.622 123.593 19.542 123.533 19.447C123.436 19.2911 123.405 19.1215 123.441 18.9383C123.48 18.7441 123.584 18.5939 123.754 18.4878C123.883 18.4071 124.023 18.3757 124.176 18.3934C124.565 18.4423 124.919 18.4424 125.238 18.3939C125.564 18.3411 125.913 18.1979 126.286 17.9645C126.537 17.8074 126.744 17.6258 126.908 17.4196C127.067 17.2066 127.171 16.9954 127.219 16.7859C127.263 16.5696 127.232 16.3767 127.126 16.2072C126.998 16.0038 126.829 15.8691 126.618 15.8031C126.407 15.7371 126.146 15.7352 125.835 15.7973C125.521 15.8526 125.153 15.9742 124.733 16.1619C124.333 16.3369 123.96 16.4571 123.614 16.5227C123.264 16.5814 122.941 16.5855 122.645 16.5348C122.351 16.4731 122.085 16.3567 121.845 16.1856C121.602 16.0077 121.389 15.7729 121.206 15.4814C120.931 15.0406 120.807 14.5942 120.835 14.1422C120.871 13.686 121.031 13.2555 121.315 12.8508C121.6 12.4461 121.976 12.0973 122.444 11.8044C122.885 11.5285 123.334 11.3416 123.792 11.2437C124.252 11.1349 124.665 11.1079 125.03 11.1627C125.324 11.1956 125.535 11.3137 125.662 11.5171C125.755 11.6663 125.783 11.838 125.744 12.0322C125.705 12.2265 125.607 12.3724 125.451 12.47C125.35 12.5337 125.239 12.5605 125.12 12.5504C124.952 12.5234 124.751 12.5265 124.517 12.5597C124.278 12.5862 124.041 12.636 123.803 12.7091C123.562 12.7754 123.353 12.8637 123.176 12.9741C122.885 13.1566 122.661 13.3489 122.504 13.5508C122.354 13.7485 122.268 13.9436 122.247 14.1361C122.226 14.3286 122.269 14.5096 122.375 14.6792C122.502 14.8826 122.666 15.016 122.866 15.0795C123.069 15.1319 123.308 15.1288 123.582 15.0701C123.853 15.0046 124.163 14.9047 124.513 14.7705C124.967 14.5904 125.378 14.4557 125.747 14.3664C126.122 14.2728 126.463 14.2437 126.768 14.2791C127.069 14.3077 127.347 14.4123 127.601 14.5927C127.852 14.7664 128.085 15.0261 128.302 15.3719C128.577 15.8127 128.693 16.2688 128.649 16.7404C128.604 17.2119 128.435 17.6576 128.141 18.0776C127.854 18.4933 127.479 18.8455 127.018 19.1342Z" fill="#618A54"/>
<path d="M127.831 9.36347C128.005 9.28214 128.188 9.2762 128.379 9.34564C128.575 9.40445 128.716 9.52807 128.805 9.71648L131.743 15.9995C131.831 16.1879 131.836 16.3795 131.76 16.5743C131.68 16.7619 131.549 16.8981 131.368 16.9828C131.165 17.0777 130.973 17.0923 130.792 17.0267C130.608 16.9539 130.472 16.8233 130.384 16.6349L127.446 10.3519C127.358 10.1635 127.35 9.97715 127.423 9.79296C127.492 9.60152 127.629 9.45836 127.831 9.36347ZM132.647 7.11165C132.85 7.01676 133.043 7.00573 133.228 7.07857C133.408 7.14416 133.543 7.27116 133.631 7.45957L136.569 13.7426C136.657 13.931 136.666 14.1209 136.597 14.3124C136.531 14.4932 136.394 14.6327 136.183 14.731C136.009 14.8123 135.825 14.8236 135.63 14.7648C135.438 14.6953 135.298 14.5664 135.21 14.378L132.272 8.09497C132.184 7.90655 132.18 7.71855 132.26 7.53097C132.337 7.33614 132.466 7.19636 132.647 7.11165ZM129.278 12.542L134.126 10.2749L134.711 11.525L129.863 13.792L129.278 12.542Z" fill="#618A54"/>
<path d="M141.109 4.92087C141.286 4.86872 141.463 4.89128 141.642 4.98856C141.827 5.0759 141.949 5.22315 142.011 5.43029C142.031 5.49934 142.041 5.57562 142.041 5.65914C142.046 5.73272 142.036 5.81084 142.01 5.89349L140.503 10.4056L140.475 9.55036L141.452 12.8531C141.511 13.0526 141.491 13.2418 141.394 13.4207C141.302 13.5897 141.168 13.7002 140.992 13.7524C140.8 13.8091 140.616 13.7926 140.439 13.703C140.268 13.6035 140.153 13.4539 140.094 13.2545L139.145 10.0438L139.346 10.3848L135.884 7.81669C135.778 7.73963 135.696 7.6596 135.638 7.57661C135.58 7.49361 135.539 7.41376 135.517 7.33704C135.456 7.1299 135.486 6.9373 135.609 6.75927C135.731 6.58123 135.877 6.46726 136.046 6.41738C136.261 6.35389 136.48 6.40575 136.705 6.57295L139.816 8.96952L139.48 9.01872L140.636 5.43616C140.729 5.15839 140.887 4.98662 141.109 4.92087Z" fill="#618A54"/>
<path d="M145.374 13.0479C145.153 13.0856 144.945 13.0523 144.748 12.9479C144.55 12.8357 144.434 12.677 144.399 12.472L143.23 5.63519C143.195 5.43017 143.233 5.24917 143.344 5.09219C143.462 4.92599 143.623 4.82535 143.828 4.7903L147.235 4.20783C147.645 4.13772 148.046 4.18273 148.439 4.34285C148.838 4.49374 149.181 4.7435 149.468 5.09214C149.753 5.4329 149.938 5.85167 150.023 6.34846C150.075 6.64811 150.061 6.95067 149.984 7.25612C149.914 7.56022 149.792 7.84482 149.618 8.1099C149.453 8.37364 149.25 8.59084 149.012 8.7615L148.977 8.48743C149.218 8.56796 149.424 8.67889 149.594 8.82022C149.771 8.95231 149.915 9.10624 150.026 9.28201C150.144 9.44855 150.229 9.63693 150.281 9.84714C150.346 10.0389 150.395 10.209 150.429 10.3575C150.47 10.5046 150.515 10.6267 150.565 10.7238C150.622 10.8196 150.706 10.8863 150.818 10.924C151.009 10.9969 151.141 11.1285 151.214 11.3189C151.294 11.5 151.279 11.677 151.171 11.8497C151.102 11.9671 151.003 12.053 150.874 12.1075C150.744 12.154 150.61 12.177 150.472 12.1762C150.333 12.1676 150.215 12.147 150.121 12.1146C149.973 12.0586 149.819 11.9672 149.66 11.8403C149.499 11.7055 149.353 11.5154 149.221 11.27C149.098 11.0233 149.001 10.6949 148.931 10.2848C148.908 10.1508 148.864 10.0326 148.798 9.9303C148.73 9.82011 148.646 9.733 148.546 9.66898C148.444 9.59707 148.323 9.55286 148.182 9.53635C148.04 9.51196 147.878 9.51527 147.697 9.54628L145.308 9.95481L145.439 9.65242L145.878 12.2192C145.913 12.4242 145.887 12.6071 145.801 12.7679C145.713 12.9209 145.571 13.0142 145.374 13.0479ZM145.111 8.73447L147.867 8.26324C148.009 8.23897 148.136 8.15229 148.249 8.0032C148.36 7.84623 148.44 7.64992 148.489 7.4143C148.537 7.17079 148.538 6.91497 148.492 6.64686C148.432 6.2999 148.289 6.02826 148.06 5.83193C147.838 5.62638 147.621 5.5418 147.408 5.57821L144.676 6.04539L144.753 5.64261L145.325 8.99004L145.111 8.73447Z" fill="#618A54"/>
<path d="M153.459 11.7489C153.466 11.9568 153.396 12.1353 153.249 12.2845C153.102 12.4257 152.928 12.4998 152.728 12.5067C152.505 12.5145 152.322 12.4528 152.182 12.3216C152.041 12.1824 151.967 12.0089 151.959 11.801L151.719 4.86918C151.711 4.6613 151.777 4.48691 151.917 4.34599C152.055 4.19707 152.237 4.11873 152.461 4.11095C152.653 4.10428 152.823 4.1704 152.972 4.30931C153.129 4.43995 153.21 4.60921 153.218 4.81708L153.459 11.7489Z" fill="#618A54"/>
<path d="M156.926 11.8745C156.921 12.0824 156.84 12.2563 156.684 12.3961C156.528 12.528 156.351 12.5912 156.151 12.5858C155.927 12.5798 155.749 12.5069 155.616 12.3673C155.484 12.2197 155.421 12.0419 155.427 11.834L155.614 4.90051C155.62 4.69258 155.696 4.52259 155.844 4.39053C155.992 4.25047 156.178 4.18347 156.402 4.18952C156.593 4.19471 156.759 4.27122 156.9 4.41906C157.048 4.55912 157.119 4.73311 157.114 4.94103L156.926 11.8745Z" fill="#618A54"/>
<path d="M166.686 5.42518C167.098 5.48585 167.464 5.66115 167.785 5.95108C168.114 6.24218 168.36 6.60588 168.522 7.04218C168.684 7.47849 168.728 7.94595 168.655 8.44456C168.582 8.93526 168.406 9.36609 168.125 9.73706C167.843 10.108 167.503 10.3894 167.103 10.581C166.711 10.766 166.31 10.8281 165.898 10.7675L163.714 10.4455L163.864 10.2493L163.502 12.7067C163.472 12.9125 163.383 13.0773 163.235 13.2011C163.089 13.317 162.913 13.3597 162.707 13.3294C162.509 13.3002 162.357 13.209 162.25 13.0558C162.144 12.8947 162.106 12.7113 162.137 12.5055L163.148 5.64362C163.179 5.43784 163.271 5.2776 163.425 5.16289C163.589 5.04142 163.773 4.99586 163.979 5.02619L166.686 5.42518ZM166.098 9.41408C166.248 9.43625 166.404 9.39451 166.565 9.28888C166.726 9.18325 166.869 9.0385 166.993 8.85464C167.118 8.66286 167.197 8.45617 167.23 8.23456C167.264 8.00504 167.248 7.78435 167.182 7.57249C167.116 7.36063 167.021 7.18484 166.896 7.04513C166.772 6.89749 166.635 6.8126 166.485 6.79043L164.277 6.46494L164.451 6.27225L164.004 9.29954L163.902 9.09034L166.098 9.41408Z" fill="#618A54"/>
<path d="M176.788 12.5757C176.631 13.1548 176.388 13.6692 176.059 14.1188C175.73 14.5684 175.336 14.9381 174.876 15.2279C174.426 15.5121 173.929 15.6964 173.383 15.7807C172.846 15.8672 172.292 15.833 171.72 15.6782C171.149 15.5233 170.653 15.2729 170.233 14.927C169.813 14.5811 169.477 14.1708 169.224 13.6962C168.981 13.216 168.831 12.6987 168.774 12.1445C168.717 11.5903 168.767 11.0237 168.924 10.4445C169.081 9.86543 169.324 9.35108 169.653 8.90149C169.982 8.45191 170.372 8.08502 170.822 7.80082C171.281 7.511 171.78 7.32286 172.317 7.23639C172.855 7.14992 173.409 7.18411 173.98 7.33895C174.552 7.4938 175.047 7.74419 175.468 8.09012C175.895 8.43815 176.231 8.85228 176.474 9.33252C176.726 9.80713 176.881 10.3215 176.938 10.8757C176.995 11.43 176.945 11.9966 176.788 12.5757ZM175.283 12.1677C175.423 11.6504 175.445 11.155 175.35 10.6815C175.256 10.2003 175.062 9.78701 174.766 9.44158C174.47 9.09614 174.082 8.85856 173.604 8.72882C173.125 8.59909 172.671 8.60859 172.241 8.75734C171.811 8.90608 171.435 9.16068 171.114 9.52114C170.8 9.8837 170.572 10.3275 170.43 10.8526C170.289 11.3699 170.262 11.8681 170.348 12.3472C170.443 12.8207 170.639 13.2301 170.935 13.5756C171.231 13.921 171.618 14.1586 172.097 14.2883C172.576 14.418 173.03 14.4085 173.46 14.2598C173.89 14.1111 174.266 13.8564 174.587 13.496C174.911 13.1278 175.142 12.685 175.283 12.1677Z" fill="#618A54"/>
<path d="M178.359 18.6389C177.847 18.4131 177.413 18.1476 177.058 17.8425C176.706 17.5301 176.414 17.1305 176.183 16.6439C176.123 16.5214 176.09 16.3977 176.084 16.2726C176.078 16.1475 176.098 16.0337 176.143 15.9312C176.217 15.7629 176.34 15.6423 176.512 15.5694C176.695 15.4925 176.877 15.4944 177.061 15.575C177.2 15.6363 177.305 15.7351 177.376 15.8713C177.554 16.2208 177.753 16.5139 177.972 16.7503C178.199 16.9901 178.513 17.1986 178.916 17.3761C179.187 17.4954 179.453 17.5649 179.716 17.5843C179.981 17.5965 180.214 17.5637 180.415 17.4859C180.618 17.4008 180.761 17.2667 180.841 17.0837C180.938 16.8641 180.954 16.6483 180.89 16.4365C180.826 16.2247 180.681 16.0079 180.456 15.7861C180.233 15.5569 179.926 15.3211 179.535 15.0786C179.165 14.8458 178.856 14.6048 178.608 14.3554C178.362 14.0986 178.178 13.8336 178.053 13.5603C177.939 13.2828 177.886 12.9971 177.893 12.703C177.904 12.4016 177.978 12.0935 178.117 11.7787C178.327 11.3029 178.627 10.9498 179.017 10.7195C179.414 10.4925 179.86 10.383 180.355 10.3912C180.849 10.3994 181.349 10.5148 181.854 10.7374C182.33 10.9471 182.737 11.2138 183.075 11.5377C183.424 11.8574 183.678 12.1836 183.837 12.5161C183.976 12.778 183.996 13.0188 183.899 13.2384C183.828 13.3995 183.702 13.5185 183.519 13.5954C183.337 13.6723 183.161 13.6737 182.993 13.5995C182.883 13.5511 182.799 13.4746 182.74 13.37C182.668 13.2159 182.553 13.0514 182.394 12.8764C182.238 12.6942 182.063 12.5254 181.869 12.37C181.679 12.2073 181.488 12.0841 181.298 12.0002C180.983 11.8615 180.698 11.784 180.443 11.7677C180.195 11.7547 179.986 11.7935 179.815 11.8843C179.644 11.975 179.518 12.1118 179.437 12.2948C179.34 12.5145 179.322 12.7249 179.382 12.9261C179.452 13.1233 179.589 13.319 179.792 13.5134C179.998 13.7003 180.255 13.901 180.563 14.1153C180.966 14.3893 181.309 14.6539 181.59 14.9089C181.878 15.1671 182.093 15.4324 182.236 15.7049C182.381 15.9701 182.451 16.2586 182.444 16.5705C182.441 16.8752 182.357 17.2141 182.193 17.5875C181.983 18.0633 181.671 18.4152 181.255 18.6432C180.84 18.8711 180.376 18.9814 179.864 18.9741C179.359 18.97 178.857 18.8583 178.359 18.6389Z" fill="#618A54"/>
<path d="M184.419 22.1149C184.226 22.0002 184.103 21.8477 184.049 21.6571C183.999 21.4597 184.027 21.2717 184.134 21.093L187.696 15.1135L189.036 15.9119L185.474 21.8913C185.367 22.07 185.212 22.1824 185.008 22.2283C184.814 22.2714 184.618 22.2336 184.419 22.1149ZM185.733 14.7267C185.554 14.6202 185.436 14.4751 185.378 14.2915C185.326 14.1119 185.354 13.9328 185.46 13.7541C185.567 13.5754 185.709 13.4693 185.887 13.4358C186.077 13.3995 186.261 13.4346 186.439 13.5411L191.017 16.2679C191.195 16.3743 191.31 16.5173 191.362 16.6969C191.42 16.8806 191.396 17.0618 191.289 17.2405C191.183 17.4192 191.035 17.5266 190.846 17.5629C190.668 17.5964 190.489 17.5599 190.31 17.4535L185.733 14.7267Z" fill="#618A54"/>
<path d="M198.495 28.5009C198.101 28.9534 197.658 29.3101 197.166 29.571C196.674 29.8319 196.157 29.9923 195.617 30.0524C195.088 30.1116 194.56 30.0603 194.033 29.8983C193.512 29.7415 193.028 29.4688 192.581 29.08C192.135 28.6913 191.798 28.2496 191.571 27.755C191.344 27.2604 191.221 26.7444 191.2 26.2071C191.192 25.6691 191.282 25.1383 191.473 24.6147C191.664 24.0912 191.956 23.6032 192.35 23.1507C192.744 22.6981 193.187 22.3415 193.679 22.0806C194.172 21.8197 194.682 21.6597 195.211 21.6004C195.751 21.5404 196.282 21.5887 196.803 21.7454C197.324 21.9022 197.808 22.1749 198.255 22.5637C198.701 22.9524 199.038 23.3941 199.265 23.8887C199.498 24.3886 199.619 24.9076 199.628 25.4456C199.648 25.9829 199.563 26.5133 199.372 27.0368C199.182 27.5604 198.889 28.0484 198.495 28.5009ZM197.319 27.4766C197.671 27.0723 197.907 26.6363 198.028 26.1687C198.154 25.695 198.159 25.2382 198.044 24.7982C197.928 24.3582 197.683 23.9754 197.309 23.6497C196.935 23.324 196.522 23.1343 196.07 23.0805C195.619 23.0266 195.17 23.0917 194.723 23.2757C194.283 23.465 193.884 23.7647 193.526 24.175C193.175 24.5793 192.933 25.0156 192.8 25.4841C192.68 25.9517 192.677 26.4055 192.793 26.8455C192.908 27.2855 193.153 27.6683 193.527 27.994C193.901 28.3197 194.314 28.5094 194.766 28.5632C195.217 28.6171 195.666 28.552 196.113 28.368C196.565 28.178 196.967 27.8808 197.319 27.4766Z" fill="#618A54"/>
<path d="M195.9 32.8725C195.754 32.7025 195.686 32.5186 195.696 32.3207C195.716 32.1237 195.806 31.9575 195.964 31.8221L201.228 27.3059C201.386 27.1704 201.56 27.1101 201.752 27.1247C201.955 27.1403 202.124 27.227 202.26 27.3848L204.799 30.3448C204.935 30.5027 204.995 30.6775 204.98 30.8693C204.977 31.0619 204.896 31.2259 204.739 31.3614C204.605 31.476 204.44 31.5229 204.243 31.5022C204.051 31.4875 203.887 31.4012 203.752 31.2434L201.642 28.7843L201.822 28.7725L199.991 30.343L200.055 30.1777L201.797 32.2087C201.933 32.3666 201.993 32.5414 201.979 32.7331C201.975 32.9258 201.895 33.0898 201.737 33.2253C201.603 33.3399 201.438 33.3868 201.241 33.366C201.049 33.3514 200.885 33.2651 200.75 33.1072L198.992 31.058L199.144 31.0697L196.94 32.9605C196.782 33.096 196.599 33.1529 196.391 33.1313C196.194 33.1106 196.03 33.0243 195.9 32.8725Z" fill="#618A54"/>
<path d="M199.819 38.3446C199.694 38.1583 199.649 37.9675 199.682 37.7722C199.726 37.5791 199.835 37.4248 200.008 37.3094L205.776 33.4582C205.949 33.3427 206.13 33.3037 206.319 33.3413C206.518 33.3811 206.676 33.4875 206.791 33.6605L208.957 36.9041C209.072 37.0771 209.111 37.2579 209.074 37.4465C209.047 37.6374 208.947 37.7905 208.774 37.906C208.628 38.0037 208.458 38.0305 208.265 37.9862C208.077 37.9486 207.925 37.8433 207.809 37.6703L206.01 34.9757L206.19 34.9855L204.184 36.3248L204.267 36.1683L205.753 38.3939C205.868 38.5669 205.907 38.7477 205.87 38.9363C205.843 39.1272 205.743 39.2803 205.57 39.3958C205.424 39.4935 205.254 39.5203 205.061 39.476C204.873 39.4384 204.721 39.3331 204.605 39.1601L203.106 36.9146L203.256 36.9444L200.84 38.5569C200.667 38.6724 200.479 38.7069 200.275 38.6604C200.082 38.6162 199.93 38.5109 199.819 38.3446Z" fill="#618A54"/>
<path d="M204.038 44.6094C203.853 44.7031 203.661 44.7145 203.464 44.6436C203.274 44.5691 203.134 44.4426 203.044 44.264C202.943 44.064 202.923 43.8727 202.983 43.69C203.051 43.5037 203.177 43.3637 203.363 43.2701L209.556 40.1468C209.742 40.0531 209.928 40.0399 210.114 40.1073C210.307 40.171 210.454 40.3029 210.555 40.5029C210.642 40.6743 210.653 40.8567 210.589 41.0501C210.536 41.2471 210.417 41.3924 210.231 41.4861L204.038 44.6094Z" fill="#618A54"/>
<path d="M213.702 48.7874C213.689 49.0195 213.586 49.1947 213.393 49.3129C213.203 49.4384 212.994 49.4679 212.764 49.4013C212.591 49.3629 212.464 49.2697 212.382 49.1218C212.304 48.9813 212.269 48.818 212.276 48.6321C212.28 48.4209 212.262 48.2067 212.22 47.9894C212.182 47.7794 212.117 47.5679 212.025 47.3549C211.853 46.9583 211.637 46.629 211.376 46.3671C211.118 46.1126 210.824 45.9259 210.494 45.807C210.171 45.685 209.826 45.6334 209.46 45.6523C209.096 45.6785 208.724 45.774 208.342 45.9389C207.894 46.1324 207.531 46.3629 207.255 46.6304C206.981 46.9054 206.784 47.2042 206.662 47.527C206.539 47.8499 206.49 48.1893 206.513 48.5453C206.543 48.8982 206.636 49.2546 206.792 49.6145C206.877 49.8128 206.981 50.0032 207.104 50.1856C207.226 50.368 207.375 50.5305 207.549 50.6728C207.689 50.7954 207.78 50.9348 207.821 51.0912C207.866 51.255 207.844 51.4168 207.757 51.5767C207.636 51.8029 207.468 51.9368 207.25 51.9783C207.043 52.0241 206.856 51.9741 206.689 51.8286C206.511 51.6789 206.345 51.5154 206.19 51.3383C206.045 51.1654 205.914 50.9825 205.796 50.7895C205.67 50.5997 205.562 50.3983 205.47 50.1853C205.241 49.6565 205.109 49.1169 205.071 48.5666C205.037 48.0236 205.105 47.4935 205.273 46.9762C205.445 46.4662 205.731 45.9985 206.131 45.5731C206.539 45.1444 207.07 44.789 207.723 44.5067C208.289 44.2625 208.851 44.1328 209.411 44.1177C209.974 44.1098 210.504 44.2077 211.002 44.4111C211.51 44.6188 211.964 44.9238 212.364 45.3261C212.772 45.7252 213.099 46.2112 213.347 46.7841C213.486 47.1072 213.586 47.4389 213.646 47.7791C213.705 48.1193 213.724 48.4554 213.702 48.7874Z" fill="#618A54"/>
<path d="M214.669 52.0018L215.75 55.8737C215.806 56.0741 215.787 56.258 215.692 56.4256C215.608 56.5987 215.465 56.7132 215.265 56.7691C215.072 56.8229 214.895 56.7977 214.733 56.6934C214.581 56.5946 214.477 56.4451 214.421 56.2448L213.517 53.0085L213.743 53.0577L211.489 53.6868L211.556 53.5686L212.311 56.2732C212.367 56.4735 212.347 56.6574 212.253 56.825C212.168 56.9981 212.026 57.1126 211.826 57.1686C211.633 57.2223 211.456 57.1971 211.294 57.0928C211.142 56.9941 211.037 56.8445 210.982 56.6442L210.236 53.9743L210.345 54.0062L208.01 54.658L208.088 54.5365L208.988 57.7612C209.044 57.9615 209.021 58.1466 208.919 58.3163C208.827 58.4915 208.692 58.6039 208.515 58.6534C208.322 58.7072 208.145 58.6819 207.983 58.5776C207.823 58.481 207.715 58.3326 207.659 58.1322L206.578 54.2603C206.523 54.0599 206.541 53.8721 206.633 53.6969C206.735 53.5272 206.886 53.4143 207.087 53.3584L213.767 51.4935C213.968 51.4376 214.152 51.4568 214.319 51.5513C214.497 51.6513 214.613 51.8014 214.669 52.0018Z" fill="#618A54"/>
<path d="M131.95 53.3632C132.08 53.3632 132.216 53.4006 132.356 53.4752C132.505 53.5406 132.617 53.6292 132.692 53.7412L136.094 58.9772L135.394 58.9492L138.88 53.7412C139.057 53.4892 139.286 53.3632 139.566 53.3632C139.79 53.3632 139.99 53.4426 140.168 53.6012C140.345 53.7599 140.434 53.9652 140.434 54.2172V62.3232C140.434 62.5659 140.354 62.7712 140.196 62.9392C140.037 63.0979 139.827 63.1772 139.566 63.1772C139.304 63.1772 139.09 63.0979 138.922 62.9392C138.763 62.7712 138.684 62.5659 138.684 62.3232V55.7292L139.23 55.8552L136.374 60.2092C136.29 60.3119 136.182 60.4006 136.052 60.4752C135.93 60.5499 135.804 60.5826 135.674 60.5732C135.552 60.5826 135.426 60.5499 135.296 60.4752C135.174 60.4006 135.072 60.3119 134.988 60.2092L132.314 55.9812L132.678 55.2392V62.3232C132.678 62.5659 132.603 62.7712 132.454 62.9392C132.304 63.0979 132.108 63.1772 131.866 63.1772C131.632 63.1772 131.441 63.0979 131.292 62.9392C131.142 62.7712 131.068 62.5659 131.068 62.3232V54.2172C131.068 53.9839 131.152 53.7832 131.32 53.6152C131.497 53.4472 131.707 53.3632 131.95 53.3632ZM149.09 55.5472C149.333 55.5472 149.534 55.6266 149.692 55.7852C149.851 55.9439 149.93 56.1492 149.93 56.4012V62.3232C149.93 62.5659 149.851 62.7712 149.692 62.9392C149.534 63.0979 149.333 63.1772 149.09 63.1772C148.848 63.1772 148.647 63.0979 148.488 62.9392C148.33 62.7712 148.25 62.5659 148.25 62.3232V61.6372L148.558 61.7632C148.558 61.8846 148.493 62.0339 148.362 62.2112C148.232 62.3792 148.054 62.5472 147.83 62.7152C147.606 62.8832 147.34 63.0279 147.032 63.1492C146.734 63.2612 146.407 63.3172 146.052 63.3172C145.408 63.3172 144.825 63.1539 144.302 62.8272C143.78 62.4912 143.364 62.0339 143.056 61.4552C142.758 60.8672 142.608 60.1952 142.608 59.4392C142.608 58.6739 142.758 58.0019 143.056 57.4232C143.364 56.8352 143.775 56.3779 144.288 56.0512C144.802 55.7152 145.371 55.5472 145.996 55.5472C146.398 55.5472 146.766 55.6079 147.102 55.7292C147.438 55.8506 147.728 56.0046 147.97 56.1912C148.222 56.3779 148.414 56.5692 148.544 56.7652C148.684 56.9519 148.754 57.1106 148.754 57.2412L148.25 57.4232V56.4012C148.25 56.1586 148.33 55.9579 148.488 55.7992C148.647 55.6312 148.848 55.5472 149.09 55.5472ZM146.262 61.7772C146.673 61.7772 147.032 61.6746 147.34 61.4692C147.648 61.2639 147.886 60.9839 148.054 60.6292C148.232 60.2746 148.32 59.8779 148.32 59.4392C148.32 58.9912 148.232 58.5899 148.054 58.2352C147.886 57.8806 147.648 57.6006 147.34 57.3952C147.032 57.1899 146.673 57.0872 146.262 57.0872C145.861 57.0872 145.506 57.1899 145.198 57.3952C144.89 57.6006 144.648 57.8806 144.47 58.2352C144.302 58.5899 144.218 58.9912 144.218 59.4392C144.218 59.8779 144.302 60.2746 144.47 60.6292C144.648 60.9839 144.89 61.2639 145.198 61.4692C145.506 61.6746 145.861 61.7772 146.262 61.7772ZM153.149 63.1772C152.907 63.1772 152.706 63.0979 152.547 62.9392C152.389 62.7712 152.309 62.5659 152.309 62.3232V56.5412C152.309 56.2986 152.389 56.0979 152.547 55.9392C152.706 55.7712 152.907 55.6872 153.149 55.6872C153.392 55.6872 153.593 55.7712 153.751 55.9392C153.91 56.0979 153.989 56.2986 153.989 56.5412V57.8572L153.891 56.9192C153.994 56.6952 154.125 56.4992 154.283 56.3312C154.451 56.1539 154.638 56.0092 154.843 55.8972C155.049 55.7759 155.268 55.6872 155.501 55.6312C155.735 55.5752 155.968 55.5472 156.201 55.5472C156.481 55.5472 156.715 55.6266 156.901 55.7852C157.097 55.9439 157.195 56.1306 157.195 56.3452C157.195 56.6532 157.116 56.8772 156.957 57.0172C156.799 57.1479 156.626 57.2132 156.439 57.2132C156.262 57.2132 156.099 57.1806 155.949 57.1152C155.809 57.0499 155.646 57.0172 155.459 57.0172C155.291 57.0172 155.119 57.0592 154.941 57.1432C154.773 57.2179 154.615 57.3392 154.465 57.5072C154.325 57.6752 154.209 57.8852 154.115 58.1372C154.031 58.3799 153.989 58.6692 153.989 59.0052V62.3232C153.989 62.5659 153.91 62.7712 153.751 62.9392C153.593 63.0979 153.392 63.1772 153.149 63.1772ZM158.014 63.1632C157.743 63.1632 157.533 63.0932 157.384 62.9532C157.244 62.8039 157.174 62.5939 157.174 62.3232V62.0852C157.174 61.8146 157.244 61.6092 157.384 61.4692C157.533 61.3199 157.743 61.2452 158.014 61.2452H158.196C158.466 61.2452 158.672 61.3199 158.812 61.4692C158.961 61.6092 159.036 61.8146 159.036 62.0852V62.3232C159.036 62.5939 158.961 62.8039 158.812 62.9532C158.672 63.0932 158.466 63.1632 158.196 63.1632H158.014ZM166.46 61.2032C166.544 61.2032 166.632 61.2172 166.726 61.2452C166.828 61.2732 166.94 61.3292 167.062 61.4132C167.22 61.5346 167.407 61.6419 167.622 61.7352C167.846 61.8286 168.102 61.8752 168.392 61.8752C168.681 61.8752 168.952 61.8052 169.204 61.6652C169.465 61.5159 169.68 61.3106 169.848 61.0492C170.016 60.7786 170.1 60.4566 170.1 60.0832C170.1 59.7286 170.025 59.4346 169.876 59.2012C169.736 58.9679 169.544 58.7906 169.302 58.6692C169.068 58.5479 168.816 58.4872 168.546 58.4872C168.34 58.4872 168.168 58.5059 168.028 58.5432C167.897 58.5806 167.766 58.6226 167.636 58.6692C167.514 58.7066 167.37 58.7252 167.202 58.7252C166.987 58.7252 166.819 58.6506 166.698 58.5012C166.586 58.3519 166.53 58.1746 166.53 57.9692C166.53 57.8386 166.553 57.7219 166.6 57.6192C166.656 57.5166 166.735 57.4046 166.838 57.2832L169.302 54.6652L169.68 54.9872H166.236C166.012 54.9872 165.825 54.9126 165.676 54.7632C165.526 54.6139 165.452 54.4272 165.452 54.2032C165.452 53.9886 165.526 53.8112 165.676 53.6712C165.825 53.5219 166.012 53.4472 166.236 53.4472H170.52C170.809 53.4472 171.024 53.5266 171.164 53.6852C171.313 53.8439 171.388 54.0446 171.388 54.2872C171.388 54.4086 171.355 54.5299 171.29 54.6512C171.224 54.7632 171.145 54.8659 171.052 54.9592L168.574 57.6192L168.196 57.1432C168.298 57.0966 168.438 57.0546 168.616 57.0172C168.802 56.9799 168.956 56.9612 169.078 56.9612C169.628 56.9612 170.104 57.1059 170.506 57.3952C170.916 57.6752 171.229 58.0439 171.444 58.5012C171.668 58.9492 171.78 59.4346 171.78 59.9572C171.78 60.6479 171.626 61.2452 171.318 61.7492C171.01 62.2532 170.576 62.6406 170.016 62.9112C169.456 63.1819 168.802 63.3172 168.056 63.3172C167.71 63.3172 167.37 63.2752 167.034 63.1912C166.698 63.1072 166.408 62.9952 166.166 62.8552C165.96 62.7432 165.82 62.6219 165.746 62.4912C165.68 62.3512 165.648 62.2206 165.648 62.0992C165.648 61.8846 165.722 61.6839 165.872 61.4972C166.03 61.3012 166.226 61.2032 166.46 61.2032ZM176.303 63.1772C176.042 63.1772 175.827 63.0979 175.659 62.9392C175.491 62.7712 175.407 62.5659 175.407 62.3232V55.2672L175.603 55.5752L174.581 56.3312C174.451 56.4339 174.287 56.4852 174.091 56.4852C173.867 56.4852 173.671 56.4012 173.503 56.2332C173.335 56.0652 173.251 55.8646 173.251 55.6312C173.251 55.3326 173.396 55.0899 173.685 54.9032L175.701 53.5592C175.795 53.4939 175.897 53.4472 176.009 53.4192C176.131 53.3912 176.243 53.3772 176.345 53.3772C176.616 53.3772 176.831 53.4612 176.989 53.6292C177.148 53.7879 177.227 53.9886 177.227 54.2312V62.3232C177.227 62.5659 177.139 62.7712 176.961 62.9392C176.793 63.0979 176.574 63.1772 176.303 63.1772ZM136.43 79.6372C136.654 79.6372 136.84 79.7119 136.99 79.8612C137.139 80.0106 137.214 80.1972 137.214 80.4212C137.214 80.6359 137.139 80.8179 136.99 80.9672C136.84 81.1072 136.654 81.1772 136.43 81.1772H131.67C131.427 81.1772 131.236 81.1026 131.096 80.9532C130.956 80.8039 130.886 80.6126 130.886 80.3792C130.886 80.1459 130.97 79.9406 131.138 79.7632L134.19 76.5012C134.535 76.1279 134.806 75.7452 135.002 75.3532C135.207 74.9612 135.31 74.6206 135.31 74.3312C135.31 73.8646 135.174 73.4912 134.904 73.2112C134.633 72.9219 134.274 72.7772 133.826 72.7772C133.648 72.7772 133.466 72.8192 133.28 72.9032C133.093 72.9872 132.911 73.1039 132.734 73.2532C132.566 73.4026 132.407 73.5752 132.258 73.7712C132.146 73.9206 132.034 74.0139 131.922 74.0512C131.81 74.0886 131.707 74.1072 131.614 74.1072C131.408 74.1072 131.217 74.0326 131.04 73.8832C130.872 73.7246 130.788 73.5426 130.788 73.3372C130.788 73.1786 130.839 73.0246 130.942 72.8752C131.054 72.7259 131.189 72.5719 131.348 72.4132C131.581 72.1799 131.842 71.9746 132.132 71.7972C132.421 71.6199 132.72 71.4846 133.028 71.3912C133.336 71.2886 133.634 71.2372 133.924 71.2372C134.549 71.2372 135.09 71.3632 135.548 71.6152C136.014 71.8579 136.374 72.2079 136.626 72.6652C136.878 73.1132 137.004 73.6452 137.004 74.2612C137.004 74.7746 136.85 75.3486 136.542 75.9832C136.243 76.6086 135.837 77.1966 135.324 77.7472L133.434 79.7632L133.28 79.6372H136.43ZM142.846 81.3172C142.044 81.3172 141.362 81.1072 140.802 80.6872C140.252 80.2579 139.832 79.6652 139.542 78.9092C139.253 78.1439 139.108 77.2666 139.108 76.2772C139.108 75.2786 139.253 74.4012 139.542 73.6452C139.832 72.8892 140.252 72.3012 140.802 71.8812C141.362 71.4519 142.044 71.2372 142.846 71.2372C143.649 71.2372 144.326 71.4519 144.876 71.8812C145.436 72.3012 145.861 72.8892 146.15 73.6452C146.44 74.4012 146.584 75.2786 146.584 76.2772C146.584 77.2666 146.44 78.1439 146.15 78.9092C145.861 79.6652 145.436 80.2579 144.876 80.6872C144.326 81.1072 143.649 81.3172 142.846 81.3172ZM142.846 79.6372C143.238 79.6372 143.574 79.5159 143.854 79.2732C144.144 79.0212 144.368 78.6479 144.526 78.1532C144.685 77.6492 144.764 77.0239 144.764 76.2772C144.764 75.5212 144.685 74.8959 144.526 74.4012C144.368 73.9066 144.144 73.5379 143.854 73.2952C143.574 73.0432 143.238 72.9172 142.846 72.9172C142.464 72.9172 142.128 73.0432 141.838 73.2952C141.549 73.5379 141.325 73.9066 141.166 74.4012C141.008 74.8959 140.928 75.5212 140.928 76.2772C140.928 77.0239 141.008 77.6492 141.166 78.1532C141.325 78.6479 141.549 79.0212 141.838 79.2732C142.128 79.5159 142.464 79.6372 142.846 79.6372ZM151.04 81.1772C150.779 81.1772 150.564 81.0979 150.396 80.9392C150.228 80.7712 150.144 80.5659 150.144 80.3232V73.2672L150.34 73.5752L149.318 74.3312C149.187 74.4339 149.024 74.4852 148.828 74.4852C148.604 74.4852 148.408 74.4012 148.24 74.2332C148.072 74.0652 147.988 73.8646 147.988 73.6312C147.988 73.3326 148.133 73.0899 148.422 72.9032L150.438 71.5592C150.531 71.4939 150.634 71.4472 150.746 71.4192C150.867 71.3912 150.979 71.3772 151.082 71.3772C151.353 71.3772 151.567 71.4612 151.726 71.6292C151.885 71.7879 151.964 71.9886 151.964 72.2312V80.3232C151.964 80.5659 151.875 80.7712 151.698 80.9392C151.53 81.0979 151.311 81.1772 151.04 81.1772ZM159.113 76.2072L159.085 75.8852C159.44 76.0439 159.748 76.2492 160.009 76.5012C160.271 76.7532 160.471 77.0286 160.611 77.3272C160.751 77.6259 160.821 77.9339 160.821 78.2512C160.821 78.7832 160.672 79.2732 160.373 79.7212C160.084 80.1599 159.692 80.5146 159.197 80.7852C158.703 81.0466 158.152 81.1772 157.545 81.1772C156.939 81.1772 156.388 81.0466 155.893 80.7852C155.399 80.5146 155.002 80.1599 154.703 79.7212C154.414 79.2732 154.269 78.7832 154.269 78.2512C154.269 77.8219 154.358 77.4532 154.535 77.1452C154.722 76.8279 154.951 76.5619 155.221 76.3472C155.501 76.1326 155.777 75.9552 156.047 75.8152L155.935 76.2072C155.702 76.1139 155.473 75.9832 155.249 75.8152C155.035 75.6379 154.857 75.4139 154.717 75.1432C154.577 74.8726 154.507 74.5552 154.507 74.1912C154.507 73.6686 154.643 73.1972 154.913 72.7772C155.184 72.3479 155.548 72.0072 156.005 71.7552C156.472 71.5032 156.985 71.3772 157.545 71.3772C158.115 71.3772 158.623 71.5032 159.071 71.7552C159.529 72.0072 159.893 72.3479 160.163 72.7772C160.434 73.1972 160.569 73.6686 160.569 74.1912C160.569 74.5926 160.49 74.9286 160.331 75.1992C160.173 75.4699 159.981 75.6846 159.757 75.8432C159.533 76.0019 159.319 76.1232 159.113 76.2072ZM156.187 74.2192C156.187 74.4712 156.243 74.6952 156.355 74.8912C156.477 75.0872 156.64 75.2459 156.845 75.3672C157.051 75.4792 157.284 75.5352 157.545 75.5352C157.807 75.5352 158.035 75.4792 158.231 75.3672C158.437 75.2459 158.595 75.0872 158.707 74.8912C158.829 74.6952 158.889 74.4712 158.889 74.2192C158.889 73.8459 158.759 73.5379 158.497 73.2952C158.245 73.0432 157.928 72.9172 157.545 72.9172C157.153 72.9172 156.827 73.0432 156.565 73.2952C156.313 73.5379 156.187 73.8459 156.187 74.2192ZM157.545 79.6372C157.993 79.6372 158.371 79.5019 158.679 79.2312C158.987 78.9512 159.141 78.6152 159.141 78.2232C159.141 77.9526 159.071 77.7099 158.931 77.4952C158.791 77.2806 158.6 77.1126 158.357 76.9912C158.115 76.8606 157.844 76.7952 157.545 76.7952C157.247 76.7952 156.976 76.8606 156.733 76.9912C156.491 77.1126 156.299 77.2806 156.159 77.4952C156.019 77.7099 155.949 77.9526 155.949 78.2232C155.949 78.6152 156.103 78.9512 156.411 79.2312C156.719 79.5019 157.097 79.6372 157.545 79.6372Z" fill="#618A54"/>
<path fill-rule="evenodd" clip-rule="evenodd" d="M192.08 85.1773C185.268 99.9355 170.339 110.177 153.018 110.177C135.696 110.177 120.767 99.9355 113.955 85.1773H111.762C118.706 101.07 134.565 112.177 153.018 112.177C171.47 112.177 187.329 101.07 194.273 85.1773H192.08ZM116.679 44.1772C124.304 32.1562 137.729 24.1772 153.018 24.1772C168.306 24.1772 181.731 32.1562 189.356 44.1772H191.704C183.854 31.0029 169.467 22.1772 153.018 22.1772C136.568 22.1772 122.181 31.0029 114.331 44.1772H116.679Z" fill="#618A54"/>
</g>
</svg>
