<svg width="60" height="60" viewBox="0 0 60 60" fill="none" xmlns="http://www.w3.org/2000/svg">
<path d="M43.5 3C38.28 3 33.27 5.42779 30 9.26431C26.73 5.42779 21.72 3 16.5 3C7.26 3 0 10.2534 0 19.485C0 30.8147 10.2 40.0463 25.65 54.0736L30 58L34.35 54.0436C49.8 40.0463 60 30.8147 60 19.485C60 10.2534 52.74 3 43.5 3ZM30.3 49.6076L30 49.9074L29.7 49.6076C15.42 36.6894 6 28.1471 6 19.485C6 13.4905 10.5 8.99455 16.5 8.99455C21.12 8.99455 25.62 11.9619 27.21 16.0681H32.82C34.38 11.9619 38.88 8.99455 43.5 8.99455C49.5 8.99455 54 13.4905 54 19.485C54 28.1471 44.58 36.6894 30.3 49.6076Z" fill="black"/>
</svg>
